{
.appVersion = "1141";
DisplayStrings = (
"/yodyodpatah"
);
copyright = "Copyright 2009 by Yoram Gnat (yoram.gnat@gmail.com)\012Distributed under the terms of GNU General Public License version 2(http://www.gnu.org/licenses/gpl.html). \012\012Hebrew OpenType Layout logic copyright (c) 2003 & 2007, Ralph Hancock & John Hudson. This layout logic for Biblical Hebrew is open source software under the MIT License; for details  contact copyright holders at <license@tiro.com>.\012\012As a special exception, if you create a document which uses this font, and embed this font or unaltered portions of this font into the document, this font does not by itself cause the resulting document to be covered by the GNU General Public License. This exception does not however invalidate any other reasons why the document might be covered by the GNU General Public License. If you modify this font, you may extend this exception to your version of the font, but you are not obligated to do so. If you do not wish to do so, delete this exception statement from your version.";
customParameters = (
{
name = licenseURL;
value = "http://www.gnu.org/licenses/old-licenses/gpl-2.0.html, \012http://www.opensource.org/licenses/mit-license.php ";
},
{
name = license;

glyphs = (
{
glyphname = .notdef;
lastChange = "2018-07-29 15:04:19 +0000";
layers = (
{
layerId = "3C317020-980B-44E8-A79B-F384FFC5B400";
paths = (
{
closed = 1;
nodes = (
"23 1153 OFFCURVE",
"23 1115 QCURVE SMOOTH",
"23 1103 OFFCURVE",
"25 1096 QCURVE",
"39 1035 OFFCURVE",
"87 1035 QCURVE SMOOTH",
"292 1035 OFFCURVE",
"323 896 QCURVE",
"326 886 OFFCURVE",
"326 875 QCURVE SMOOTH",
"326 826 OFFCURVE",
"267 790 QCURVE SMOOTH",
"202 751 LINE SMOOTH",
"143 715 OFFCURVE",
"143 667 QCURVE SMOOTH",
"143 656 OFFCURVE",
"146 646 QCURVE",
"158 592 OFFCURVE",
"233 498 QCURVE",
"241 491 OFFCURVE",
"264 496 OFFCURVE",
"262 506 QCURVE",
"237 557 OFFCURVE",
"228 594 QCURVE",
"227 597 OFFCURVE",
"227 604 QCURVE SMOOTH",
"227 633 OFFCURVE",
"265 657 QCURVE SMOOTH",
"367 718 LINE SMOOTH",
"401 739 OFFCURVE",
"401 793 QCURVE SMOOTH",
"401 820 OFFCURVE",
"394 851 QCURVE SMOOTH",
"368 964 OFFCURVE",
"166 1153 OFFCURVE",
"71 1153 QCURVE SMOOTH"
);
},
{
closed = 1;
nodes = (
"257 349 OFFCURVE",
"222 313 OFFCURVE",
"222 284 QCURVE SMOOTH",
"222 274 OFFCURVE",
"225 260 QCURVE SMOOTH",
"232 227 OFFCURVE",
"289 178 OFFCURVE",
"326 178 QCURVE SMOOTH",
"356 178 OFFCURVE",
"395 210 OFFCURVE",
"395 239 QCURVE SMOOTH",
"395 248 OFFCURVE",
"392 260 QCURVE SMOOTH",
"383 296 OFFCURVE",
"324 349 OFFCURVE",
"287 349 QCURVE SMOOTH"
);
},
{
closed = 1;
nodes = (
"87 98 LINE",
"-193 1313 LINE",
"496 1313 LINE",
"776 98 LINE"
);
},
{
closed = 1;
nodes = (
"-299 1412 LINE",
"27 0 LINE",
"882 0 LINE",
"556 1412 LINE"
);
}
);
width = 942;
}
);
note = .notdef;
},
{
glyphname = exclam;
lastChange = "2018-07-29 15:04:19 +0000";
layers = (
{
layerId = "3C317020-980B-44E8-A79B-F384FFC5B400";
paths = (
{
closed = 1;
nodes = (
"51 434 LINE",
"184 534 LINE",
"17 1396 LINE",
"-206 1210 LINE"
);
},
{
closed = 1;
nodes = (
"102 182 LINE",
"76 155 OFFCURVE",
"76 130 QCURVE SMOOTH",
"76 126 OFFCURVE",
"78 118 QCURVE SMOOTH",
"83 96 OFFCURVE",
"118 52 QCURVE SMOOTH",
"163 -3 OFFCURVE",
"215 -3 QCURVE SMOOTH",
"225 -3 OFFCURVE",
"231 0 QCURVE",
"363 103 LINE",
"250 190 OFFCURVE",
"203 271 QCURVE"
);
}
);
width = 473;
}
);
note = exclam;
unicode = 0021;
},
{
glyphname = quotedbl;
lastChange = "2018-07-29 15:04:19 +0000";
layers = (
{
layerId = "3C317020-980B-44E8-A79B-F384FFC5B400";
paths = (
{
closed = 1;
nodes = (
"103 1407 LINE",
"180 982 LINE",
"283 995 LINE",
"271 1429 LINE"
);
},
{
closed = 1;
nodes = (
"-224 1407 LINE",
"-147 982 LINE",
"-44 995 LINE",
"-56 1429 LINE"
);
}
);
width = 721;
}
);
note = quotedbl;
unicode = 0022;
},
{
glyphname = numbersign;
lastChange = "2018-07-29 15:04:19 +0000";
layers = (
{
layerId = "3C317020-980B-44E8-A79B-F384FFC5B400";
paths = (
{
closed = 1;
nodes = (
"586 1032 LINE",
"579 1435 LINE",
"436 1435 LINE",
"443 1032 LINE",
"271 1032 LINE",
"262 1435 LINE",
"118 1435 LINE",
"127 1032 LINE",
"-104 1032 LINE",
"-100 889 LINE",
"130 889 LINE",
"137 547 LINE",
"-95 547 LINE",
"-93 403 LINE",
"137 403 LINE",
"144 0 LINE",
"287 0 LINE",
"280 403 LINE",
"454 403 LINE",
"461 0 LINE",
"605 0 LINE",
"598 403 LINE",
"827 403 LINE",
"823 547 LINE",
"594 547 LINE",
"588 889 LINE",
"818 889 LINE",
"815 1032 LINE"
);
},
{
closed = 1;
nodes = (
"450 547 LINE",
"280 547 LINE",
"273 889 LINE",
"445 889 LINE"
);
}
);
width = 1135;
}
);
note = numbersign;
unicode = 0023;
},
{
glyphname = dollar;
lastChange = "2018-07-29 15:04:19 +0000";
layers = (
{
layerId = "3C317020-980B-44E8-A79B-F384FFC5B400";
paths = (
{
closed = 1;
nodes = (
"540 603 OFFCURVE",
"689 473 OFFCURVE",
"710 380 QCURVE SMOOTH",
"720 337 OFFCURVE",
"720 296 QCURVE SMOOTH",
"720 219 OFFCURVE",
"642 124 OFFCURVE",
"570 114 QCURVE",
"445 607 LINE"
);
},
{
closed = 1;
nodes = (
"319 898 LINE",
"285 906 OFFCURVE",
"216 932 OFFCURVE",
"131 979 OFFCURVE",
"66 1056 OFFCURVE",
"54 1103 QCURVE",
"45 1133 LINE",
"38 1161 OFFCURVE",
"38 1190 QCURVE SMOOTH",
"38 1258 OFFCURVE",
"109 1352 OFFCURVE",
"157 1357 QCURVE",
"161 1358 OFFCURVE",
"170 1358 QCURVE SMOOTH",
"174 1358 OFFCURVE",
"194 1357 OFFCURVE",
"200 1357 QCURVE"
);
},
{
closed = 1;
nodes = (
"-131 882 OFFCURVE",
"-89 828 OFFCURVE",
"-34 792 QCURVE",
"58 744 OFFCURVE",
"355 657 OFFCURVE",
"375 650 QCURVE",
"498 126 LINE",
"458 137 OFFCURVE",
"411 152 OFFCURVE",
"338 188 OFFCURVE",
"285 232 OFFCURVE",
"222 308 OFFCURVE",
"194 358 QCURVE",
"-5 218 LINE",
"-15 208 OFFCURVE",
"-9 180 QCURVE",
"6 124 OFFCURVE",
"144 28 OFFCURVE",
"326 -25 OFFCURVE",
"414 -25 QCURVE SMOOTH",
"477 -25 OFFCURVE",
"531 -8 QCURVE",
"570 -214 LINE",
"645 -158 LINE",
"603 26 LINE",
"725 105 OFFCURVE",
"927 370 OFFCURVE",
"927 490 QCURVE SMOOTH",
"927 516 OFFCURVE",
"923 536 QCURVE",
"920 548 LINE SMOOTH",
"911 588 OFFCURVE",
"863 657 OFFCURVE",
"819 694 OFFCURVE",
"780 722 QCURVE",
"587 802 OFFCURVE",
"399 858 QCURVE",
"280 1356 LINE",
"304 1351 OFFCURVE",
"349 1329 OFFCURVE",
"396 1289 OFFCURVE",
"423 1262 OFFCURVE",
"477 1204 OFFCURVE",
"487 1194 QCURVE",
"533 1220 OFFCURVE",
"552 1252 QCURVE",
"629 1274 OFFCURVE",
"676 1322 QCURVE",
"642 1377 OFFCURVE",
"484 1462 OFFCURVE",
"371 1462 QCURVE SMOOTH",
"317 1462 OFFCURVE",
"254 1450 QCURVE",
"216 1626 LINE",
"150 1574 LINE",
"183 1428 LINE",
"128 1397 OFFCURVE",
"51 1349 OFFCURVE",
"-50 1268 OFFCURVE",
"-111 1189 OFFCURVE",
"-155 1080 OFFCURVE",
"-155 1020 QCURVE SMOOTH",
"-155 977 OFFCURVE",
"-145 934 QCURVE SMOOTH"
);
}
);
width = 1156;
}
);
note = dollar;
unicode = 0024;
},
{
glyphname = percent;
lastChange = "2018-07-29 15:04:19 +0000";
layers = (
{
layerId = "3C317020-980B-44E8-A79B-F384FFC5B400";
paths = (
{
closed = 1;
nodes = (
"1060 813 OFFCURVE",
"1119 813 QCURVE SMOOTH",
"1259 813 OFFCURVE",
"1501 589 OFFCURVE",
"1545 400 QCURVE",
"1547 389 OFFCURVE",
"1553 365 QCURVE",
"1554 362 OFFCURVE",
"1556 349 OFFCURVE",
"1557 346 QCURVE",
"1566 308 OFFCURVE",
"1566 271 QCURVE SMOOTH",
"1566 196 OFFCURVE",
"1494 98 OFFCURVE",
"1426 98 QCURVE SMOOTH",
"1296 98 OFFCURVE",
"1053 370 OFFCURVE",
"1011 552 QCURVE SMOOTH",
"995 617 OFFCURVE",
"994 678 QCURVE",
"984 662 OFFCURVE",
"935 591 OFFCURVE",
"910 550 OFFCURVE",
"887 480 OFFCURVE",
"887 445 QCURVE SMOOTH",
"887 418 OFFCURVE",
"895 381 QCURVE",
"896 380 OFFCURVE",
"896 374 OFFCURVE",
"897 372 QCURVE",
"930 230 OFFCURVE",
"1160 20 OFFCURVE",
"1296 20 QCURVE SMOOTH",
"1466 20 OFFCURVE",
"1662 252 OFFCURVE",
"1662 427 QCURVE SMOOTH",
"1662 498 OFFCURVE",
"1646 566 QCURVE SMOOTH",
"1614 707 OFFCURVE",
"1385 916 OFFCURVE",
"1250 916 QCURVE SMOOTH",
"1221 916 OFFCURVE",
"1168 907 OFFCURVE",
"1132 898 OFFCURVE",
"1082 872 OFFCURVE",
"1058 858 OFFCURVE",
"998 819 OFFCURVE",
"984 810 QCURVE",
"1003 790 LINE"
);
},
{
closed = 1;
nodes = (
"-27 1313 OFFCURVE",
"32 1313 QCURVE SMOOTH",
"172 1313 OFFCURVE",
"413 1089 OFFCURVE",
"457 900 QCURVE",
"463 880 OFFCURVE",
"465 865 QCURVE",
"466 862 OFFCURVE",
"469 849 OFFCURVE",
"470 846 QCURVE",
"479 808 OFFCURVE",
"479 771 QCURVE SMOOTH",
"479 696 OFFCURVE",
"407 598 OFFCURVE",
"339 598 QCURVE SMOOTH",
"209 598 OFFCURVE",
"-35 870 OFFCURVE",
"-77 1052 QCURVE SMOOTH",
"-91 1113 OFFCURVE",
"-93 1178 QCURVE",
"-102 1163 OFFCURVE",
"-153 1090 OFFCURVE",
"-177 1050 OFFCURVE",
"-200 981 OFFCURVE",
"-200 946 QCURVE SMOOTH",
"-200 912 OFFCURVE",
"-192 881 QCURVE",
"-192 878 OFFCURVE",
"-190 872 QCURVE",
"-158 730 OFFCURVE",
"73 520 OFFCURVE",
"209 520 QCURVE SMOOTH",
"379 520 OFFCURVE",
"575 752 OFFCURVE",
"575 927 QCURVE SMOOTH",
"575 998 OFFCURVE",
"559 1066 QCURVE SMOOTH",
"526 1208 OFFCURVE",
"297 1416 OFFCURVE",
"162 1416 QCURVE SMOOTH",
"133 1416 OFFCURVE",
"80 1407 OFFCURVE",
"44 1397 OFFCURVE",
"-5 1372 OFFCURVE",
"-30 1357 OFFCURVE",
"-89 1319 OFFCURVE",
"-103 1310 QCURVE",
"-85 1290 LINE"
);
},
{
closed = 1;
nodes = (
"375 0 LINE",
"475 16 LINE",
"1085 1394 LINE",
"996 1372 LINE"
);
}
);
width = 1886;
}
);
note = percent;
unicode = 0025;
},
{
glyphname = ampersand;
lastChange = "2018-07-29 15:04:19 +0000";
layers = (
{
layerId = "3C317020-980B-44E8-A79B-F384FFC5B400";
paths = (
{
closed = 1;
nodes = (
"772 668 LINE",
"850 330 LINE SMOOTH",
"855 311 OFFCURVE",
"855 288 QCURVE SMOOTH",
"855 232 OFFCURVE",
"771 180 OFFCURVE",
"689 170 QCURVE",
"617 170 LINE SMOOTH",
"536 170 OFFCURVE",
"345 233 OFFCURVE",
"179 366 OFFCURVE",
"160 449 QCURVE SMOOTH",
"152 486 OFFCURVE",
"152 512 QCURVE SMOOTH",
"152 601 OFFCURVE",
"317 668 OFFCURVE",
"501 668 QCURVE SMOOTH"
);
},
{
closed = 1;
nodes = (
"289 1236 OFFCURVE",
"425 1180 OFFCURVE",
"488 1115 QCURVE",
"653 1236 LINE",
"652 1239 OFFCURVE",
"641 1255 OFFCURVE",
"607 1286 OFFCURVE",
"559 1312 OFFCURVE",
"473 1334 OFFCURVE",
"421 1335 QCURVE",
"389 1337 OFFCURVE",
"373 1337 QCURVE SMOOTH",
"288 1337 OFFCURVE",
"180 1298 QCURVE",
"69 1243 LINE",
"-152 1096 OFFCURVE",
"-152 961 QCURVE SMOOTH",
"-152 941 OFFCURVE",
"-148 924 QCURVE SMOOTH",
"-139 887 OFFCURVE",
"-93 817 OFFCURVE",
"-49 775 OFFCURVE",
"28 725 OFFCURVE",
"57 710 OFFCURVE",
"91 693 QCURVE SMOOTH",
"185 650 LINE",
"125 599 LINE SMOOTH",
"-29 465 OFFCURVE",
"-29 357 QCURVE SMOOTH",
"-29 338 OFFCURVE",
"-24 315 QCURVE SMOOTH",
"-9 251 OFFCURVE",
"92 142 OFFCURVE",
"222 72 OFFCURVE",
"369 22 OFFCURVE",
"492 0 OFFCURVE",
"536 0 QCURVE SMOOTH",
"628 0 OFFCURVE",
"758 82 OFFCURVE",
"852 189 QCURVE SMOOTH",
"940 288 OFFCURVE",
"1013 423 OFFCURVE",
"1013 493 QCURVE SMOOTH",
"1013 531 OFFCURVE",
"1002 581 QCURVE SMOOTH",
"983 662 LINE",
"1179 668 LINE",
"1314 822 LINE",
"959 822 LINE",
"915 1012 LINE",
"733 888 LINE",
"751 811 LINE",
"501 811 LINE SMOOTH",
"384 811 OFFCURVE",
"284 820 OFFCURVE",
"220 837 QCURVE SMOOTH",
"179 848 OFFCURVE",
"111 890 OFFCURVE",
"70 935 OFFCURVE",
"39 987 OFFCURVE",
"26 1022 OFFCURVE",
"23 1037 QCURVE",
"17 1062 OFFCURVE",
"17 1085 QCURVE SMOOTH",
"17 1126 OFFCURVE",
"54 1188 OFFCURVE",
"112 1221 OFFCURVE",
"170 1236 OFFCURVE",
"197 1236 QCURVE SMOOTH"
);
}
);
width = 1598;
}
);
note = ampersand;
unicode = 0026;
},
{
glyphname = quotesingle;
lastChange = "2018-07-29 15:04:19 +0000";
layers = (
{
layerId = "3C317020-980B-44E8-A79B-F384FFC5B400";
paths = (
{
closed = 1;
nodes = (
"-224 1407 LINE",
"-147 982 LINE",
"-44 995 LINE",
"-56 1429 LINE"
);
}
);
width = 394;
}
);
note = quotesingle;
unicode = 0027;
},
{
glyphname = parenleft;
lastChange = "2018-07-29 15:04:19 +0000";
layers = (
{
layerId = "3C317020-980B-44E8-A79B-F384FFC5B400";
paths = (
{
closed = 1;
nodes = (
"-76 1448 LINE",
"-130 1246 OFFCURVE",
"-130 1028 QCURVE SMOOTH",
"-130 828 OFFCURVE",
"-85 635 QCURVE SMOOTH",
"19 188 OFFCURVE",
"342 -190 QCURVE",
"484 -40 LINE",
"446 8 OFFCURVE",
"421 40 OFFCURVE",
"329 166 OFFCURVE",
"279 247 OFFCURVE",
"194 396 OFFCURVE",
"138 523 OFFCURVE",
"78 692 OFFCURVE",
"59 775 QCURVE SMOOTH",
"20 949 OFFCURVE",
"20 1120 QCURVE SMOOTH",
"20 1327 OFFCURVE",
"75 1530 QCURVE"
);
}
);
width = 609;
}
);
note = parenleft;
unicode = 0028;
},
{
glyphname = parenright;
lastChange = "2018-07-29 15:04:19 +0000";
layers = (
{
layerId = "3C317020-980B-44E8-A79B-F384FFC5B400";
paths = (
{
closed = 1;
nodes = (
"222 -86 LINE",
"275 113 OFFCURVE",
"275 332 QCURVE SMOOTH",
"275 533 OFFCURVE",
"230 727 QCURVE SMOOTH",
"128 1173 OFFCURVE",
"-196 1552 QCURVE",
"-339 1402 LINE",
"-290 1341 OFFCURVE",
"-238 1272 OFFCURVE",
"-114 1089 OFFCURVE",
"-33 933 OFFCURVE",
"60 702 OFFCURVE",
"86 587 QCURVE SMOOTH",
"126 416 OFFCURVE",
"126 241 QCURVE SMOOTH",
"126 35 OFFCURVE",
"71 -168 QCURVE"
);
}
);
width = 506;
}
);
note = parenright;
unicode = 0029;
},
{
glyphname = asterisk;
lastChange = "2018-07-29 15:04:19 +0000";
layers = (
{
layerId = "3C317020-980B-44E8-A79B-F384FFC5B400";
paths = (
{
closed = 1;
nodes = (
"-13 594 OFFCURVE",
"-137 678 QCURVE",
"-118 513 LINE",
"-74 504 OFFCURVE",
"-36 504 QCURVE SMOOTH",
"34 504 OFFCURVE",
"111 533 QCURVE",
"81 425 OFFCURVE",
"-13 353 QCURVE",
"154 282 LINE",
"173 335 OFFCURVE",
"173 393 QCURVE SMOOTH",
"173 441 OFFCURVE",
"160 496 QCURVE",
"160 498 OFFCURVE",
"158 508 OFFCURVE",
"157 510 QCURVE",
"266 422 OFFCURVE",
"326 297 QCURVE",
"412 418 LINE",
"317 504 OFFCURVE",
"184 539 QCURVE",
"266 588 OFFCURVE",
"379 588 QCURVE SMOOTH",
"400 588 OFFCURVE",
"411 587 QCURVE",
"298 733 LINE",
"201 688 OFFCURVE",
"152 579 QCURVE",
"139 611 OFFCURVE",
"131 648 QCURVE SMOOTH",
"119 704 OFFCURVE",
"119 756 QCURVE SMOOTH",
"119 785 OFFCURVE",
"124 822 QCURVE",
"-32 791 LINE",
"3 680 OFFCURVE",
"109 574 QCURVE"
);
}
);
width = 656;
}
);
note = asterisk;
unicode = 002A;
},
{
glyphname = plus;
lastChange = "2018-07-29 15:04:19 +0000";
layers = (
{
layerId = "3C317020-980B-44E8-A79B-F384FFC5B400";
paths = (
{
closed = 1;
nodes = (
"616 639 LINE",
"280 639 LINE",
"203 975 LINE",
"85 975 LINE",
"162 639 LINE",
"-174 639 LINE",
"-147 522 LINE",
"189 522 LINE",
"267 186 LINE",
"385 186 LINE",
"307 522 LINE",
"643 522 LINE"
);
}
);
width = 873;
}
);
note = plus;
unicode = 002B;
},
{
glyphname = comma;
lastChange = "2018-07-29 15:04:19 +0000";
layers = (
{
layerId = "3C317020-980B-44E8-A79B-F384FFC5B400";
paths = (
{
closed = 1;
nodes = (
"176 10 LINE",
"222 61 OFFCURVE",
"222 104 QCURVE SMOOTH",
"222 110 OFFCURVE",
"220 120 QCURVE",
"206 178 OFFCURVE",
"123 256 OFFCURVE",
"58 291 QCURVE",
"-9 256 OFFCURVE",
"-69 188 QCURVE",
"60 99 OFFCURVE",
"77 26 QCURVE",
"77 4 OFFCURVE",
"77 4 QCURVE",
"77 -50 OFFCURVE",
"20 -86 QCURVE",
"50 -118 LINE"
);
}
);
width = 374;
}
);
note = comma;
unicode = 002C;
},
{
glyphname = hyphen;
lastChange = "2018-07-29 15:04:19 +0000";
layers = (
{
layerId = "3C317020-980B-44E8-A79B-F384FFC5B400";
paths = (
{
closed = 1;
nodes = (
"726 522 LINE",
"699 639 LINE",
"-91 639 LINE",
"-64 522 LINE"
);
}
);
width = 904;
}
);
note = hyphen;
unicode = 002D;
},
{
glyphname = period;
lastChange = "2018-07-29 15:04:19 +0000";
layers = (
{
layerId = "3C317020-980B-44E8-A79B-F384FFC5B400";
paths = (
{
closed = 1;
nodes = (
"-43 186 LINE",
"-69 157 OFFCURVE",
"-69 133 QCURVE SMOOTH",
"-69 122 OFFCURVE",
"-69 122 QCURVE",
"-64 100 OFFCURVE",
"-29 56 QCURVE SMOOTH",
"17 0 OFFCURVE",
"68 0 QCURVE SMOOTH",
"76 0 OFFCURVE",
"84 4 QCURVE",
"215 107 LINE",
"102 195 OFFCURVE",
"56 275 QCURVE"
);
}
);
width = 351;
}
);
note = period;
unicode = 002E;
},
{
glyphname = slash;
lastChange = "2018-07-29 15:04:19 +0000";
layers = (
{
layerId = "3C317020-980B-44E8-A79B-F384FFC5B400";
paths = (
{
closed = 1;
nodes = (
"-61 -24 LINE",
"104 -24 LINE",
"807 1452 LINE",
"639 1452 LINE"
);
}
);
width = 1276;
}
);
note = slash;
unicode = 002F;
},
{
glyphname = zero;
lastChange = "2018-07-29 15:04:19 +0000";
layers = (
{
layerId = "3C317020-980B-44E8-A79B-F384FFC5B400";
paths = (
{
closed = 1;
nodes = (
"184 1181 OFFCURVE",
"249 1181 QCURVE SMOOTH",
"320 1181 OFFCURVE",
"495 1039 OFFCURVE",
"644 830 OFFCURVE",
"761 594 OFFCURVE",
"783 499 QCURVE",
"783 496 LINE",
"788 464 OFFCURVE",
"788 440 QCURVE SMOOTH",
"788 354 OFFCURVE",
"704 229 OFFCURVE",
"633 227 QCURVE SMOOTH",
"619 227 LINE SMOOTH",
"525 227 OFFCURVE",
"338 369 OFFCURVE",
"204 590 OFFCURVE",
"176 712 QCURVE",
"175 715 OFFCURVE",
"172 726 QCURVE",
"155 803 OFFCURVE",
"155 851 QCURVE SMOOTH",
"155 901 OFFCURVE",
"179 1005 QCURVE",
"146 977 OFFCURVE",
"105 938 OFFCURVE",
"36 858 OFFCURVE",
"-5 783 OFFCURVE",
"-37 675 OFFCURVE",
"-37 618 QCURVE SMOOTH",
"-37 565 OFFCURVE",
"-24 510 QCURVE",
"-22 503 OFFCURVE",
"-18 487 QCURVE",
"29 366 OFFCURVE",
"196 143 OFFCURVE",
"396 0 OFFCURVE",
"482 0 QCURVE",
"560 4 OFFCURVE",
"735 164 OFFCURVE",
"868 384 OFFCURVE",
"956 629 OFFCURVE",
"956 717 QCURVE SMOOTH",
"956 743 OFFCURVE",
"951 768 QCURVE",
"914 904 OFFCURVE",
"744 1168 OFFCURVE",
"512 1349 OFFCURVE",
"401 1354 QCURVE",
"296 1353 OFFCURVE",
"160 1250 OFFCURVE",
"104 1154 QCURVE",
"138 1120 LINE"
);
}
);
width = 1234;
}
);
note = zero;
unicode = 0030;
},
{
glyphname = one;
lastChange = "2018-07-29 15:04:19 +0000";
layers = (
{
layerId = "3C317020-980B-44E8-A79B-F384FFC5B400";
paths = (
{
closed = 1;
nodes = (
"91 1352 OFFCURVE",
"-144 1152 OFFCURVE",
"-183 1095 QCURVE",
"-143 1074 LINE",
"-120 1103 OFFCURVE",
"-97 1103 QCURVE SMOOTH",
"-68 1103 OFFCURVE",
"-7 1026 OFFCURVE",
"44 904 OFFCURVE",
"80 792 OFFCURVE",
"94 738 QCURVE SMOOTH",
"258 28 LINE",
"480 198 LINE",
"243 1194 LINE SMOOTH",
"240 1205 OFFCURVE",
"227 1256 OFFCURVE",
"220 1281 OFFCURVE",
"205 1319 OFFCURVE",
"189 1338 OFFCURVE",
"163 1353 OFFCURVE",
"147 1353 QCURVE SMOOTH"
);
}
);
width = 677;
}
);
note = one;
unicode = 0031;
},
{
glyphname = two;
lastChange = "2018-07-29 15:04:19 +0000";
layers = (
{
layerId = "3C317020-980B-44E8-A79B-F384FFC5B400";
paths = (
{
closed = 1;
nodes = (
"-128 1126 LINE",
"-65 1178 OFFCURVE",
"26 1178 QCURVE SMOOTH",
"96 1178 OFFCURVE",
"157 1137 QCURVE",
"218 1108 OFFCURVE",
"329 923 OFFCURVE",
"352 825 QCURVE SMOOTH",
"354 815 OFFCURVE",
"358 799 QCURVE",
"363 768 OFFCURVE",
"363 727 QCURVE SMOOTH",
"363 646 OFFCURVE",
"307 489 OFFCURVE",
"217 359 OFFCURVE",
"125 249 OFFCURVE",
"30 135 OFFCURVE",
"9 96 QCURVE",
"77 40 LINE",
"179 61 OFFCURVE",
"298 61 QCURVE SMOOTH",
"447 61 OFFCURVE",
"655 24 QCURVE",
"798 282 LINE",
"266 270 LINE",
"306 330 LINE SMOOTH",
"346 391 OFFCURVE",
"459 580 OFFCURVE",
"492 648 QCURVE SMOOTH",
"525 711 OFFCURVE",
"548 829 OFFCURVE",
"548 910 QCURVE SMOOTH",
"548 957 OFFCURVE",
"537 1004 QCURVE",
"537 1005 OFFCURVE",
"536 1010 OFFCURVE",
"536 1011 QCURVE",
"525 1059 OFFCURVE",
"482 1154 OFFCURVE",
"413 1249 OFFCURVE",
"328 1321 OFFCURVE",
"210 1368 OFFCURVE",
"145 1370 QCURVE",
"49 1367 OFFCURVE",
"-156 1216 OFFCURVE",
"-179 1156 QCURVE"
);
}
);
width = 932;
}
);
note = two;
unicode = 0032;
},
{
glyphname = three;
lastChange = "2018-07-29 15:04:19 +0000";
layers = (
{
layerId = "3C317020-980B-44E8-A79B-F384FFC5B400";
paths = (
{
closed = 1;
nodes = (
"-95 1183 OFFCURVE",
"-29 1183 QCURVE SMOOTH",
"56 1183 OFFCURVE",
"208 1056 OFFCURVE",
"228 972 QCURVE",
"228 970 OFFCURVE",
"231 962 OFFCURVE",
"232 960 QCURVE",
"232 955 OFFCURVE",
"232 944 OFFCURVE",
"232 931 OFFCURVE",
"232 928 QCURVE SMOOTH",
"232 876 OFFCURVE",
"197 794 OFFCURVE",
"140 742 OFFCURVE",
"84 707 OFFCURVE",
"23 674 OFFCURVE",
"10 662 QCURVE",
"76 659 OFFCURVE",
"181 640 OFFCURVE",
"290 597 OFFCURVE",
"370 529 OFFCURVE",
"434 418 OFFCURVE",
"451 345 QCURVE SMOOTH",
"455 329 OFFCURVE",
"457 320 QCURVE SMOOTH",
"461 300 OFFCURVE",
"461 276 QCURVE SMOOTH",
"461 115 OFFCURVE",
"232 -54 QCURVE",
"246 -71 LINE",
"276 -48 OFFCURVE",
"412 36 OFFCURVE",
"514 109 OFFCURVE",
"623 209 OFFCURVE",
"684 335 OFFCURVE",
"684 407 QCURVE SMOOTH",
"684 445 OFFCURVE",
"675 487 QCURVE SMOOTH",
"644 620 OFFCURVE",
"433 794 OFFCURVE",
"273 834 QCURVE",
"292 858 OFFCURVE",
"399 956 OFFCURVE",
"450 1036 OFFCURVE",
"450 1088 QCURVE SMOOTH",
"450 1111 OFFCURVE",
"444 1138 QCURVE SMOOTH",
"422 1233 OFFCURVE",
"240 1361 OFFCURVE",
"138 1361 QCURVE SMOOTH",
"99 1361 OFFCURVE",
"17 1326 OFFCURVE",
"-52 1272 OFFCURVE",
"-108 1218 OFFCURVE",
"-157 1167 OFFCURVE",
"-168 1160 QCURVE",
"-149 1138 LINE"
);
}
);
width = 887;
}
);
note = three;
unicode = 0033;
},
{
glyphname = four;
lastChange = "2018-07-29 15:04:19 +0000";
layers = (
{
layerId = "3C317020-980B-44E8-A79B-F384FFC5B400";
paths = (
{
closed = 1;
nodes = (
"292 1332 OFFCURVE",
"188 1168 OFFCURVE",
"42 911 OFFCURVE",
"-54 651 OFFCURVE",
"-54 561 QCURVE SMOOTH",
"-54 532 OFFCURVE",
"-48 506 QCURVE SMOOTH",
"-40 473 OFFCURVE",
"0 430 OFFCURVE",
"65 409 OFFCURVE",
"129 402 OFFCURVE",
"172 402 QCURVE SMOOTH",
"514 402 LINE",
"605 10 LINE",
"788 164 LINE",
"729 422 LINE",
"845 442 LINE",
"950 657 LINE",
"699 622 LINE",
"589 1099 LINE",
"407 945 LINE",
"484 610 LINE",
"431 610 OFFCURVE",
"378 611 OFFCURVE",
"294 618 OFFCURVE",
"249 634 OFFCURVE",
"197 662 OFFCURVE",
"168 707 OFFCURVE",
"161 738 QCURVE SMOOTH",
"153 775 OFFCURVE",
"153 809 QCURVE SMOOTH",
"153 872 OFFCURVE",
"200 1034 OFFCURVE",
"250 1147 OFFCURVE",
"341 1336 OFFCURVE",
"356 1370 QCURVE",
"333 1390 LINE"
);
}
);
width = 1146;
}
);
note = four;
unicode = 0034;
},
{
glyphname = five;
lastChange = "2018-07-29 15:04:19 +0000";
layers = (
{
layerId = "3C317020-980B-44E8-A79B-F384FFC5B400";
paths = (
{
closed = 1;
nodes = (
"-121 790 LINE",
"-94 777 OFFCURVE",
"7 729 OFFCURVE",
"64 702 OFFCURVE",
"153 652 OFFCURVE",
"207 610 OFFCURVE",
"276 544 OFFCURVE",
"320 474 OFFCURVE",
"362 378 OFFCURVE",
"375 323 QCURVE SMOOTH",
"379 308 OFFCURVE",
"379 289 QCURVE SMOOTH",
"379 251 OFFCURVE",
"345 169 OFFCURVE",
"282 89 OFFCURVE",
"231 34 OFFCURVE",
"158 -36 OFFCURVE",
"151 -43 QCURVE",
"185 -80 LINE",
"231 -49 OFFCURVE",
"289 -8 OFFCURVE",
"379 63 OFFCURVE",
"437 120 OFFCURVE",
"505 201 OFFCURVE",
"544 276 OFFCURVE",
"571 369 OFFCURVE",
"571 416 QCURVE SMOOTH",
"571 459 OFFCURVE",
"561 502 QCURVE SMOOTH",
"542 586 OFFCURVE",
"420 756 OFFCURVE",
"267 882 OFFCURVE",
"109 970 OFFCURVE",
"49 981 QCURVE",
"46 1123 LINE",
"200 1073 OFFCURVE",
"303 1073 QCURVE SMOOTH",
"361 1073 OFFCURVE",
"447 1104 OFFCURVE",
"510 1169 OFFCURVE",
"551 1243 OFFCURVE",
"574 1300 QCURVE",
"564 1342 LINE",
"461 1322 OFFCURVE",
"359 1322 QCURVE SMOOTH",
"226 1322 OFFCURVE",
"86 1356 QCURVE"
);
}
);
width = 873;
}
);
note = five;
unicode = 0035;
},
{
glyphname = six;
lastChange = "2018-07-29 15:04:19 +0000";
layers = (
{
layerId = "3C317020-980B-44E8-A79B-F384FFC5B400";
paths = (
{
closed = 1;
nodes = (
"357 1356 OFFCURVE",
"302 1298 OFFCURVE",
"254 1246 OFFCURVE",
"177 1149 OFFCURVE",
"115 1059 OFFCURVE",
"45 934 OFFCURVE",
"-1 814 OFFCURVE",
"-32 670 OFFCURVE",
"-32 601 QCURVE SMOOTH",
"-32 530 OFFCURVE",
"-16 462 QCURVE SMOOTH",
"27 278 OFFCURVE",
"324 7 OFFCURVE",
"460 7 QCURVE SMOOTH",
"508 7 OFFCURVE",
"644 88 OFFCURVE",
"770 214 OFFCURVE",
"859 389 OFFCURVE",
"859 473 QCURVE SMOOTH",
"859 507 OFFCURVE",
"852 538 QCURVE SMOOTH",
"841 585 OFFCURVE",
"752 732 OFFCURVE",
"610 861 OFFCURVE",
"547 861 QCURVE SMOOTH",
"521 861 OFFCURVE",
"476 852 OFFCURVE",
"434 825 OFFCURVE",
"411 810 OFFCURVE",
"371 761 OFFCURVE",
"362 750 OFFCURVE",
"340 721 QCURVE",
"440 692 OFFCURVE",
"661 438 OFFCURVE",
"693 301 QCURVE",
"697 279 OFFCURVE",
"697 269 QCURVE SMOOTH",
"697 225 OFFCURVE",
"645 169 OFFCURVE",
"601 169 QCURVE SMOOTH",
"533 169 OFFCURVE",
"383 277 OFFCURVE",
"266 436 OFFCURVE",
"179 607 OFFCURVE",
"163 675 QCURVE SMOOTH",
"145 754 OFFCURVE",
"145 824 QCURVE SMOOTH",
"145 892 OFFCURVE",
"174 1017 OFFCURVE",
"232 1129 OFFCURVE",
"281 1207 OFFCURVE",
"360 1316 OFFCURVE",
"376 1341 QCURVE",
"359 1358 LINE"
);
}
);
width = 1039;
}
);
note = six;
unicode = 0036;
},
{
glyphname = seven;
lastChange = "2018-07-29 15:04:19 +0000";
layers = (
{
layerId = "3C317020-980B-44E8-A79B-F384FFC5B400";
paths = (
{
closed = 1;
nodes = (
"-207 1131 LINE",
"-100 1032 OFFCURVE",
"251 1032 QCURVE SMOOTH",
"394 1032 LINE",
"193 32 LINE",
"409 178 LINE",
"383 291 OFFCURVE",
"383 417 QCURVE SMOOTH",
"383 464 OFFCURVE",
"391 567 OFFCURVE",
"401 652 OFFCURVE",
"424 764 OFFCURVE",
"438 834 OFFCURVE",
"472 951 OFFCURVE",
"487 1004 OFFCURVE",
"527 1124 OFFCURVE",
"538 1156 OFFCURVE",
"580 1275 OFFCURVE",
"582 1281 QCURVE",
"547 1310 LINE",
"348 1284 OFFCURVE",
"274 1284 QCURVE SMOOTH",
"86 1284 OFFCURVE",
"-15 1361 QCURVE"
);
}
);
width = 861;
}
);
note = seven;
unicode = 0037;
},
{
glyphname = eight;
lastChange = "2018-07-29 15:04:19 +0000";
layers = (
{
layerId = "3C317020-980B-44E8-A79B-F384FFC5B400";
paths = (
{
closed = 1;
nodes = (
"351 637 OFFCURVE",
"488 553 OFFCURVE",
"603 415 OFFCURVE",
"620 341 QCURVE SMOOTH",
"623 328 OFFCURVE",
"623 313 QCURVE SMOOTH",
"623 252 OFFCURVE",
"520 157 OFFCURVE",
"460 157 QCURVE SMOOTH",
"375 157 OFFCURVE",
"246 306 OFFCURVE",
"223 405 QCURVE SMOOTH",
"216 433 OFFCURVE",
"216 462 QCURVE SMOOTH",
"216 546 OFFCURVE",
"288 649 QCURVE"
);
},
{
closed = 1;
nodes = (
"245 1186 OFFCURVE",
"271 1186 QCURVE SMOOTH",
"324 1186 OFFCURVE",
"407 1091 OFFCURVE",
"423 1021 QCURVE SMOOTH",
"431 986 OFFCURVE",
"431 953 QCURVE SMOOTH",
"431 888 OFFCURVE",
"403 836 QCURVE",
"302 848 OFFCURVE",
"110 996 OFFCURVE",
"89 1087 QCURVE SMOOTH",
"84 1110 OFFCURVE",
"84 1128 QCURVE SMOOTH",
"84 1206 OFFCURVE",
"153 1269 QCURVE",
"138 1295 LINE",
"117 1286 OFFCURVE",
"39 1220 OFFCURVE",
"-43 1130 OFFCURVE",
"-103 1016 OFFCURVE",
"-103 968 QCURVE SMOOTH",
"-103 953 OFFCURVE",
"-100 938 QCURVE",
"-92 905 OFFCURVE",
"-56 846 OFFCURVE",
"-1 798 OFFCURVE",
"52 760 OFFCURVE",
"126 723 OFFCURVE",
"173 702 OFFCURVE",
"242 675 OFFCURVE",
"251 671 QCURVE",
"233 639 OFFCURVE",
"167 565 OFFCURVE",
"108 504 OFFCURVE",
"52 432 OFFCURVE",
"18 342 OFFCURVE",
"18 292 QCURVE SMOOTH",
"18 250 OFFCURVE",
"27 214 QCURVE SMOOTH",
"48 122 OFFCURVE",
"223 4 OFFCURVE",
"330 4 QCURVE SMOOTH",
"376 4 OFFCURVE",
"541 111 OFFCURVE",
"698 262 OFFCURVE",
"815 443 OFFCURVE",
"815 508 QCURVE SMOOTH",
"815 522 OFFCURVE",
"812 535 QCURVE SMOOTH",
"804 570 OFFCURVE",
"769 632 OFFCURVE",
"712 681 OFFCURVE",
"660 719 OFFCURVE",
"579 756 OFFCURVE",
"530 776 OFFCURVE",
"443 808 OFFCURVE",
"427 814 QCURVE",
"447 836 LINE SMOOTH",
"467 857 OFFCURVE",
"525 933 OFFCURVE",
"583 1021 OFFCURVE",
"623 1125 OFFCURVE",
"623 1168 QCURVE SMOOTH",
"623 1188 OFFCURVE",
"619 1203 QCURVE",
"605 1267 OFFCURVE",
"515 1357 OFFCURVE",
"452 1357 QCURVE SMOOTH",
"384 1357 OFFCURVE",
"235 1248 OFFCURVE",
"217 1172 QCURVE"
);
}
);
width = 1047;
}
);
note = eight;
unicode = 0038;
},
{
glyphname = nine;
lastChange = "2018-07-29 15:04:19 +0000";
layers = (
{
layerId = "3C317020-980B-44E8-A79B-F384FFC5B400";
paths = (
{
closed = 1;
nodes = (
"407 662 OFFCURVE",
"371 662 QCURVE SMOOTH",
"308 662 OFFCURVE",
"170 799 OFFCURVE",
"80 967 OFFCURVE",
"65 1032 QCURVE SMOOTH",
"58 1060 OFFCURVE",
"58 1093 QCURVE SMOOTH",
"58 1144 OFFCURVE",
"102 1210 OFFCURVE",
"148 1210 QCURVE SMOOTH",
"240 1210 OFFCURVE",
"431 1033 OFFCURVE",
"566 779 OFFCURVE",
"596 650 QCURVE SMOOTH",
"606 609 OFFCURVE",
"606 562 QCURVE SMOOTH",
"606 489 OFFCURVE",
"558 337 OFFCURVE",
"471 196 OFFCURVE",
"404 106 OFFCURVE",
"359 53 QCURVE",
"391 12 LINE",
"420 34 OFFCURVE",
"506 121 OFFCURVE",
"623 271 OFFCURVE",
"720 437 OFFCURVE",
"788 652 OFFCURVE",
"788 753 QCURVE SMOOTH",
"788 821 OFFCURVE",
"774 881 QCURVE SMOOTH",
"748 994 OFFCURVE",
"596 1218 OFFCURVE",
"383 1368 OFFCURVE",
"284 1368 QCURVE SMOOTH",
"214 1368 OFFCURVE",
"28 1229 OFFCURVE",
"-111 1008 OFFCURVE",
"-111 907 QCURVE SMOOTH",
"-111 878 OFFCURVE",
"-105 851 QCURVE SMOOTH",
"-89 781 OFFCURVE",
"-4 633 OFFCURVE",
"133 518 OFFCURVE",
"204 518 QCURVE SMOOTH",
"224 518 OFFCURVE",
"263 526 OFFCURVE",
"298 543 OFFCURVE",
"327 559 OFFCURVE",
"357 587 OFFCURVE",
"377 605 OFFCURVE",
"404 639 OFFCURVE",
"415 653 OFFCURVE",
"437 686 OFFCURVE",
"439 688 QCURVE"
);
}
);
width = 1093;
}
);
note = nine;
unicode = 0039;
},
{
glyphname = colon;
lastChange = "2018-07-29 15:04:19 +0000";
layers = (
{
layerId = "3C317020-980B-44E8-A79B-F384FFC5B400";
paths = (
{
closed = 1;
nodes = (
"41 186 LINE",
"15 159 OFFCURVE",
"15 134 QCURVE SMOOTH",
"15 130 OFFCURVE",
"17 122 QCURVE SMOOTH",
"22 100 OFFCURVE",
"57 56 QCURVE SMOOTH",
"103 0 OFFCURVE",
"154 0 QCURVE SMOOTH",
"162 0 OFFCURVE",
"170 4 QCURVE",
"301 107 LINE",
"188 195 OFFCURVE",
"142 275 QCURVE"
);
},
{
closed = 1;
nodes = (
"-114 859 LINE",
"-139 834 OFFCURVE",
"-139 806 QCURVE SMOOTH",
"-139 795 LINE",
"-133 771 OFFCURVE",
"-98 729 QCURVE SMOOTH",
"-77 702 OFFCURVE",
"-23 673 OFFCURVE",
"0 673 QCURVE SMOOTH",
"5 673 OFFCURVE",
"15 677 QCURVE",
"146 780 LINE",
"31 869 OFFCURVE",
"-14 948 QCURVE"
);
}
);
width = 437;
}
);
note = colon;
unicode = 003A;
},
{
glyphname = semicolon;
lastChange = "2018-07-29 15:04:19 +0000";
layers = (
{
layerId = "3C317020-980B-44E8-A79B-F384FFC5B400";
paths = (
{
closed = 1;
nodes = (
"-121 860 LINE",
"-146 834 OFFCURVE",
"-146 807 QCURVE SMOOTH",
"-146 800 OFFCURVE",
"-145 796 QCURVE SMOOTH",
"-140 774 OFFCURVE",
"-105 730 QCURVE SMOOTH",
"-59 674 OFFCURVE",
"-8 674 QCURVE SMOOTH",
"0 674 OFFCURVE",
"8 678 QCURVE",
"140 781 LINE",
"27 868 OFFCURVE",
"-20 949 QCURVE"
);
},
{
closed = 1;
nodes = (
"278 4 LINE",
"325 49 OFFCURVE",
"325 98 QCURVE SMOOTH",
"325 104 OFFCURVE",
"323 114 QCURVE",
"309 172 OFFCURVE",
"227 249 OFFCURVE",
"161 284 QCURVE",
"96 250 OFFCURVE",
"33 182 QCURVE",
"160 94 OFFCURVE",
"176 20 QCURVE SMOOTH",
"179 8 OFFCURVE",
"179 -4 QCURVE SMOOTH",
"179 -60 OFFCURVE",
"122 -92 QCURVE",
"154 -124 LINE"
);
}
);
width = 475;
}
);
note = semicolon;
unicode = 003B;
},
{
glyphname = less;
lastChange = "2018-07-29 15:04:19 +0000";
layers = (
{
layerId = "3C317020-980B-44E8-A79B-F384FFC5B400";
paths = (
{
closed = 1;
nodes = (
"908 162 LINE",
"4 518 LINE",
"743 874 LINE",
"711 1015 LINE",
"-177 584 LINE",
"-146 452 LINE",
"940 22 LINE"
);
}
);
width = 1079;
}
);
note = less;
unicode = 003C;
},
{
glyphname = equal;
lastChange = "2018-07-29 15:04:19 +0000";
layers = (
{
layerId = "3C317020-980B-44E8-A79B-F384FFC5B400";
paths = (
{
closed = 1;
nodes = (
"853 811 LINE",
"-134 811 LINE",
"-100 664 LINE",
"887 664 LINE"
);
},
{
closed = 1;
nodes = (
"954 372 LINE",
"-33 372 LINE",
"0 226 LINE",
"988 226 LINE"
);
}
);
width = 1149;
}
);
note = equal;
unicode = 003D;
},
{
glyphname = greater;
lastChange = "2018-07-29 15:04:19 +0000";
layers = (
{
layerId = "3C317020-980B-44E8-A79B-F384FFC5B400";
paths = (
{
closed = 1;
nodes = (
"890 584 LINE",
"-196 1015 LINE",
"-164 874 LINE",
"739 518 LINE",
"0 162 LINE",
"33 22 LINE",
"921 452 LINE"
);
}
);
width = 1134;
}
);
note = greater;
unicode = 003E;
},
{
glyphname = question;
lastChange = "2018-07-29 15:04:19 +0000";
layers = (
{
layerId = "3C317020-980B-44E8-A79B-F384FFC5B400";
paths = (
{
closed = 1;
nodes = (
"-300 1192 LINE",
"-209 1294 OFFCURVE",
"-84 1294 QCURVE SMOOTH",
"56 1294 OFFCURVE",
"308 1045 OFFCURVE",
"352 854 QCURVE SMOOTH",
"358 826 OFFCURVE",
"358 802 QCURVE SMOOTH",
"358 764 OFFCURVE",
"327 696 OFFCURVE",
"279 640 OFFCURVE",
"228 585 OFFCURVE",
"178 511 OFFCURVE",
"166 470 QCURVE",
"213 434 LINE",
"237 502 OFFCURVE",
"329 621 OFFCURVE",
"423 705 OFFCURVE",
"511 789 OFFCURVE",
"567 896 OFFCURVE",
"567 960 QCURVE SMOOTH",
"567 999 OFFCURVE",
"557 1040 QCURVE SMOOTH",
"529 1162 OFFCURVE",
"355 1349 OFFCURVE",
"125 1444 OFFCURVE",
"4 1444 QCURVE SMOOTH",
"-60 1444 OFFCURVE",
"-166 1408 OFFCURVE",
"-248 1338 OFFCURVE",
"-306 1268 OFFCURVE",
"-339 1216 QCURVE"
);
},
{
closed = 1;
nodes = (
"128 186 LINE",
"102 159 OFFCURVE",
"102 134 QCURVE SMOOTH",
"102 130 OFFCURVE",
"104 122 QCURVE SMOOTH",
"109 100 OFFCURVE",
"144 56 QCURVE SMOOTH",
"190 0 OFFCURVE",
"241 0 QCURVE SMOOTH",
"249 0 OFFCURVE",
"257 4 QCURVE",
"388 107 LINE",
"275 195 OFFCURVE",
"229 275 QCURVE"
);
}
);
width = 912;
}
);
note = question;
unicode = 003F;
},
{
glyphname = at;
lastChange = "2018-07-29 15:04:19 +0000";
layers = (
{
layerId = "3C317020-980B-44E8-A79B-F384FFC5B400";
paths = (
{
closed = 1;
nodes = (
"-64 418 OFFCURVE",
"205 210 QCURVE SMOOTH",
"473 0 OFFCURVE",
"808 0 QCURVE SMOOTH",
"1007 0 OFFCURVE",
"1271 148 OFFCURVE",
"1337 280 QCURVE",
"1228 280 LINE",
"1098 110 OFFCURVE",
"795 110 QCURVE SMOOTH",
"495 110 OFFCURVE",
"65 451 OFFCURVE",
"0 731 QCURVE SMOOTH",
"-20 822 OFFCURVE",
"-20 900 QCURVE SMOOTH",
"-20 1107 OFFCURVE",
"237 1360 OFFCURVE",
"482 1360 QCURVE SMOOTH",
"752 1360 OFFCURVE",
"1142 1080 OFFCURVE",
"1200 831 QCURVE SMOOTH",
"1216 763 OFFCURVE",
"1216 702 QCURVE SMOOTH",
"1216 579 OFFCURVE",
"1100 434 OFFCURVE",
"1019 434 QCURVE SMOOTH",
"986 434 OFFCURVE",
"928 471 OFFCURVE",
"918 515 QCURVE",
"921 1093 LINE",
"811 1093 LINE",
"803 943 LINE",
"761 996 LINE SMOOTH",
"663 1120 OFFCURVE",
"520 1120 QCURVE SMOOTH",
"382 1120 OFFCURVE",
"213 919 OFFCURVE",
"213 762 QCURVE SMOOTH",
"213 700 OFFCURVE",
"228 631 QCURVE SMOOTH",
"259 497 OFFCURVE",
"470 312 OFFCURVE",
"587 312 QCURVE SMOOTH",
"641 312 OFFCURVE",
"734 375 OFFCURVE",
"763 418 QCURVE SMOOTH",
"796 465 LINE",
"811 401 LINE SMOOTH",
"832 312 OFFCURVE",
"920 312 QCURVE SMOOTH",
"1091 312 OFFCURVE",
"1227 461 QCURVE SMOOTH",
"1317 560 OFFCURVE",
"1317 721 QCURVE SMOOTH",
"1317 803 OFFCURVE",
"1295 895 QCURVE SMOOTH",
"1263 1034 OFFCURVE",
"1099 1257 OFFCURVE",
"872 1396 OFFCURVE",
"603 1470 OFFCURVE",
"459 1470 QCURVE SMOOTH",
"188 1470 OFFCURVE",
"-157 1148 OFFCURVE",
"-157 897 QCURVE SMOOTH",
"-157 817 OFFCURVE",
"-138 735 QCURVE SMOOTH"
);
},
{
closed = 1;
nodes = (
"359 698 OFFCURVE",
"359 743 QCURVE SMOOTH",
"359 848 OFFCURVE",
"471 986 OFFCURVE",
"568 986 QCURVE SMOOTH",
"645 986 OFFCURVE",
"769 872 OFFCURVE",
"789 784 QCURVE SMOOTH",
"799 737 OFFCURVE",
"799 697 QCURVE SMOOTH",
"799 594 OFFCURVE",
"698 446 OFFCURVE",
"603 446 QCURVE SMOOTH",
"517 446 OFFCURVE",
"390 568 OFFCURVE",
"369 657 QCURVE SMOOTH"
);
}
);
width = 1595;
}
);
note = at;
unicode = 0040;
},
{
glyphname = A;
lastChange = "2018-07-29 15:04:19 +0000";
layers = (
{
layerId = "3C317020-980B-44E8-A79B-F384FFC5B400";
paths = (
{
closed = 1;
nodes = (
"387 484 LINE SMOOTH",
"264 484 OFFCURVE",
"170 496 QCURVE",
"266 1140 LINE",
"668 500 LINE",
"582 484 OFFCURVE",
"442 484 QCURVE SMOOTH"
);
},
{
closed = 1;
nodes = (
"161 1300 LINE",
"93 561 OFFCURVE",
"-64 12 QCURVE",
"161 132 LINE",
"151 178 OFFCURVE",
"151 237 QCURVE SMOOTH",
"151 291 OFFCURVE",
"158 370 QCURVE",
"750 370 LINE",
"752 367 OFFCURVE",
"811 290 OFFCURVE",
"850 240 OFFCURVE",
"920 152 OFFCURVE",
"974 93 OFFCURVE",
"1033 31 OFFCURVE",
"1077 0 OFFCURVE",
"1091 0 QCURVE SMOOTH",
"1196 0 OFFCURVE",
"1300 150 QCURVE",
"1280 180 LINE",
"1274 157 OFFCURVE",
"1256 157 QCURVE SMOOTH",
"1194 157 OFFCURVE",
"842 610 OFFCURVE",
"482 1197 OFFCURVE",
"393 1396 QCURVE",
"349 1420 LINE"
);
}
);
width = 1443;
}
);
note = A;
unicode = 0041;
},
{
glyphname = B;
lastChange = "2018-07-29 15:04:19 +0000";
layers = (
{
layerId = "3C317020-980B-44E8-A79B-F384FFC5B400";
paths = (
{
closed = 1;
nodes = (
"182 1254 OFFCURVE",
"354 1214 OFFCURVE",
"463 1153 OFFCURVE",
"540 1080 OFFCURVE",
"572 1016 OFFCURVE",
"572 992 QCURVE SMOOTH",
"572 984 OFFCURVE",
"571 981 QCURVE",
"575 959 OFFCURVE",
"575 950 QCURVE SMOOTH",
"575 905 OFFCURVE",
"513 822 OFFCURVE",
"426 770 OFFCURVE",
"346 738 OFFCURVE",
"321 735 QCURVE",
"758 637 OFFCURVE",
"824 351 QCURVE SMOOTH",
"827 339 OFFCURVE",
"827 327 QCURVE SMOOTH",
"827 268 OFFCURVE",
"720 168 OFFCURVE",
"671 168 QCURVE SMOOTH",
"572 168 OFFCURVE",
"418 202 OFFCURVE",
"314 246 QCURVE",
"81 1254 LINE"
);
},
{
closed = 1;
nodes = (
"989 569 OFFCURVE",
"935 661 OFFCURVE",
"870 722 OFFCURVE",
"771 766 OFFCURVE",
"675 792 OFFCURVE",
"605 804 QCURVE",
"615 815 OFFCURVE",
"687 886 OFFCURVE",
"726 930 OFFCURVE",
"763 1009 OFFCURVE",
"763 1048 QCURVE SMOOTH",
"763 1071 OFFCURVE",
"757 1095 QCURVE SMOOTH",
"682 1420 OFFCURVE",
"34 1420 QCURVE SMOOTH",
"-7 1420 OFFCURVE",
"-115 1404 OFFCURVE",
"-181 1389 OFFCURVE",
"-189 1386 QCURVE",
"-306 1203 LINE",
"-296 1205 OFFCURVE",
"-230 1219 OFFCURVE",
"-200 1224 OFFCURVE",
"-149 1230 OFFCURVE",
"-126 1230 QCURVE",
"67 684 OFFCURVE",
"126 72 QCURVE",
"340 0 OFFCURVE",
"521 0 QCURVE SMOOTH",
"579 0 OFFCURVE",
"747 88 OFFCURVE",
"900 219 OFFCURVE",
"1008 390 OFFCURVE",
"1008 465 QCURVE SMOOTH",
"1008 484 OFFCURVE",
"1003 507 QCURVE SMOOTH"
);
}
);
width = 1229;
}
);
note = B;
unicode = 0042;
},
{
glyphname = C;
lastChange = "2018-07-29 15:04:19 +0000";
layers = (
{
layerId = "3C317020-980B-44E8-A79B-F384FFC5B400";
paths = (
{
closed = 1;
nodes = (
"812 198 OFFCURVE",
"528 198 OFFCURVE",
"270 396 OFFCURVE",
"82 737 OFFCURVE",
"32 954 QCURVE SMOOTH",
"24 986 OFFCURVE",
"24 1029 QCURVE SMOOTH",
"24 1129 OFFCURVE",
"124 1280 OFFCURVE",
"216 1280 QCURVE SMOOTH",
"282 1280 OFFCURVE",
"399 1246 OFFCURVE",
"462 1210 OFFCURVE",
"517 1174 QCURVE",
"528 1183 OFFCURVE",
"630 1262 OFFCURVE",
"685 1317 OFFCURVE",
"685 1334 QCURVE SMOOTH",
"685 1338 LINE",
"684 1341 OFFCURVE",
"672 1357 OFFCURVE",
"641 1382 OFFCURVE",
"599 1404 OFFCURVE",
"528 1420 OFFCURVE",
"486 1420 QCURVE SMOOTH",
"439 1420 LINE SMOOTH",
"280 1420 OFFCURVE",
"12 1255 OFFCURVE",
"-140 979 OFFCURVE",
"-140 818 QCURVE SMOOTH",
"-140 746 OFFCURVE",
"-124 676 QCURVE SMOOTH",
"-94 547 OFFCURVE",
"48 303 OFFCURVE",
"241 115 OFFCURVE",
"489 0 OFFCURVE",
"616 0 QCURVE SMOOTH",
"684 0 OFFCURVE",
"805 49 OFFCURVE",
"892 129 OFFCURVE",
"952 214 OFFCURVE",
"971 258 QCURVE",
"952 300 LINE"
);
}
);
width = 1128;
}
);
note = C;
unicode = 0043;
},
{
glyphname = D;
lastChange = "2018-07-29 15:04:19 +0000";
layers = (
{
layerId = "3C317020-980B-44E8-A79B-F384FFC5B400";
paths = (
{
closed = 1;
nodes = (
"768 1240 OFFCURVE",
"928 552 QCURVE SMOOTH",
"940 503 OFFCURVE",
"940 453 QCURVE SMOOTH",
"940 339 OFFCURVE",
"815 188 OFFCURVE",
"702 188 QCURVE SMOOTH",
"584 188 OFFCURVE",
"408 226 OFFCURVE",
"320 280 QCURVE",
"99 1240 LINE"
);
},
{
closed = 1;
nodes = (
"-113 1248 LINE",
"158 72 LINE",
"213 62 OFFCURVE",
"353 22 OFFCURVE",
"467 0 OFFCURVE",
"533 0 QCURVE SMOOTH",
"594 0 OFFCURVE",
"747 75 OFFCURVE",
"893 208 OFFCURVE",
"1017 371 OFFCURVE",
"1093 566 OFFCURVE",
"1093 656 QCURVE SMOOTH",
"1093 700 OFFCURVE",
"1084 742 QCURVE SMOOTH",
"1052 880 OFFCURVE",
"907 1109 OFFCURVE",
"715 1264 OFFCURVE",
"478 1371 OFFCURVE",
"231 1420 OFFCURVE",
"103 1420 QCURVE SMOOTH",
"48 1420 OFFCURVE",
"-124 1412 OFFCURVE",
"-179 1412 QCURVE",
"-335 1248 LINE"
);
}
);
width = 1354;
}
);
note = D;
unicode = 0044;
},
{
glyphname = E;
lastChange = "2018-07-29 15:04:19 +0000";
layers = (
{
layerId = "3C317020-980B-44E8-A79B-F384FFC5B400";
paths = (
{
closed = 1;
nodes = (
"-255 1260 LINE",
"-57 1260 LINE",
"41 838 LINE",
"3 757 OFFCURVE",
"-116 650 QCURVE",
"76 650 LINE",
"226 0 LINE",
"327 12 OFFCURVE",
"465 12 QCURVE SMOOTH",
"541 12 OFFCURVE",
"848 0 OFFCURVE",
"926 0 QCURVE",
"1060 182 LINE",
"743 182 LINE SMOOTH",
"522 182 OFFCURVE",
"378 166 QCURVE",
"267 644 LINE",
"335 644 OFFCURVE",
"438 647 OFFCURVE",
"519 657 OFFCURVE",
"572 666 OFFCURVE",
"616 689 OFFCURVE",
"639 704 OFFCURVE",
"663 742 OFFCURVE",
"674 766 OFFCURVE",
"697 820 OFFCURVE",
"705 838 QCURVE",
"231 838 LINE",
"137 1242 LINE",
"293 1226 OFFCURVE",
"371 1226 QCURVE SMOOTH",
"441 1226 OFFCURVE",
"497 1234 QCURVE",
"516 1234 OFFCURVE",
"552 1245 OFFCURVE",
"579 1259 OFFCURVE",
"610 1289 OFFCURVE",
"628 1309 OFFCURVE",
"655 1351 OFFCURVE",
"666 1369 OFFCURVE",
"691 1415 OFFCURVE",
"694 1420 QCURVE",
"611 1420 OFFCURVE",
"284 1404 OFFCURVE",
"193 1404 QCURVE SMOOTH",
"43 1404 OFFCURVE",
"-102 1420 QCURVE"
);
}
);
width = 1210;
}
);
note = E;
unicode = 0045;
},
{
glyphname = F;
lastChange = "2018-07-29 15:04:19 +0000";
layers = (
{
layerId = "3C317020-980B-44E8-A79B-F384FFC5B400";
paths = (
{
closed = 1;
nodes = (
"-265 1242 LINE",
"-57 1242 LINE",
"40 822 LINE",
"-110 658 LINE",
"83 656 LINE",
"234 -16 LINE",
"409 134 LINE",
"282 634 LINE",
"488 634 LINE SMOOTH",
"526 634 OFFCURVE",
"603 682 OFFCURVE",
"660 754 OFFCURVE",
"700 821 OFFCURVE",
"710 848 QCURVE",
"405 824 LINE",
"351 824 OFFCURVE",
"241 826 QCURVE",
"230 873 OFFCURVE",
"191 1017 OFFCURVE",
"167 1133 OFFCURVE",
"157 1216 QCURVE",
"445 1226 LINE SMOOTH",
"494 1227 OFFCURVE",
"591 1279 OFFCURVE",
"659 1350 OFFCURVE",
"702 1413 OFFCURVE",
"709 1432 QCURVE",
"630 1430 OFFCURVE",
"229 1412 OFFCURVE",
"118 1412 QCURVE SMOOTH",
"-5 1412 OFFCURVE",
"-106 1420 QCURVE"
);
}
);
width = 1174;
}
);
note = F;
unicode = 0046;
},
{
glyphname = G;
lastChange = "2018-07-29 15:04:19 +0000";
layers = (
{
layerId = "3C317020-980B-44E8-A79B-F384FFC5B400";
paths = (
{
closed = 1;
nodes = (
"622 132 OFFCURVE",
"328 350 OFFCURVE",
"103 710 OFFCURVE",
"55 915 QCURVE",
"41 996 OFFCURVE",
"41 1055 QCURVE SMOOTH",
"41 1175 OFFCURVE",
"147 1302 OFFCURVE",
"259 1318 QCURVE SMOOTH",
"283 1322 OFFCURVE",
"311 1322 QCURVE SMOOTH",
"387 1322 OFFCURVE",
"503 1254 OFFCURVE",
"568 1186 QCURVE",
"598 1186 OFFCURVE",
"740 1305 OFFCURVE",
"740 1337 QCURVE SMOOTH",
"740 1338 OFFCURVE",
"740 1340 QCURVE",
"739 1342 LINE",
"730 1381 OFFCURVE",
"581 1420 OFFCURVE",
"496 1420 QCURVE SMOOTH",
"384 1420 OFFCURVE",
"193 1368 OFFCURVE",
"57 1277 OFFCURVE",
"-46 1158 OFFCURVE",
"-107 1017 OFFCURVE",
"-137 873 OFFCURVE",
"-137 799 QCURVE SMOOTH",
"-137 723 OFFCURVE",
"-122 654 QCURVE SMOOTH",
"-94 534 OFFCURVE",
"65 290 OFFCURVE",
"262 112 OFFCURVE",
"476 0 OFFCURVE",
"559 0 QCURVE SMOOTH",
"563 0 LINE SMOOTH",
"675 0 OFFCURVE",
"859 56 OFFCURVE",
"980 149 OFFCURVE",
"1063 274 OFFCURVE",
"1099 406 OFFCURVE",
"1099 476 QCURVE SMOOTH",
"1099 615 OFFCURVE",
"966 816 OFFCURVE",
"861 816 QCURVE SMOOTH",
"856 816 LINE SMOOTH",
"817 816 OFFCURVE",
"755 795 OFFCURVE",
"744 777 QCURVE",
"673 710 OFFCURVE",
"588 606 QCURVE",
"627 582 LINE",
"673 662 OFFCURVE",
"743 663 QCURVE SMOOTH",
"791 663 OFFCURVE",
"917 483 OFFCURVE",
"946 357 QCURVE",
"951 330 OFFCURVE",
"951 296 QCURVE SMOOTH",
"951 134 OFFCURVE",
"785 132 QCURVE SMOOTH",
"764 132 LINE SMOOTH"
);
}
);
width = 1331;
}
);
note = G;
unicode = 0047;
},
{
glyphname = H;
lastChange = "2018-07-29 15:04:19 +0000";
layers = (
{
layerId = "3C317020-980B-44E8-A79B-F384FFC5B400";
paths = (
{
closed = 1;
nodes = (
"336 198 LINE",
"329 179 OFFCURVE",
"317 179 QCURVE SMOOTH",
"280 179 OFFCURVE",
"208 406 OFFCURVE",
"168 608 QCURVE",
"327 620 OFFCURVE",
"488 620 QCURVE SMOOTH",
"655 620 OFFCURVE",
"826 608 QCURVE",
"976 41 LINE SMOOTH",
"980 25 OFFCURVE",
"999 0 OFFCURVE",
"1008 0 QCURVE SMOOTH",
"1010 0 LINE",
"1034 4 OFFCURVE",
"1219 157 OFFCURVE",
"1263 204 QCURVE",
"1236 236 LINE",
"1197 194 OFFCURVE",
"1181 194 QCURVE SMOOTH",
"1136 194 OFFCURVE",
"1075 454 QCURVE SMOOTH",
"1051 561 LINE SMOOTH",
"1048 575 OFFCURVE",
"1042 602 QCURVE",
"1035 628 LINE",
"1169 786 LINE",
"999 784 LINE",
"836 1448 LINE",
"668 1290 LINE",
"775 784 LINE",
"607 768 OFFCURVE",
"399 768 QCURVE SMOOTH",
"264 768 OFFCURVE",
"131 774 QCURVE",
"-24 1430 LINE",
"-208 1290 LINE",
"-101 815 LINE",
"68 155 LINE SMOOTH",
"71 144 OFFCURVE",
"87 87 OFFCURVE",
"97 57 OFFCURVE",
"111 18 OFFCURVE",
"125 0 OFFCURVE",
"132 0 QCURVE SMOOTH",
"150 0 OFFCURVE",
"208 52 OFFCURVE",
"306 138 OFFCURVE",
"358 166 QCURVE"
);
}
);
width = 1444;
}
);
note = H;
unicode = 0048;
},
{
glyphname = I;
lastChange = "2018-07-29 15:04:19 +0000";
layers = (
{
layerId = "3C317020-980B-44E8-A79B-F384FFC5B400";
paths = (
{
closed = 1;
nodes = (
"354 150 LINE",
"67 1344 LINE SMOOTH",
"59 1380 OFFCURVE",
"18 1423 OFFCURVE",
"0 1423 QCURVE SMOOTH",
"-17 1423 OFFCURVE",
"-42 1398 QCURVE",
"-310 1211 LINE",
"-279 1183 LINE",
"-239 1211 OFFCURVE",
"-201 1211 QCURVE SMOOTH",
"-169 1211 OFFCURVE",
"-128 1165 OFFCURVE",
"-99 1090 QCURVE",
"-24 837 OFFCURVE",
"78 417 OFFCURVE",
"154 41 OFFCURVE",
"164 0 QCURVE"
);
}
);
width = 512;
}
);
note = I;
unicode = 0049;
},
{
glyphname = J;
lastChange = "2018-07-29 15:04:19 +0000";
layers = (
{
layerId = "3C317020-980B-44E8-A79B-F384FFC5B400";
paths = (
{
closed = 1;
nodes = (
"59 1378 OFFCURVE",
"25 1423 OFFCURVE",
"10 1423 QCURVE",
"1 1420 LINE",
"-8 1416 OFFCURVE",
"-32 1402 OFFCURVE",
"-39 1395 QCURVE",
"-307 1208 LINE",
"-276 1180 LINE",
"-236 1208 OFFCURVE",
"-198 1208 QCURVE SMOOTH",
"-167 1208 OFFCURVE",
"-119 1153 OFFCURVE",
"-96 1087 QCURVE",
"23 687 OFFCURVE",
"70 482 QCURVE SMOOTH",
"78 446 OFFCURVE",
"131 207 OFFCURVE",
"155 92 OFFCURVE",
"179 -86 OFFCURVE",
"179 -151 QCURVE SMOOTH",
"179 -289 OFFCURVE",
"131 -366 QCURVE",
"147 -438 OFFCURVE",
"147 -438 QCURVE",
"423 -138 LINE",
"342 134 OFFCURVE",
"273 435 QCURVE SMOOTH",
"67 1344 LINE SMOOTH"
);
}
);
width = 522;
}
);
note = J;
unicode = 004A;
},
{
glyphname = K;
lastChange = "2018-07-29 15:04:19 +0000";
layers = (
{
layerId = "3C317020-980B-44E8-A79B-F384FFC5B400";
paths = (
{
closed = 1;
nodes = (
"304 1296 OFFCURVE",
"310 1292 QCURVE SMOOTH",
"344 1271 OFFCURVE",
"375 1248 OFFCURVE",
"440 1193 OFFCURVE",
"471 1137 OFFCURVE",
"471 1108 QCURVE SMOOTH",
"471 1073 OFFCURVE",
"445 1040 QCURVE SMOOTH",
"217 744 LINE",
"807 42 LINE SMOOTH",
"864 -23 OFFCURVE",
"897 -23 QCURVE SMOOTH",
"913 -23 OFFCURVE",
"924 -12 QCURVE SMOOTH",
"944 7 OFFCURVE",
"1015 62 OFFCURVE",
"1074 115 OFFCURVE",
"1097 148 QCURVE",
"1080 141 OFFCURVE",
"1064 141 QCURVE SMOOTH",
"1033 141 OFFCURVE",
"991 174 QCURVE",
"882 271 OFFCURVE",
"686 478 OFFCURVE",
"404 807 OFFCURVE",
"364 852 QCURVE",
"408 937 OFFCURVE",
"566 1127 OFFCURVE",
"675 1249 OFFCURVE",
"675 1271 QCURVE SMOOTH",
"675 1274 OFFCURVE",
"675 1274 QCURVE",
"651 1374 OFFCURVE",
"456 1416 QCURVE",
"301 1298 LINE"
);
},
{
closed = 1;
nodes = (
"-274 1186 LINE",
"-251 1206 OFFCURVE",
"-225 1206 QCURVE SMOOTH",
"-187 1206 OFFCURVE",
"-118 1119 OFFCURVE",
"-101 1068 QCURVE SMOOTH",
"60 543 OFFCURVE",
"152 10 QCURVE",
"333 142 LINE",
"56 1298 LINE",
"47 1329 OFFCURVE",
"2 1413 OFFCURVE",
"-19 1413 QCURVE SMOOTH",
"-29 1413 OFFCURVE",
"-107 1372 OFFCURVE",
"-241 1273 OFFCURVE",
"-303 1210 QCURVE"
);
}
);
width = 1239;
}
);
note = K;
unicode = 004B;
},
{
glyphname = L;
lastChange = "2018-07-29 15:04:19 +0000";
layers = (
{
layerId = "3C317020-980B-44E8-A79B-F384FFC5B400";
paths = (
{
closed = 1;
nodes = (
"209 5 LINE",
"843 0 LINE",
"960 177 LINE",
"922 180 OFFCURVE",
"883 180 QCURVE SMOOTH",
"816 180 OFFCURVE",
"471 167 OFFCURVE",
"403 167 QCURVE SMOOTH",
"384 167 OFFCURVE",
"359 178 OFFCURVE",
"342 180 QCURVE",
"70 1336 LINE SMOOTH",
"62 1371 OFFCURVE",
"3 1420 OFFCURVE",
"-37 1420 OFFCURVE",
"-60 1395 QCURVE",
"-328 1208 LINE",
"-297 1180 LINE",
"-257 1208 OFFCURVE",
"-219 1208 QCURVE SMOOTH",
"-183 1208 OFFCURVE",
"-99 1149 OFFCURVE",
"-76 1092 QCURVE"
);
}
);
width = 1109;
}
);
note = L;
unicode = 004C;
},
{
glyphname = M;
lastChange = "2018-07-29 15:04:19 +0000";
layers = (
{
layerId = "3C317020-980B-44E8-A79B-F384FFC5B400";
paths = (
{
closed = 1;
nodes = (
"1206 1094 OFFCURVE",
"1206 934 QCURVE SMOOTH",
"1206 836 OFFCURVE",
"1178 667 OFFCURVE",
"1120 528 OFFCURVE",
"1022 446 OFFCURVE",
"957 444 QCURVE",
"871 445 OFFCURVE",
"642 585 OFFCURVE",
"419 801 OFFCURVE",
"197 1062 OFFCURVE",
"25 1308 OFFCURVE",
"-30 1407 QCURVE",
"-180 1317 LINE",
"-212 1294 OFFCURVE",
"-212 1265 QCURVE SMOOTH",
"-212 1240 OFFCURVE",
"-186 1212 QCURVE",
"19 934 LINE",
"19 856 LINE SMOOTH",
"19 313 OFFCURVE",
"52 0 QCURVE",
"271 168 LINE",
"230 349 OFFCURVE",
"214 714 QCURVE",
"227 701 OFFCURVE",
"252 676 QCURVE SMOOTH",
"345 583 OFFCURVE",
"458 472 OFFCURVE",
"628 317 OFFCURVE",
"741 232 OFFCURVE",
"861 168 OFFCURVE",
"901 168 QCURVE SMOOTH",
"940 168 OFFCURVE",
"1012 206 OFFCURVE",
"1068 265 OFFCURVE",
"1125 359 OFFCURVE",
"1165 447 OFFCURVE",
"1211 568 OFFCURVE",
"1240 657 OFFCURVE",
"1279 778 OFFCURVE",
"1290 810 QCURVE",
"1318 747 OFFCURVE",
"1438 466 OFFCURVE",
"1512 300 OFFCURVE",
"1630 79 OFFCURVE",
"1687 0 QCURVE",
"1861 141 LINE",
"1873 168 LINE",
"1715 398 OFFCURVE",
"1472 874 OFFCURVE",
"1395 1146 QCURVE",
"1440 1434 LINE",
"1171 1248 LINE"
);
}
);
width = 2020;
}
);
note = M;
unicode = 004D;
},
{
glyphname = N;
lastChange = "2018-07-29 15:04:19 +0000";
layers = (
{
layerId = "3C317020-980B-44E8-A79B-F384FFC5B400";
paths = (
{
closed = 1;
nodes = (
"489 706 OFFCURVE",
"949 267 OFFCURVE",
"1153 0 QCURVE",
"1306 134 LINE",
"1042 1423 LINE",
"834 1252 LINE",
"868 1183 OFFCURVE",
"921 1043 OFFCURVE",
"967 867 OFFCURVE",
"992 762 OFFCURVE",
"1041 529 OFFCURVE",
"1051 484 QCURVE",
"809 715 OFFCURVE",
"356 1116 OFFCURVE",
"-48 1420 OFFCURVE",
"-111 1420 QCURVE SMOOTH",
"-148 1420 OFFCURVE",
"-314 1297 OFFCURVE",
"-351 1258 QCURVE",
"-325 1238 LINE",
"-297 1264 OFFCURVE",
"-251 1264 QCURVE SMOOTH",
"-234 1264 OFFCURVE",
"-137 1198 OFFCURVE",
"-27 1115 OFFCURVE",
"-12 1106 QCURVE",
"199 0 LINE",
"293 110 OFFCURVE",
"387 156 QCURVE",
"263 523 OFFCURVE",
"218 914 QCURVE"
);
}
);
width = 1505;
}
);
note = N;
unicode = 004E;
},
{
glyphname = O;
lastChange = "2018-07-29 15:04:19 +0000";
layers = (
{
layerId = "3C317020-980B-44E8-A79B-F384FFC5B400";
paths = (
{
closed = 1;
nodes = (
"93 1204 OFFCURVE",
"204 1266 OFFCURVE",
"237 1266 QCURVE",
"252 1270 OFFCURVE",
"273 1270 QCURVE SMOOTH",
"373 1270 OFFCURVE",
"621 1071 OFFCURVE",
"809 787 OFFCURVE",
"838 663 QCURVE SMOOTH",
"860 566 OFFCURVE",
"860 483 QCURVE SMOOTH",
"860 432 LINE",
"845 328 OFFCURVE",
"720 195 OFFCURVE",
"630 195 QCURVE SMOOTH",
"616 195 LINE SMOOTH",
"521 195 OFFCURVE",
"294 347 OFFCURVE",
"105 607 OFFCURVE",
"72 748 QCURVE",
"70 766 LINE SMOOTH",
"68 783 OFFCURVE",
"64 851 OFFCURVE",
"64 884 QCURVE SMOOTH",
"64 978 OFFCURVE",
"79 1038 QCURVE",
"41 1005 OFFCURVE",
"-14 947 OFFCURVE",
"-81 852 OFFCURVE",
"-117 731 OFFCURVE",
"-117 662 QCURVE SMOOTH",
"-117 604 OFFCURVE",
"-102 535 QCURVE SMOOTH",
"-96 511 LINE",
"-64 430 OFFCURVE",
"14 289 OFFCURVE",
"126 153 OFFCURVE",
"255 55 OFFCURVE",
"425 -4 OFFCURVE",
"519 -4 QCURVE SMOOTH",
"602 -4 OFFCURVE",
"800 112 OFFCURVE",
"967 294 OFFCURVE",
"1079 540 OFFCURVE",
"1079 659 QCURVE SMOOTH",
"1079 711 OFFCURVE",
"1067 762 QCURVE SMOOTH",
"1031 917 OFFCURVE",
"901 1156 OFFCURVE",
"754 1296 OFFCURVE",
"575 1385 OFFCURVE",
"422 1416 OFFCURVE",
"343 1416 QCURVE SMOOTH",
"232 1416 OFFCURVE",
"91 1309 OFFCURVE",
"31 1207 QCURVE",
"69 1171 LINE"
);
}
);
width = 1340;
}
);
note = O;
unicode = 004F;
},
{
glyphname = P;
lastChange = "2018-07-29 15:04:19 +0000";
layers = (
{
layerId = "3C317020-980B-44E8-A79B-F384FFC5B400";
paths = (
{
closed = 1;
nodes = (
"331 156 LINE",
"83 1230 LINE",
"100 1230 OFFCURVE",
"154 1238 OFFCURVE",
"171 1238 QCURVE SMOOTH",
"301 1238 OFFCURVE",
"522 1042 OFFCURVE",
"553 908 QCURVE SMOOTH",
"558 883 OFFCURVE",
"558 865 QCURVE SMOOTH",
"558 800 OFFCURVE",
"469 686 OFFCURVE",
"354 628 OFFCURVE",
"306 628 QCURVE",
"309 628 OFFCURVE",
"323 598 OFFCURVE",
"327 598 QCURVE SMOOTH",
"380 598 OFFCURVE",
"531 664 OFFCURVE",
"674 768 OFFCURVE",
"774 918 OFFCURVE",
"774 993 QCURVE SMOOTH",
"774 1016 OFFCURVE",
"768 1042 QCURVE SMOOTH",
"740 1166 OFFCURVE",
"537 1341 OFFCURVE",
"269 1420 OFFCURVE",
"117 1420 QCURVE SMOOTH",
"46 1420 OFFCURVE",
"-31 1418 OFFCURVE",
"-144 1403 OFFCURVE",
"-189 1388 QCURVE",
"-307 1214 LINE",
"-234 1238 OFFCURVE",
"-124 1238 QCURVE",
"-29 961 OFFCURVE",
"111 298 OFFCURVE",
"140 0 QCURVE"
);
}
);
width = 1122;
}
);
note = P;
unicode = 0050;
},
{
glyphname = Q;
lastChange = "2018-07-29 15:04:19 +0000";
layers = (
{
layerId = "3C317020-980B-44E8-A79B-F384FFC5B400";
paths = (
{
closed = 1;
nodes = (
"1436 -282 OFFCURVE",
"1436 -142 QCURVE SMOOTH",
"1436 -113 OFFCURVE",
"1430 -61 QCURVE",
"1411 -45 LINE",
"1410 -47 OFFCURVE",
"1405 -68 OFFCURVE",
"1402 -76 OFFCURVE",
"1394 -92 OFFCURVE",
"1385 -99 OFFCURVE",
"1369 -105 OFFCURVE",
"1359 -105 QCURVE SMOOTH",
"1305 -105 OFFCURVE",
"1018 61 OFFCURVE",
"862 202 QCURVE",
"954 303 OFFCURVE",
"1067 545 OFFCURVE",
"1067 664 QCURVE SMOOTH",
"1067 718 OFFCURVE",
"1056 762 QCURVE SMOOTH",
"1020 917 OFFCURVE",
"890 1156 OFFCURVE",
"743 1296 OFFCURVE",
"564 1385 OFFCURVE",
"411 1416 OFFCURVE",
"332 1416 QCURVE SMOOTH",
"221 1416 OFFCURVE",
"80 1309 OFFCURVE",
"20 1207 QCURVE",
"58 1171 LINE",
"82 1204 OFFCURVE",
"193 1266 OFFCURVE",
"226 1266 QCURVE",
"241 1270 OFFCURVE",
"262 1270 QCURVE SMOOTH",
"362 1270 OFFCURVE",
"610 1071 OFFCURVE",
"798 787 OFFCURVE",
"827 663 QCURVE SMOOTH",
"849 566 OFFCURVE",
"849 483 QCURVE SMOOTH",
"849 432 LINE",
"838 345 OFFCURVE",
"790 276 QCURVE",
"733 340 OFFCURVE",
"638 476 OFFCURVE",
"595 546 OFFCURVE",
"545 592 OFFCURVE",
"516 592 QCURVE SMOOTH",
"477 592 OFFCURVE",
"453 556 QCURVE",
"361 362 LINE",
"389 354 LINE",
"395 358 OFFCURVE",
"423 385 OFFCURVE",
"449 402 OFFCURVE",
"461 402 QCURVE SMOOTH",
"468 402 OFFCURVE",
"477 399 OFFCURVE",
"488 388 OFFCURVE",
"498 372 OFFCURVE",
"520 339 OFFCURVE",
"545 299 OFFCURVE",
"592 232 OFFCURVE",
"619 195 QCURVE",
"605 195 LINE SMOOTH",
"510 195 OFFCURVE",
"283 347 OFFCURVE",
"94 607 OFFCURVE",
"61 748 QCURVE",
"59 766 LINE SMOOTH",
"57 783 OFFCURVE",
"53 851 OFFCURVE",
"53 884 QCURVE SMOOTH",
"53 978 OFFCURVE",
"68 1038 QCURVE",
"30 1005 OFFCURVE",
"-25 947 OFFCURVE",
"-92 852 OFFCURVE",
"-128 731 OFFCURVE",
"-128 662 QCURVE SMOOTH",
"-128 604 OFFCURVE",
"-113 535 QCURVE SMOOTH",
"-107 511 LINE",
"-75 430 OFFCURVE",
"3 289 OFFCURVE",
"115 153 OFFCURVE",
"244 55 OFFCURVE",
"414 -4 OFFCURVE",
"508 -4 QCURVE SMOOTH",
"607 -4 OFFCURVE",
"723 70 QCURVE",
"854 -63 OFFCURVE",
"1236 -282 OFFCURVE",
"1329 -282 QCURVE SMOOTH"
);
}
);
width = 1550;
}
);
note = Q;
unicode = 0051;
},
{
glyphname = R;
lastChange = "2018-07-29 15:04:19 +0000";
layers = (
{
layerId = "3C317020-980B-44E8-A79B-F384FFC5B400";
paths = (
{
closed = 1;
nodes = (
"-326 1228 LINE",
"-286 1236 OFFCURVE",
"-223 1236 QCURVE SMOOTH",
"-205 1236 OFFCURVE",
"-130 1234 OFFCURVE",
"-111 1234 QCURVE",
"-76 1122 LINE",
"-54 1026 OFFCURVE",
"13 767 OFFCURVE",
"29 696 QCURVE SMOOTH",
"60 563 OFFCURVE",
"143 115 OFFCURVE",
"170 0 QCURVE",
"356 158 LINE",
"334 255 OFFCURVE",
"229 646 OFFCURVE",
"206 746 QCURVE SMOOTH",
"186 830 OFFCURVE",
"117 1174 OFFCURVE",
"97 1262 QCURVE",
"332 1262 OFFCURVE",
"569 1121 OFFCURVE",
"605 964 QCURVE",
"605 961 OFFCURVE",
"605 955 OFFCURVE",
"605 947 OFFCURVE",
"605 945 QCURVE SMOOTH",
"605 927 OFFCURVE",
"593 889 OFFCURVE",
"561 837 OFFCURVE",
"544 811 OFFCURVE",
"491 743 OFFCURVE",
"486 736 QCURVE",
"336 650 LINE",
"383 568 OFFCURVE",
"493 410 OFFCURVE",
"648 223 OFFCURVE",
"729 130 OFFCURVE",
"827 20 QCURVE SMOOTH",
"870 -28 OFFCURVE",
"908 -28 QCURVE SMOOTH",
"933 -28 OFFCURVE",
"952 -8 QCURVE",
"1136 130 LINE",
"1126 146 LINE",
"1111 132 OFFCURVE",
"1092 132 QCURVE SMOOTH",
"1064 132 OFFCURVE",
"1020 172 QCURVE SMOOTH",
"899 283 OFFCURVE",
"672 543 OFFCURVE",
"524 726 QCURVE",
"539 738 OFFCURVE",
"625 798 OFFCURVE",
"685 848 OFFCURVE",
"754 919 OFFCURVE",
"791 1005 OFFCURVE",
"791 1052 QCURVE SMOOTH",
"791 1081 OFFCURVE",
"784 1108 QCURVE SMOOTH",
"753 1216 OFFCURVE",
"574 1357 OFFCURVE",
"317 1420 OFFCURVE",
"148 1420 QCURVE SMOOTH",
"34 1420 LINE SMOOTH",
"-100 1420 OFFCURVE",
"-193 1392 QCURVE"
);
}
);
width = 1277;
}
);
note = R;
unicode = 0052;
},
{
glyphname = S;
lastChange = "2018-07-29 15:04:19 +0000";
layers = (
{
layerId = "3C317020-980B-44E8-A79B-F384FFC5B400";
paths = (
{
closed = 1;
nodes = (
"629 1286 LINE",
"640 1292 OFFCURVE",
"648 1303 OFFCURVE",
"636 1320 OFFCURVE",
"624 1331 OFFCURVE",
"608 1344 QCURVE",
"504 1420 OFFCURVE",
"374 1420 QCURVE SMOOTH",
"309 1420 OFFCURVE",
"160 1376 OFFCURVE",
"20 1293 OFFCURVE",
"-95 1188 OFFCURVE",
"-165 1055 OFFCURVE",
"-165 987 QCURVE SMOOTH",
"-165 958 OFFCURVE",
"-159 930 QCURVE SMOOTH",
"-149 885 OFFCURVE",
"-85 809 OFFCURVE",
"-19 766 OFFCURVE",
"61 732 OFFCURVE",
"92 724 OFFCURVE",
"101 722 QCURVE",
"464 614 LINE",
"486 606 LINE SMOOTH",
"509 597 OFFCURVE",
"578 555 OFFCURVE",
"650 496 OFFCURVE",
"715 397 OFFCURVE",
"728 340 QCURVE SMOOTH",
"732 324 OFFCURVE",
"732 305 QCURVE SMOOTH",
"732 233 OFFCURVE",
"614 134 OFFCURVE",
"546 130 QCURVE",
"539 130 LINE SMOOTH",
"436 130 OFFCURVE",
"267 243 OFFCURVE",
"189 344 QCURVE",
"186 342 OFFCURVE",
"139 310 OFFCURVE",
"127 302 OFFCURVE",
"89 274 OFFCURVE",
"71 259 OFFCURVE",
"42 234 OFFCURVE",
"20 210 OFFCURVE",
"10 198 QCURVE",
"-4 183 OFFCURVE",
"-4 168 QCURVE SMOOTH",
"-4 159 OFFCURVE",
"5 143 OFFCURVE",
"21 126 OFFCURVE",
"22 124 QCURVE",
"71 73 OFFCURVE",
"246 0 OFFCURVE",
"354 0 QCURVE SMOOTH",
"467 0 OFFCURVE",
"682 106 OFFCURVE",
"827 263 OFFCURVE",
"915 439 OFFCURVE",
"915 510 QCURVE SMOOTH",
"915 533 OFFCURVE",
"911 550 QCURVE SMOOTH",
"900 598 OFFCURVE",
"829 681 OFFCURVE",
"756 727 OFFCURVE",
"665 764 OFFCURVE",
"631 774 OFFCURVE",
"621 776 QCURVE",
"299 870 LINE",
"275 879 LINE SMOOTH",
"251 888 OFFCURVE",
"179 927 OFFCURVE",
"104 978 OFFCURVE",
"42 1058 OFFCURVE",
"32 1102 QCURVE",
"28 1116 OFFCURVE",
"27 1118 QCURVE",
"21 1145 OFFCURVE",
"21 1169 QCURVE SMOOTH",
"21 1240 OFFCURVE",
"120 1320 OFFCURVE",
"194 1326 QCURVE",
"331 1326 OFFCURVE",
"468 1178 QCURVE"
);
}
);
width = 1147;
}
);
note = S;
unicode = 0053;
},
{
glyphname = T;
lastChange = "2018-07-29 15:04:19 +0000";
layers = (
{
layerId = "3C317020-980B-44E8-A79B-F384FFC5B400";
paths = (
{
closed = 1;
nodes = (
"380 1217 OFFCURVE",
"479 1218 OFFCURVE",
"530 1220 OFFCURVE",
"610 1227 OFFCURVE",
"657 1242 OFFCURVE",
"720 1271 OFFCURVE",
"766 1313 OFFCURVE",
"816 1378 OFFCURVE",
"839 1420 QCURVE",
"161 1420 LINE SMOOTH",
"-35 1422 OFFCURVE",
"-176 1432 QCURVE",
"-357 1254 LINE",
"120 1226 LINE",
"395 0 LINE",
"605 180 LINE",
"547 377 OFFCURVE",
"473 643 OFFCURVE",
"378 1044 OFFCURVE",
"350 1216 QCURVE"
);
}
);
width = 1301;
}
);
note = T;
unicode = 0054;
},
{
glyphname = U;
lastChange = "2018-07-29 15:04:19 +0000";
layers = (
{
layerId = "3C317020-980B-44E8-A79B-F384FFC5B400";
paths = (
{
closed = 1;
nodes = (
"-174 1317 LINE",
"-181 1311 OFFCURVE",
"-220 1279 OFFCURVE",
"-228 1269 OFFCURVE",
"-240 1246 OFFCURVE",
"-240 1232 QCURVE SMOOTH",
"-240 1215 OFFCURVE",
"-234 1188 QCURVE SMOOTH",
"-221 1133 OFFCURVE",
"-194 1065 QCURVE",
"-177 1016 OFFCURVE",
"-122 844 OFFCURVE",
"-83 727 OFFCURVE",
"-22 558 OFFCURVE",
"30 440 OFFCURVE",
"106 295 OFFCURVE",
"181 195 OFFCURVE",
"281 93 OFFCURVE",
"387 32 OFFCURVE",
"519 -6 OFFCURVE",
"592 -6 QCURVE SMOOTH",
"680 -6 OFFCURVE",
"819 27 OFFCURVE",
"920 84 OFFCURVE",
"994 174 OFFCURVE",
"1040 276 OFFCURVE",
"1067 413 OFFCURVE",
"1077 550 OFFCURVE",
"1077 636 QCURVE SMOOTH",
"1077 727 OFFCURVE",
"1058 1158 OFFCURVE",
"1058 1277 QCURVE SMOOTH",
"1058 1348 OFFCURVE",
"1061 1420 QCURVE",
"854 1218 LINE",
"940 846 LINE",
"966 632 OFFCURVE",
"966 534 QCURVE SMOOTH",
"966 453 OFFCURVE",
"941 331 OFFCURVE",
"882 230 OFFCURVE",
"772 177 OFFCURVE",
"692 177 QCURVE SMOOTH",
"610 177 OFFCURVE",
"536 217 QCURVE SMOOTH",
"351 315 OFFCURVE",
"189 680 QCURVE SMOOTH",
"112 854 OFFCURVE",
"-19 1248 QCURVE SMOOTH",
"-53 1350 OFFCURVE",
"-70 1400 QCURVE"
);
}
);
width = 1523;
}
);
note = U;
unicode = 0055;
},
{
glyphname = V;
lastChange = "2018-07-29 15:04:19 +0000";
layers = (
{
layerId = "3C317020-980B-44E8-A79B-F384FFC5B400";
paths = (
{
closed = 1;
nodes = (
"-349 1256 LINE",
"-318 1274 OFFCURVE",
"-291 1274 QCURVE SMOOTH",
"-259 1274 OFFCURVE",
"-233 1248 QCURVE SMOOTH",
"-96 1108 OFFCURVE",
"163 740 OFFCURVE",
"477 232 OFFCURVE",
"556 116 QCURVE SMOOTH",
"584 76 OFFCURVE",
"616 -4 OFFCURVE",
"617 -28 QCURVE",
"820 108 LINE",
"790 165 OFFCURVE",
"790 222 QCURVE SMOOTH",
"790 254 OFFCURVE",
"796 300 QCURVE",
"809 458 OFFCURVE",
"888 807 OFFCURVE",
"1050 1361 OFFCURVE",
"1071 1440 QCURVE",
"764 1262 LINE",
"779 1162 OFFCURVE",
"779 1030 QCURVE SMOOTH",
"779 890 OFFCURVE",
"742 558 OFFCURVE",
"709 374 OFFCURVE",
"697 322 QCURVE",
"-25 1370 LINE",
"-56 1409 OFFCURVE",
"-99 1448 OFFCURVE",
"-118 1448 QCURVE SMOOTH",
"-124 1448 OFFCURVE",
"-132 1444 QCURVE",
"-360 1268 LINE"
);
}
);
width = 1537;
}
);
note = V;
unicode = 0056;
},
{
glyphname = W;
lastChange = "2018-07-29 15:04:19 +0000";
layers = (
{
layerId = "3C317020-980B-44E8-A79B-F384FFC5B400";
paths = (
{
closed = 1;
nodes = (
"618 384 OFFCURVE",
"397 716 OFFCURVE",
"288 874 OFFCURVE",
"106 1132 OFFCURVE",
"-53 1331 OFFCURVE",
"-134 1420 QCURVE",
"-354 1245 LINE",
"-344 1227 LINE",
"-328 1236 OFFCURVE",
"-311 1236 QCURVE SMOOTH",
"-291 1236 OFFCURVE",
"-269 1224 QCURVE",
"-151 1104 OFFCURVE",
"88 796 OFFCURVE",
"320 434 OFFCURVE",
"478 171 OFFCURVE",
"584 -15 QCURVE",
"752 102 LINE",
"737 171 OFFCURVE",
"737 221 QCURVE SMOOTH",
"737 261 OFFCURVE",
"746 312 QCURVE",
"924 1023 LINE",
"1056 847 OFFCURVE",
"1165 698 OFFCURVE",
"1377 397 OFFCURVE",
"1535 138 OFFCURVE",
"1607 0 QCURVE",
"1787 132 LINE",
"1766 172 OFFCURVE",
"1766 217 QCURVE SMOOTH",
"1766 245 OFFCURVE",
"1775 273 QCURVE",
"1790 410 OFFCURVE",
"1859 728 OFFCURVE",
"1922 945 OFFCURVE",
"2033 1313 OFFCURVE",
"2058 1400 QCURVE",
"1782 1252 LINE",
"1755 671 OFFCURVE",
"1663 366 QCURVE",
"952 1407 LINE",
"741 1257 LINE",
"772 1151 OFFCURVE",
"772 1029 QCURVE SMOOTH",
"772 928 OFFCURVE",
"733 695 OFFCURVE",
"669 407 OFFCURVE",
"656 327 QCURVE"
);
}
);
width = 2515;
}
);
note = W;
unicode = 0057;
},
{
glyphname = X;
lastChange = "2018-07-29 15:04:19 +0000";
layers = (
{
layerId = "3C317020-980B-44E8-A79B-F384FFC5B400";
paths = (
{
closed = 1;
nodes = (
"313 600 OFFCURVE",
"247 445 OFFCURVE",
"159 281 OFFCURVE",
"98 172 OFFCURVE",
"-16 -16 OFFCURVE",
"-40 -58 QCURVE",
"325 120 LINE",
"303 187 OFFCURVE",
"303 261 QCURVE SMOOTH",
"303 319 OFFCURVE",
"333 443 OFFCURVE",
"366 519 OFFCURVE",
"406 600 OFFCURVE",
"409 606 QCURVE",
"472 505 OFFCURVE",
"641 298 OFFCURVE",
"763 171 OFFCURVE",
"867 68 QCURVE",
"891 17 OFFCURVE",
"934 17 QCURVE SMOOTH",
"935 17 OFFCURVE",
"939 17 OFFCURVE",
"942 17 OFFCURVE",
"945 17 OFFCURVE",
"947 17 QCURVE",
"1002 50 OFFCURVE",
"1090 113 OFFCURVE",
"1166 175 OFFCURVE",
"1187 190 QCURVE",
"1159 226 LINE",
"1109 202 OFFCURVE",
"1088 202 QCURVE SMOOTH",
"1059 202 OFFCURVE",
"1022 228 QCURVE",
"950 291 OFFCURVE",
"797 449 OFFCURVE",
"708 553 OFFCURVE",
"536 759 OFFCURVE",
"505 796 QCURVE",
"823 1420 LINE",
"485 1246 LINE",
"501 1150 OFFCURVE",
"501 1126 QCURVE SMOOTH",
"501 1042 OFFCURVE",
"422 862 QCURVE",
"21 1362 LINE",
"18 1365 OFFCURVE",
"2 1385 OFFCURVE",
"-12 1396 OFFCURVE",
"-20 1396 QCURVE",
"-30 1392 LINE SMOOTH",
"-41 1388 OFFCURVE",
"-82 1362 OFFCURVE",
"-135 1321 OFFCURVE",
"-209 1243 OFFCURVE",
"-247 1194 QCURVE",
"-226 1184 LINE",
"-204 1206 OFFCURVE",
"-179 1206 QCURVE SMOOTH",
"-148 1206 OFFCURVE",
"-5 1076 OFFCURVE",
"130 922 OFFCURVE",
"307 716 OFFCURVE",
"340 680 QCURVE"
);
}
);
width = 1339;
}
);
note = X;
unicode = 0058;
},
{
glyphname = Y;
lastChange = "2018-07-29 15:04:19 +0000";
layers = (
{
layerId = "3C317020-980B-44E8-A79B-F384FFC5B400";
paths = (
{
closed = 1;
nodes = (
"346 999 OFFCURVE",
"-69 1384 QCURVE",
"-70 1385 OFFCURVE",
"-101 1416 OFFCURVE",
"-122 1429 OFFCURVE",
"-146 1429 OFFCURVE",
"-159 1420 QCURVE",
"-358 1262 LINE",
"-332 1242 LINE",
"-324 1242 OFFCURVE",
"-299 1252 OFFCURVE",
"-292 1252 QCURVE SMOOTH",
"-272 1252 OFFCURVE",
"-236 1226 QCURVE",
"-155 1157 OFFCURVE",
"-93 1103 OFFCURVE",
"49 973 OFFCURVE",
"132 887 OFFCURVE",
"242 760 OFFCURVE",
"286 698 QCURVE",
"393 559 OFFCURVE",
"515 244 OFFCURVE",
"559 55 QCURVE SMOOTH",
"594 -96 LINE",
"780 72 LINE",
"771 108 OFFCURVE",
"731 253 OFFCURVE",
"710 335 OFFCURVE",
"691 447 OFFCURVE",
"691 491 QCURVE SMOOTH",
"691 572 OFFCURVE",
"720 630 QCURVE",
"1038 1442 LINE",
"725 1248 LINE",
"759 1160 OFFCURVE",
"759 1074 QCURVE SMOOTH",
"759 999 OFFCURVE",
"715 850 OFFCURVE",
"628 655 OFFCURVE",
"613 614 QCURVE"
);
}
);
width = 1505;
}
);
note = Y;
unicode = 0059;
},
{
glyphname = Z;
lastChange = "2018-07-29 15:04:19 +0000";
layers = (
{
layerId = "3C317020-980B-44E8-A79B-F384FFC5B400";
paths = (
{
closed = 1;
nodes = (
"-209 1286 LINE",
"-231 1249 OFFCURVE",
"-231 1222 QCURVE SMOOTH",
"-231 1183 OFFCURVE",
"-144 1148 OFFCURVE",
"-60 1144 QCURVE",
"476 1160 LINE",
"69 394 LINE SMOOTH",
"59 374 OFFCURVE",
"22 305 OFFCURVE",
"5 270 OFFCURVE",
"-10 218 OFFCURVE",
"-10 194 QCURVE SMOOTH",
"-10 147 OFFCURVE",
"17 100 QCURVE SMOOTH",
"36 67 OFFCURVE",
"229 0 OFFCURVE",
"266 0 QCURVE",
"395 -13 OFFCURVE",
"530 -13 QCURVE SMOOTH",
"658 -13 OFFCURVE",
"804 0 QCURVE",
"953 264 LINE",
"928 261 OFFCURVE",
"803 247 OFFCURVE",
"735 240 OFFCURVE",
"634 233 OFFCURVE",
"592 233 QCURVE SMOOTH",
"511 233 OFFCURVE",
"444 244 QCURVE",
"410 253 OFFCURVE",
"368 268 OFFCURVE",
"317 296 OFFCURVE",
"288 332 OFFCURVE",
"268 389 OFFCURVE",
"268 426 QCURVE SMOOTH",
"268 493 OFFCURVE",
"300 596 QCURVE",
"709 1434 LINE",
"673 1432 OFFCURVE",
"316 1400 OFFCURVE",
"223 1400 QCURVE SMOOTH",
"-39 1400 OFFCURVE",
"-64 1506 QCURVE"
);
}
);
width = 1174;
}
);
note = Z;
unicode = 005A;
},
{
glyphname = bracketleft;
lastChange = "2018-07-29 15:04:19 +0000";
layers = (
{
layerId = "3C317020-980B-44E8-A79B-F384FFC5B400";
paths = (
{
closed = 1;
nodes = (
"145 -211 LINE",
"543 -211 LINE",
"526 -139 LINE",
"314 -139 LINE",
"-35 1373 LINE",
"177 1373 LINE",
"160 1445 LINE",
"-238 1445 LINE"
);
}
);
width = 628;
}
);
note = bracketleft;
unicode = 005B;
},
{
glyphname = backslash;
lastChange = "2018-07-29 15:04:19 +0000";
layers = (
{
layerId = "3C317020-980B-44E8-A79B-F384FFC5B400";
paths = (
{
closed = 1;
nodes = (
"-402 1452 LINE",
"983 -24 LINE",
"1148 -24 LINE",
"-234 1452 LINE"
);
}
);
width = 1276;
}
);
note = backslash;
unicode = 005C;
},
{
glyphname = bracketright;
lastChange = "2018-07-29 15:04:19 +0000";
layers = (
{
layerId = "3C317020-980B-44E8-A79B-F384FFC5B400";
paths = (
{
closed = 1;
nodes = (
"-365 1445 LINE",
"-348 1373 LINE",
"-135 1373 LINE",
"214 -139 LINE",
"0 -139 LINE",
"18 -211 LINE",
"417 -211 LINE",
"34 1445 LINE"
);
}
);
width = 502;
}
);
note = bracketright;
unicode = 005D;
},
{
glyphname = asciicircum;
lastChange = "2018-07-29 15:04:19 +0000";
layers = (
{
layerId = "3C317020-980B-44E8-A79B-F384FFC5B400";
paths = (
{
closed = 1;
nodes = (
"89 1420 LINE",
"-61 1420 LINE",
"-209 852 LINE",
"-68 852 LINE",
"40 1306 LINE",
"355 855 LINE",
"496 855 LINE"
);
}
);
width = 787;
}
);
note = asciicircum;
unicode = 005E;
},
{
glyphname = underscore;
lastChange = "2018-07-29 15:04:19 +0000";
layers = (
{
layerId = "3C317020-980B-44E8-A79B-F384FFC5B400";
paths = (
{
closed = 1;
nodes = (
"1312 -334 LINE",
"163 -334 LINE",
"180 -406 LINE",
"1329 -406 LINE"
);
}
);
width = 1303;
}
);
note = underscore;
unicode = 005F;
},
{
glyphname = grave;
lastChange = "2018-07-29 15:04:19 +0000";
layers = (
{
layerId = "3C317020-980B-44E8-A79B-F384FFC5B400";
paths = (
{
closed = 1;
nodes = (
"-219 1387 LINE",
"-323 1308 LINE",
"8 1136 LINE",
"58 1163 LINE"
);
}
);
width = 458;
}
);
note = grave;
unicode = 0060;
},
{
glyphname = a;
lastChange = "2018-07-29 15:04:19 +0000";
layers = (
{
layerId = "3C317020-980B-44E8-A79B-F384FFC5B400";
paths = (
{
closed = 1;
nodes = (
"48 744 LINE",
"96 776 OFFCURVE",
"131 776 QCURVE SMOOTH",
"156 776 OFFCURVE",
"180 762 QCURVE",
"261 704 OFFCURVE",
"347 623 OFFCURVE",
"375 574 QCURVE",
"334 574 OFFCURVE",
"225 546 OFFCURVE",
"106 487 OFFCURVE",
"5 409 OFFCURVE",
"-60 295 OFFCURVE",
"-60 233 QCURVE SMOOTH",
"-60 204 OFFCURVE",
"-53 176 QCURVE SMOOTH",
"-43 131 OFFCURVE",
"23 61 OFFCURVE",
"113 20 OFFCURVE",
"210 0 OFFCURVE",
"260 0 QCURVE SMOOTH",
"318 0 OFFCURVE",
"426 52 OFFCURVE",
"500 130 OFFCURVE",
"549 202 OFFCURVE",
"560 232 QCURVE",
"490 188 OFFCURVE",
"356 188 QCURVE SMOOTH",
"249 188 OFFCURVE",
"85 267 OFFCURVE",
"65 350 QCURVE",
"63 362 OFFCURVE",
"63 369 QCURVE SMOOTH",
"63 410 OFFCURVE",
"137 468 OFFCURVE",
"174 468 QCURVE SMOOTH",
"247 468 OFFCURVE",
"371 443 OFFCURVE",
"480 385 OFFCURVE",
"568 317 OFFCURVE",
"665 205 OFFCURVE",
"742 100 OFFCURVE",
"795 20 QCURVE",
"948 152 LINE",
"776 388 OFFCURVE",
"509 718 OFFCURVE",
"358 874 QCURVE SMOOTH",
"291 943 OFFCURVE",
"237 943 QCURVE SMOOTH",
"214 943 OFFCURVE",
"196 928 QCURVE",
"27 758 LINE"
);
}
);
width = 1091;
}
);
note = a;
unicode = 0061;
},
{
glyphname = b;
lastChange = "2018-07-29 15:04:19 +0000";
layers = (
{
layerId = "3C317020-980B-44E8-A79B-F384FFC5B400";
paths = (
{
closed = 1;
nodes = (
"-280 1181 LINE",
"-238 1209 OFFCURVE",
"-201 1209 QCURVE SMOOTH",
"-128 1209 OFFCURVE",
"-99 1088 QCURVE SMOOTH",
"43 474 LINE SMOOTH",
"58 410 OFFCURVE",
"104 284 OFFCURVE",
"177 157 OFFCURVE",
"262 60 OFFCURVE",
"376 0 OFFCURVE",
"437 0 QCURVE SMOOTH",
"504 0 OFFCURVE",
"656 85 OFFCURVE",
"782 220 OFFCURVE",
"865 409 OFFCURVE",
"865 503 QCURVE SMOOTH",
"865 551 OFFCURVE",
"855 594 QCURVE SMOOTH",
"834 682 OFFCURVE",
"737 839 OFFCURVE",
"587 942 OFFCURVE",
"505 942 QCURVE SMOOTH",
"418 942 OFFCURVE",
"303 853 OFFCURVE",
"257 780 QCURVE",
"304 802 OFFCURVE",
"354 802 QCURVE SMOOTH",
"438 802 OFFCURVE",
"598 675 OFFCURVE",
"701 493 OFFCURVE",
"724 396 QCURVE SMOOTH",
"729 376 OFFCURVE",
"729 346 QCURVE SMOOTH",
"729 269 OFFCURVE",
"648 150 OFFCURVE",
"588 150 QCURVE SMOOTH",
"503 150 OFFCURVE",
"379 201 OFFCURVE",
"292 313 OFFCURVE",
"235 458 OFFCURVE",
"210 567 QCURVE SMOOTH",
"30 1346 LINE SMOOTH",
"13 1420 OFFCURVE",
"-22 1420 QCURVE SMOOTH",
"-41 1420 OFFCURVE",
"-65 1394 QCURVE",
"-310 1209 LINE"
);
}
);
width = 1101;
}
);
note = b;
unicode = 0062;
},
{
glyphname = c;
lastChange = "2018-07-29 15:04:19 +0000";
layers = (
{
layerId = "3C317020-980B-44E8-A79B-F384FFC5B400";
paths = (
{
closed = 1;
nodes = (
"611 179 OFFCURVE",
"563 156 OFFCURVE",
"523 148 OFFCURVE",
"488 148 QCURVE SMOOTH",
"418 148 OFFCURVE",
"217 291 OFFCURVE",
"44 520 OFFCURVE",
"19 628 QCURVE SMOOTH",
"14 651 OFFCURVE",
"14 669 QCURVE SMOOTH",
"14 733 OFFCURVE",
"88 830 OFFCURVE",
"134 830 QCURVE SMOOTH",
"151 830 OFFCURVE",
"182 824 OFFCURVE",
"213 808 OFFCURVE",
"237 795 OFFCURVE",
"267 765 OFFCURVE",
"285 749 OFFCURVE",
"316 711 OFFCURVE",
"328 696 OFFCURVE",
"360 653 OFFCURVE",
"364 648 QCURVE",
"402 666 OFFCURVE",
"506 760 OFFCURVE",
"506 801 QCURVE SMOOTH",
"506 808 OFFCURVE",
"505 812 QCURVE SMOOTH",
"495 856 OFFCURVE",
"336 938 OFFCURVE",
"263 938 QCURVE SMOOTH",
"180 937 OFFCURVE",
"12 805 OFFCURVE",
"-95 598 OFFCURVE",
"-95 494 QCURVE SMOOTH",
"-95 458 OFFCURVE",
"-87 420 QCURVE SMOOTH",
"-67 337 OFFCURVE",
"76 139 OFFCURVE",
"261 0 OFFCURVE",
"332 0 QCURVE SMOOTH",
"398 0 OFFCURVE",
"522 66 OFFCURVE",
"593 139 OFFCURVE",
"624 184 QCURVE"
);
}
);
width = 786;
}
);
note = c;
unicode = 0063;
},
{
glyphname = d;
lastChange = "2018-07-29 15:04:19 +0000";
layers = (
{
layerId = "3C317020-980B-44E8-A79B-F384FFC5B400";
paths = (
{
closed = 1;
nodes = (
"540 488 OFFCURVE",
"540 454 QCURVE SMOOTH",
"540 391 OFFCURVE",
"501 248 OFFCURVE",
"435 148 OFFCURVE",
"402 148 QCURVE SMOOTH",
"334 148 OFFCURVE",
"174 288 OFFCURVE",
"46 506 OFFCURVE",
"20 618 QCURVE SMOOTH",
"0 705 OFFCURVE",
"0 757 QCURVE SMOOTH",
"0 830 OFFCURVE",
"48 830 QCURVE SMOOTH",
"264 828 OFFCURVE",
"360 647 QCURVE",
"377 612 OFFCURVE",
"412 507 QCURVE",
"431 516 OFFCURVE",
"464 632 OFFCURVE",
"464 685 QCURVE SMOOTH",
"464 710 OFFCURVE",
"460 726 QCURVE SMOOTH",
"455 749 OFFCURVE",
"405 819 OFFCURVE",
"331 889 OFFCURVE",
"228 938 OFFCURVE",
"177 938 QCURVE SMOOTH",
"56 938 OFFCURVE",
"-108 741 OFFCURVE",
"-108 599 QCURVE SMOOTH",
"-108 549 OFFCURVE",
"-96 498 QCURVE SMOOTH",
"-81 431 OFFCURVE",
"-12 265 OFFCURVE",
"79 107 OFFCURVE",
"194 0 OFFCURVE",
"246 0 QCURVE SMOOTH",
"344 0 OFFCURVE",
"500 120 OFFCURVE",
"593 240 QCURVE",
"638 45 LINE SMOOTH",
"648 0 OFFCURVE",
"694 0 QCURVE SMOOTH",
"708 0 LINE SMOOTH",
"728 0 OFFCURVE",
"751 24 QCURVE",
"997 209 LINE",
"966 237 LINE",
"926 209 OFFCURVE",
"888 209 QCURVE SMOOTH",
"852 209 OFFCURVE",
"785 266 OFFCURVE",
"771 330 QCURVE SMOOTH",
"512 1449 LINE",
"335 1371 LINE",
"535 508 LINE SMOOTH"
);
}
);
width = 1152;
}
);
note = d;
unicode = 0064;
},
{
glyphname = e;
lastChange = "2018-07-29 15:04:19 +0000";
layers = (
{
layerId = "3C317020-980B-44E8-A79B-F384FFC5B400";
paths = (
{
closed = 1;
nodes = (
"198 810 OFFCURVE",
"284 690 OFFCURVE",
"284 603 QCURVE SMOOTH",
"284 543 OFFCURVE",
"241 430 OFFCURVE",
"200 392 QCURVE",
"237 413 OFFCURVE",
"326 478 OFFCURVE",
"437 578 OFFCURVE",
"509 702 OFFCURVE",
"509 760 QCURVE SMOOTH",
"509 781 OFFCURVE",
"505 798 QCURVE SMOOTH",
"490 865 OFFCURVE",
"352 938 OFFCURVE",
"272 938 QCURVE SMOOTH",
"203 938 OFFCURVE",
"84 877 OFFCURVE",
"2 779 OFFCURVE",
"-57 653 OFFCURVE",
"-84 524 OFFCURVE",
"-84 462 QCURVE SMOOTH",
"-84 417 OFFCURVE",
"-74 370 QCURVE SMOOTH",
"-53 276 OFFCURVE",
"103 100 OFFCURVE",
"287 0 OFFCURVE",
"357 0 QCURVE SMOOTH",
"397 0 OFFCURVE",
"474 31 OFFCURVE",
"526 69 OFFCURVE",
"583 137 OFFCURVE",
"608 175 OFFCURVE",
"649 244 OFFCURVE",
"650 246 QCURVE",
"593 200 OFFCURVE",
"474 178 QCURVE",
"401 178 OFFCURVE",
"247 264 OFFCURVE",
"129 392 OFFCURVE",
"43 537 OFFCURVE",
"29 598 QCURVE SMOOTH",
"22 629 OFFCURVE",
"22 661 QCURVE SMOOTH",
"22 725 OFFCURVE",
"77 810 OFFCURVE",
"120 810 QCURVE SMOOTH"
);
}
);
width = 804;
}
);
note = e;
unicode = 0065;
},
{
glyphname = f;
lastChange = "2018-07-29 15:04:19 +0000";
layers = (
{
layerId = "3C317020-980B-44E8-A79B-F384FFC5B400";
paths = (
{
closed = 1;
nodes = (
"-140 682 LINE",
"-147 536 LINE",
"112 542 LINE",
"333 -414 LINE",
"489 -262 LINE",
"295 528 LINE",
"338 533 OFFCURVE",
"368 533 QCURVE SMOOTH",
"397 533 OFFCURVE",
"451 527 OFFCURVE",
"522 516 OFFCURVE",
"536 514 QCURVE",
"539 555 OFFCURVE",
"571 643 OFFCURVE",
"594 672 QCURVE",
"556 672 OFFCURVE",
"402 665 OFFCURVE",
"364 665 QCURVE SMOOTH",
"303 665 OFFCURVE",
"248 672 QCURVE",
"176 948 OFFCURVE",
"166 992 QCURVE SMOOTH",
"140 1108 OFFCURVE",
"140 1182 QCURVE SMOOTH",
"140 1311 OFFCURVE",
"213 1312 QCURVE SMOOTH",
"237 1312 OFFCURVE",
"293 1290 OFFCURVE",
"336 1264 OFFCURVE",
"381 1230 OFFCURVE",
"396 1216 OFFCURVE",
"400 1212 QCURVE",
"531 1354 LINE",
"498 1370 LINE",
"466 1387 OFFCURVE",
"366 1420 OFFCURVE",
"330 1420 QCURVE SMOOTH",
"204 1420 OFFCURVE",
"23 1194 OFFCURVE",
"23 988 QCURVE SMOOTH",
"23 879 OFFCURVE",
"52 751 QCURVE SMOOTH",
"71 666 LINE"
);
}
);
width = 978;
}
);
note = f;
unicode = 0066;
},
{
glyphname = g;
lastChange = "2018-07-29 15:04:19 +0000";
layers = (
{
layerId = "3C317020-980B-44E8-A79B-F384FFC5B400";
paths = (
{
closed = 1;
nodes = (
"208 950 OFFCURVE",
"50 908 OFFCURVE",
"11 879 QCURVE",
"10 878 OFFCURVE",
"-21 850 OFFCURVE",
"-32 839 OFFCURVE",
"-61 806 OFFCURVE",
"-76 784 OFFCURVE",
"-98 746 OFFCURVE",
"-109 712 OFFCURVE",
"-118 667 OFFCURVE",
"-118 644 QCURVE SMOOTH",
"-118 608 OFFCURVE",
"-110 576 QCURVE SMOOTH",
"-91 495 OFFCURVE",
"86 318 OFFCURVE",
"169 318 QCURVE",
"135 196 LINE",
"195 196 OFFCURVE",
"395 144 OFFCURVE",
"602 59 OFFCURVE",
"765 -69 OFFCURVE",
"780 -135 QCURVE",
"791 -174 LINE",
"791 -187 LINE SMOOTH",
"791 -236 OFFCURVE",
"651 -309 OFFCURVE",
"571 -309 QCURVE SMOOTH",
"433 -309 OFFCURVE",
"220 -153 OFFCURVE",
"190 -26 QCURVE SMOOTH",
"184 -2 OFFCURVE",
"184 14 QCURVE SMOOTH",
"184 51 OFFCURVE",
"210 110 QCURVE",
"212 112 OFFCURVE",
"213 116 OFFCURVE",
"211 119 OFFCURVE",
"209 119 QCURVE SMOOTH",
"201 119 OFFCURVE",
"186 114 QCURVE",
"185 113 OFFCURVE",
"153 87 OFFCURVE",
"141 78 OFFCURVE",
"110 49 OFFCURVE",
"96 30 OFFCURVE",
"72 -4 OFFCURVE",
"61 -33 OFFCURVE",
"52 -72 OFFCURVE",
"52 -92 QCURVE SMOOTH",
"52 -114 OFFCURVE",
"58 -140 QCURVE SMOOTH",
"67 -178 OFFCURVE",
"145 -277 OFFCURVE",
"257 -367 OFFCURVE",
"412 -429 OFFCURVE",
"488 -429 QCURVE SMOOTH",
"650 -429 OFFCURVE",
"864 -230 OFFCURVE",
"864 -84 QCURVE SMOOTH",
"864 -41 OFFCURVE",
"854 0 QCURVE SMOOTH",
"849 24 OFFCURVE",
"797 83 OFFCURVE",
"694 150 OFFCURVE",
"560 205 OFFCURVE",
"364 241 OFFCURVE",
"255 241 QCURVE",
"243 294 LINE",
"481 294 OFFCURVE",
"689 423 OFFCURVE",
"689 561 QCURVE SMOOTH",
"689 623 OFFCURVE",
"671 700 QCURVE SMOOTH",
"663 734 OFFCURVE",
"627 798 OFFCURVE",
"599 832 OFFCURVE",
"599 836 OFFCURVE",
"601 836 QCURVE SMOOTH",
"614 836 OFFCURVE",
"650 819 QCURVE",
"687 944 LINE",
"622 927 OFFCURVE",
"526 927 QCURVE SMOOTH",
"471 927 OFFCURVE",
"348 938 OFFCURVE",
"266 950 OFFCURVE",
"260 950 QCURVE SMOOTH"
);
},
{
closed = 1;
nodes = (
"91 879 OFFCURVE",
"150 879 QCURVE SMOOTH",
"293 879 OFFCURVE",
"525 717 OFFCURVE",
"556 581 QCURVE SMOOTH",
"565 542 LINE SMOOTH",
"568 530 OFFCURVE",
"568 516 QCURVE SMOOTH",
"568 459 OFFCURVE",
"482 362 OFFCURVE",
"414 362 QCURVE SMOOTH",
"281 362 OFFCURVE",
"52 558 OFFCURVE",
"22 690 QCURVE SMOOTH",
"16 716 OFFCURVE",
"16 731 QCURVE SMOOTH",
"16 767 OFFCURVE",
"41 826 QCURVE"
);
}
);
width = 989;
}
);
note = g;
unicode = 0067;
},
{
glyphname = h;
lastChange = "2018-07-29 15:04:19 +0000";
layers = (
{
layerId = "3C317020-980B-44E8-A79B-F384FFC5B400";
paths = (
{
closed = 1;
nodes = (
"211 100 OFFCURVE",
"298 309 OFFCURVE",
"395 505 OFFCURVE",
"490 629 OFFCURVE",
"523 629 QCURVE SMOOTH",
"560 629 OFFCURVE",
"627 590 OFFCURVE",
"684 511 OFFCURVE",
"730 424 OFFCURVE",
"778 295 OFFCURVE",
"812 193 OFFCURVE",
"859 45 OFFCURVE",
"875 0 QCURVE",
"1034 132 LINE",
"1004 233 OFFCURVE",
"952 394 OFFCURVE",
"883 595 OFFCURVE",
"819 743 OFFCURVE",
"751 875 OFFCURVE",
"684 944 OFFCURVE",
"654 944 QCURVE SMOOTH",
"609 944 OFFCURVE",
"506 836 OFFCURVE",
"423 696 OFFCURVE",
"301 495 OFFCURVE",
"253 435 QCURVE",
"20 1347 LINE SMOOTH",
"3 1420 OFFCURVE",
"-32 1420 QCURVE SMOOTH",
"-53 1420 OFFCURVE",
"-76 1397 QCURVE",
"-320 1210 LINE",
"-290 1182 LINE",
"-250 1210 OFFCURVE",
"-211 1210 QCURVE SMOOTH",
"-138 1210 OFFCURVE",
"-109 1089 QCURVE SMOOTH",
"176 0 LINE"
);
}
);
width = 1172;
}
);
note = h;
unicode = 0068;
},
{
glyphname = i;
lastChange = "2018-07-29 15:04:19 +0000";
layers = (
{
layerId = "3C317020-980B-44E8-A79B-F384FFC5B400";
paths = (
{
closed = 1;
nodes = (
"-119 1303 LINE",
"-144 1277 OFFCURVE",
"-144 1251 QCURVE SMOOTH",
"-144 1223 OFFCURVE",
"-103 1173 QCURVE SMOOTH",
"-57 1117 OFFCURVE",
"-6 1117 QCURVE SMOOTH",
"2 1117 OFFCURVE",
"10 1121 QCURVE",
"141 1224 LINE",
"28 1312 OFFCURVE",
"-18 1392 QCURVE"
);
},
{
closed = 1;
nodes = (
"195 0 LINE",
"359 120 LINE",
"184 879 LINE SMOOTH",
"167 952 OFFCURVE",
"132 952 QCURVE SMOOTH",
"112 952 OFFCURVE",
"89 927 QCURVE",
"-156 742 LINE",
"-126 714 LINE",
"-86 742 OFFCURVE",
"-47 742 QCURVE SMOOTH",
"26 742 OFFCURVE",
"55 621 QCURVE SMOOTH"
);
}
);
width = 558;
}
);
note = i;
unicode = 0069;
},
{
glyphname = j;
lastChange = "2018-07-29 15:04:19 +0000";
layers = (
{
layerId = "3C317020-980B-44E8-A79B-F384FFC5B400";
paths = (
{
closed = 1;
nodes = (
"-153 1303 LINE",
"-178 1277 OFFCURVE",
"-178 1251 QCURVE SMOOTH",
"-178 1223 OFFCURVE",
"-137 1173 QCURVE SMOOTH",
"-91 1117 OFFCURVE",
"-40 1117 QCURVE SMOOTH",
"-32 1117 OFFCURVE",
"-24 1121 QCURVE",
"107 1224 LINE",
"-6 1312 OFFCURVE",
"-52 1392 QCURVE"
);
},
{
closed = 1;
nodes = (
"293 -414 LINE",
"458 -285 LINE",
"191 870 LINE SMOOTH",
"174 943 OFFCURVE",
"139 943 QCURVE SMOOTH",
"119 943 OFFCURVE",
"96 918 QCURVE",
"-149 733 LINE",
"-119 705 LINE",
"-77 733 OFFCURVE",
"-40 733 QCURVE SMOOTH",
"33 733 OFFCURVE",
"62 612 QCURVE SMOOTH"
);
}
);
width = 526;
}
);
note = j;
unicode = 006A;
},
{
glyphname = k;
lastChange = "2018-07-29 15:04:19 +0000";
layers = (
{
layerId = "3C317020-980B-44E8-A79B-F384FFC5B400";
paths = (
{
closed = 1;
nodes = (
"332 812 OFFCURVE",
"402 761 OFFCURVE",
"411 722 QCURVE SMOOTH",
"414 710 OFFCURVE",
"414 697 QCURVE SMOOTH",
"414 680 OFFCURVE",
"406 647 OFFCURVE",
"383 609 OFFCURVE",
"368 585 OFFCURVE",
"329 543 OFFCURVE",
"316 529 OFFCURVE",
"268 483 OFFCURVE",
"265 480 QCURVE",
"663 66 LINE",
"669 61 OFFCURVE",
"694 39 OFFCURVE",
"708 27 OFFCURVE",
"729 13 OFFCURVE",
"747 6 OFFCURVE",
"755 6 QCURVE SMOOTH",
"771 6 OFFCURVE",
"787 22 QCURVE SMOOTH",
"929 160 LINE",
"923 157 OFFCURVE",
"914 157 QCURVE SMOOTH",
"875 157 OFFCURVE",
"799 214 QCURVE",
"764 246 OFFCURVE",
"601 388 OFFCURVE",
"478 505 OFFCURVE",
"420 572 QCURVE",
"426 578 OFFCURVE",
"468 619 OFFCURVE",
"485 636 OFFCURVE",
"524 676 OFFCURVE",
"544 699 OFFCURVE",
"574 735 OFFCURVE",
"590 761 OFFCURVE",
"608 792 OFFCURVE",
"615 820 OFFCURVE",
"615 832 QCURVE SMOOTH",
"615 836 OFFCURVE",
"613 846 QCURVE SMOOTH",
"589 950 OFFCURVE",
"405 950 QCURVE",
"289 812 LINE"
);
},
{
closed = 1;
nodes = (
"162 0 LINE",
"316 130 LINE",
"34 1353 LINE SMOOTH",
"17 1426 OFFCURVE",
"-18 1426 QCURVE SMOOTH",
"-30 1426 OFFCURVE",
"-61 1401 QCURVE SMOOTH",
"-307 1216 LINE",
"-274 1188 LINE",
"-234 1216 OFFCURVE",
"-198 1216 QCURVE SMOOTH",
"-123 1216 OFFCURVE",
"-96 1095 QCURVE SMOOTH"
);
}
);
width = 1074;
}
);
note = k;
unicode = 006B;
},
{
glyphname = l;
lastChange = "2018-07-29 15:04:19 +0000";
layers = (
{
layerId = "3C317020-980B-44E8-A79B-F384FFC5B400";
paths = (
{
closed = 1;
nodes = (
"155 0 LINE",
"320 129 LINE",
"38 1347 LINE SMOOTH",
"21 1420 OFFCURVE",
"-14 1420 QCURVE SMOOTH",
"-34 1420 OFFCURVE",
"-57 1395 QCURVE",
"-302 1210 LINE",
"-273 1182 LINE",
"-233 1210 OFFCURVE",
"-193 1210 QCURVE SMOOTH",
"-120 1210 OFFCURVE",
"-91 1089 QCURVE SMOOTH"
);
}
);
width = 483;
}
);
note = l;
unicode = 006C;
},
{
glyphname = m;
lastChange = "2018-07-29 15:04:19 +0000";
layers = (
{
layerId = "3C317020-980B-44E8-A79B-F384FFC5B400";
paths = (
{
closed = 1;
nodes = (
"112 447 OFFCURVE",
"167 208 QCURVE SMOOTH",
"214 0 LINE",
"231 42 OFFCURVE",
"284 185 OFFCURVE",
"324 291 OFFCURVE",
"378 421 OFFCURVE",
"430 513 OFFCURVE",
"490 596 OFFCURVE",
"557 638 OFFCURVE",
"593 638 QCURVE SMOOTH",
"628 638 OFFCURVE",
"693 599 OFFCURVE",
"751 522 OFFCURVE",
"800 435 OFFCURVE",
"852 313 OFFCURVE",
"891 212 OFFCURVE",
"942 78 OFFCURVE",
"960 36 QCURVE",
"972 72 OFFCURVE",
"1020 227 OFFCURVE",
"1050 319 OFFCURVE",
"1098 456 OFFCURVE",
"1139 538 OFFCURVE",
"1191 621 OFFCURVE",
"1247 660 OFFCURVE",
"1276 660 QCURVE SMOOTH",
"1364 660 OFFCURVE",
"1450 487 QCURVE SMOOTH",
"1506 375 OFFCURVE",
"1598 89 QCURVE SMOOTH",
"1617 28 OFFCURVE",
"1626 0 QCURVE",
"1788 128 LINE",
"1772 175 OFFCURVE",
"1709 372 OFFCURVE",
"1668 494 OFFCURVE",
"1606 669 OFFCURVE",
"1557 779 OFFCURVE",
"1500 886 OFFCURVE",
"1446 938 OFFCURVE",
"1421 938 QCURVE SMOOTH",
"1375 938 OFFCURVE",
"1292 889 OFFCURVE",
"1230 815 OFFCURVE",
"1160 693 OFFCURVE",
"1109 585 OFFCURVE",
"1033 426 OFFCURVE",
"1004 372 QCURVE",
"989 417 OFFCURVE",
"944 569 OFFCURVE",
"911 678 OFFCURVE",
"863 808 OFFCURVE",
"820 889 OFFCURVE",
"761 944 OFFCURVE",
"730 944 QCURVE SMOOTH",
"651 944 OFFCURVE",
"518 737 QCURVE SMOOTH",
"472 665 OFFCURVE",
"329 412 QCURVE",
"176 866 LINE",
"156 908 OFFCURVE",
"127 941 OFFCURVE",
"111 941 QCURVE SMOOTH",
"91 941 OFFCURVE",
"68 916 QCURVE",
"-178 731 LINE",
"-147 703 LINE",
"-107 731 OFFCURVE",
"-69 731 QCURVE SMOOTH",
"6 731 OFFCURVE",
"51 612 QCURVE SMOOTH"
);
}
);
width = 1929;
}
);
note = m;
unicode = 006D;
},
{
glyphname = n;
lastChange = "2018-07-29 15:04:19 +0000";
layers = (
{
layerId = "3C317020-980B-44E8-A79B-F384FFC5B400";
paths = (
{
closed = 1;
nodes = (
"1067 256 LINE",
"1058 284 OFFCURVE",
"1022 395 OFFCURVE",
"995 477 OFFCURVE",
"955 594 OFFCURVE",
"920 682 OFFCURVE",
"878 782 OFFCURVE",
"838 853 OFFCURVE",
"795 913 OFFCURVE",
"751 944 OFFCURVE",
"730 944 QCURVE SMOOTH",
"651 944 OFFCURVE",
"518 737 QCURVE SMOOTH",
"472 665 OFFCURVE",
"329 412 QCURVE",
"176 866 LINE",
"156 908 OFFCURVE",
"127 941 OFFCURVE",
"111 941 QCURVE SMOOTH",
"91 941 OFFCURVE",
"68 916 QCURVE",
"-178 731 LINE",
"-147 703 LINE",
"-107 731 OFFCURVE",
"-69 731 QCURVE SMOOTH",
"6 731 OFFCURVE",
"51 612 QCURVE SMOOTH",
"112 447 OFFCURVE",
"167 208 QCURVE SMOOTH",
"214 0 LINE",
"314 248 OFFCURVE",
"360 340 QCURVE SMOOTH",
"505 636 OFFCURVE",
"633 636 QCURVE SMOOTH",
"670 636 OFFCURVE",
"741 563 OFFCURVE",
"810 421 OFFCURVE",
"864 288 OFFCURVE",
"937 90 OFFCURVE",
"960 36 QCURVE"
);
}
);
width = 1223;
}
);
note = n;
unicode = 006E;
},
{
glyphname = o;
lastChange = "2018-07-29 15:04:19 +0000";
layers = (
{
layerId = "3C317020-980B-44E8-A79B-F384FFC5B400";
paths = (
{
closed = 1;
nodes = (
"23 746 OFFCURVE",
"131 790 OFFCURVE",
"180 790 QCURVE SMOOTH",
"216 790 OFFCURVE",
"252 762 QCURVE SMOOTH",
"506 556 OFFCURVE",
"565 300 QCURVE SMOOTH",
"570 281 OFFCURVE",
"570 255 QCURVE SMOOTH",
"570 197 OFFCURVE",
"502 122 OFFCURVE",
"444 122 QCURVE SMOOTH",
"363 122 OFFCURVE",
"203 243 OFFCURVE",
"92 423 OFFCURVE",
"70 520 QCURVE SMOOTH",
"64 548 OFFCURVE",
"64 578 QCURVE SMOOTH",
"64 623 LINE",
"64 642 LINE",
"-76 517 OFFCURVE",
"-76 382 QCURVE SMOOTH",
"-76 355 OFFCURVE",
"-70 328 QCURVE SMOOTH",
"-58 276 OFFCURVE",
"10 161 OFFCURVE",
"105 63 OFFCURVE",
"228 0 OFFCURVE",
"288 0 QCURVE SMOOTH",
"396 0 OFFCURVE",
"588 131 OFFCURVE",
"697 331 OFFCURVE",
"697 434 QCURVE SMOOTH",
"697 468 OFFCURVE",
"689 506 QCURVE SMOOTH",
"666 608 OFFCURVE",
"516 811 OFFCURVE",
"325 938 OFFCURVE",
"243 938 QCURVE SMOOTH",
"200 938 OFFCURVE",
"94 879 OFFCURVE",
"11 770 OFFCURVE",
"9 711 QCURVE"
);
}
);
width = 915;
}
);
note = o;
unicode = 006F;
},
{
glyphname = p;
lastChange = "2018-07-29 15:04:19 +0000";
layers = (
{
layerId = "3C317020-980B-44E8-A79B-F384FFC5B400";
paths = (
{
closed = 1;
nodes = (
"291 -429 LINE",
"470 -360 LINE",
"269 510 LINE",
"268 517 OFFCURVE",
"268 531 QCURVE SMOOTH",
"268 585 OFFCURVE",
"315 704 OFFCURVE",
"376 777 OFFCURVE",
"397 777 QCURVE SMOOTH",
"444 777 OFFCURVE",
"575 632 OFFCURVE",
"679 437 OFFCURVE",
"697 360 QCURVE SMOOTH",
"701 343 OFFCURVE",
"701 323 QCURVE SMOOTH",
"701 236 OFFCURVE",
"604 153 QCURVE SMOOTH",
"564 118 OFFCURVE",
"451 48 QCURVE",
"514 56 OFFCURVE",
"662 130 OFFCURVE",
"792 238 OFFCURVE",
"879 384 OFFCURVE",
"879 456 QCURVE SMOOTH",
"879 482 OFFCURVE",
"873 507 QCURVE SMOOTH",
"853 593 OFFCURVE",
"747 792 OFFCURVE",
"604 938 OFFCURVE",
"545 938 QCURVE SMOOTH",
"510 938 OFFCURVE",
"437 907 OFFCURVE",
"377 862 OFFCURVE",
"303 783 OFFCURVE",
"250 719 OFFCURVE",
"212 669 QCURVE",
"167 864 LINE SMOOTH",
"150 938 OFFCURVE",
"114 938 QCURVE SMOOTH",
"97 938 OFFCURVE",
"71 912 QCURVE",
"-174 727 LINE",
"-143 699 LINE",
"-103 727 OFFCURVE",
"-65 727 QCURVE SMOOTH",
"10 727 OFFCURVE",
"37 606 QCURVE SMOOTH"
);
}
);
width = 1099;
}
);
note = p;
unicode = 0070;
},
{
glyphname = q;
lastChange = "2018-07-29 15:04:19 +0000";
layers = (
{
layerId = "3C317020-980B-44E8-A79B-F384FFC5B400";
paths = (
{
closed = 1;
nodes = (
"561 882 OFFCURVE",
"437 918 OFFCURVE",
"340 938 OFFCURVE",
"286 938 QCURVE SMOOTH",
"222 938 OFFCURVE",
"82 834 OFFCURVE",
"-24 681 OFFCURVE",
"-93 500 OFFCURVE",
"-93 426 QCURVE SMOOTH",
"-93 398 OFFCURVE",
"-87 372 QCURVE SMOOTH",
"-74 314 OFFCURVE",
"-18 214 OFFCURVE",
"68 130 OFFCURVE",
"154 65 OFFCURVE",
"215 27 QCURVE",
"293 0 LINE",
"323 0 OFFCURVE",
"344 27 QCURVE SMOOTH",
"460 174 LINE",
"383 146 LINE",
"362 146 OFFCURVE",
"341 156 QCURVE",
"196 284 OFFCURVE",
"55 546 OFFCURVE",
"55 647 QCURVE SMOOTH",
"55 709 OFFCURVE",
"106 783 OFFCURVE",
"148 783 QCURVE SMOOTH",
"204 783 OFFCURVE",
"284 773 OFFCURVE",
"341 751 OFFCURVE",
"374 732 OFFCURVE",
"425 695 OFFCURVE",
"444 684 QCURVE",
"705 -447 LINE",
"887 -407 OFFCURVE",
"1059 -318 QCURVE",
"1036 -318 LINE SMOOTH",
"1005 -318 OFFCURVE",
"960 -313 OFFCURVE",
"903 -297 OFFCURVE",
"866 -258 OFFCURVE",
"859 -228 QCURVE SMOOTH",
"604 873 LINE"
);
}
);
width = 1007;
}
);
note = q;
unicode = 0071;
},
{
glyphname = r;
lastChange = "2018-07-29 15:04:19 +0000";
layers = (
{
layerId = "3C317020-980B-44E8-A79B-F384FFC5B400";
paths = (
{
closed = 1;
nodes = (
"167 870 LINE SMOOTH",
"150 943 OFFCURVE",
"115 943 QCURVE SMOOTH",
"95 943 OFFCURVE",
"72 918 QCURVE",
"-173 733 LINE",
"-143 705 LINE",
"-101 733 OFFCURVE",
"-64 733 QCURVE SMOOTH",
"9 733 OFFCURVE",
"38 612 QCURVE SMOOTH",
"179 0 LINE",
"349 123 LINE",
"248 558 LINE",
"264 622 OFFCURVE",
"329 741 OFFCURVE",
"383 741 OFFCURVE",
"441 681 OFFCURVE",
"478 627 QCURVE",
"623 768 LINE",
"535 938 OFFCURVE",
"475 938 QCURVE SMOOTH",
"449 938 OFFCURVE",
"419 913 OFFCURVE",
"388 867 OFFCURVE",
"375 855 QCURVE",
"218 651 LINE"
);
}
);
width = 894;
}
);
note = r;
unicode = 0072;
},
{
glyphname = s;
lastChange = "2018-07-29 15:04:19 +0000";
layers = (
{
layerId = "3C317020-980B-44E8-A79B-F384FFC5B400";
paths = (
{
closed = 1;
nodes = (
"310 721 OFFCURVE",
"384 777 OFFCURVE",
"428 819 OFFCURVE",
"428 835 QCURVE SMOOTH",
"428 837 LINE",
"427 839 OFFCURVE",
"427 840 QCURVE",
"419 878 OFFCURVE",
"287 938 OFFCURVE",
"231 938 QCURVE SMOOTH",
"181 938 OFFCURVE",
"31 841 OFFCURVE",
"-90 678 OFFCURVE",
"-90 601 QCURVE SMOOTH",
"-90 579 OFFCURVE",
"-86 562 QCURVE SMOOTH",
"-78 529 OFFCURVE",
"-18 481 OFFCURVE",
"68 449 OFFCURVE",
"170 419 OFFCURVE",
"273 381 OFFCURVE",
"363 332 OFFCURVE",
"431 251 OFFCURVE",
"443 197 QCURVE",
"444 197 OFFCURVE",
"444 188 QCURVE",
"443 179 LINE",
"443 145 OFFCURVE",
"391 104 OFFCURVE",
"352 104 QCURVE SMOOTH",
"286 104 OFFCURVE",
"182 185 OFFCURVE",
"152 239 QCURVE",
"142 255 OFFCURVE",
"150 277 QCURVE",
"184 305 LINE",
"163 326 LINE",
"159 323 OFFCURVE",
"107 283 OFFCURVE",
"71 250 OFFCURVE",
"25 204 OFFCURVE",
"0 155 OFFCURVE",
"0 133 QCURVE SMOOTH",
"0 117 LINE",
"14 57 OFFCURVE",
"142 0 OFFCURVE",
"218 0 QCURVE SMOOTH",
"289 0 OFFCURVE",
"458 101 OFFCURVE",
"579 265 OFFCURVE",
"579 343 QCURVE SMOOTH",
"579 365 OFFCURVE",
"575 382 QCURVE SMOOTH",
"566 423 OFFCURVE",
"502 481 OFFCURVE",
"415 513 OFFCURVE",
"313 538 OFFCURVE",
"210 567 OFFCURVE",
"121 607 OFFCURVE",
"55 679 OFFCURVE",
"43 730 QCURVE SMOOTH",
"42 734 OFFCURVE",
"42 744 QCURVE SMOOTH",
"42 769 OFFCURVE",
"69 816 OFFCURVE",
"87 816 QCURVE SMOOTH",
"201 816 OFFCURVE",
"292 702 QCURVE"
);
}
);
width = 772;
}
);
note = s;
unicode = 0073;
},
{
glyphname = t;
lastChange = "2018-07-29 15:04:19 +0000";
layers = (
{
layerId = "3C317020-980B-44E8-A79B-F384FFC5B400";
paths = (
{
closed = 1;
nodes = (
"391 169 OFFCURVE",
"373 249 QCURVE SMOOTH",
"217 924 LINE",
"322 924 LINE",
"336 936 OFFCURVE",
"362 967 OFFCURVE",
"379 991 OFFCURVE",
"399 1030 OFFCURVE",
"406 1046 OFFCURVE",
"424 1091 OFFCURVE",
"426 1095 QCURVE",
"165 1095 LINE",
"89 1423 LINE",
"-71 1287 LINE",
"-26 1092 LINE",
"-170 1092 LINE",
"-173 1006 OFFCURVE",
"-230 921 QCURVE",
"13 921 LINE",
"181 193 LINE SMOOTH",
"190 155 OFFCURVE",
"209 97 OFFCURVE",
"226 58 OFFCURVE",
"251 31 OFFCURVE",
"268 17 OFFCURVE",
"299 8 OFFCURVE",
"319 5 OFFCURVE",
"358 2 OFFCURVE",
"370 0 QCURVE",
"422 0 OFFCURVE",
"540 107 OFFCURVE",
"567 162 QCURVE",
"545 207 LINE",
"533 189 OFFCURVE",
"516 171 OFFCURVE",
"480 153 OFFCURVE",
"458 153 QCURVE"
);
}
);
width = 737;
}
);
note = t;
unicode = 0074;
},
{
glyphname = u;
lastChange = "2018-07-29 15:04:19 +0000";
layers = (
{
layerId = "3C317020-980B-44E8-A79B-F384FFC5B400";
paths = (
{
closed = 1;
nodes = (
"81 532 OFFCURVE",
"188 189 OFFCURVE",
"270 0 OFFCURVE",
"313 0 QCURVE SMOOTH",
"366 0 OFFCURVE",
"459 47 OFFCURVE",
"528 121 OFFCURVE",
"587 225 OFFCURVE",
"626 326 OFFCURVE",
"658 441 OFFCURVE",
"675 522 OFFCURVE",
"681 561 QCURVE",
"820 -39 LINE",
"996 112 LINE",
"937 281 OFFCURVE",
"871 566 QCURVE SMOOTH",
"785 949 LINE",
"639 795 LINE",
"648 758 OFFCURVE",
"648 703 QCURVE SMOOTH",
"648 634 OFFCURVE",
"619 478 OFFCURVE",
"568 338 OFFCURVE",
"485 246 OFFCURVE",
"437 246 QCURVE SMOOTH",
"408 246 OFFCURVE",
"354 288 OFFCURVE",
"306 369 OFFCURVE",
"265 461 OFFCURVE",
"223 588 OFFCURVE",
"192 692 OFFCURVE",
"151 827 OFFCURVE",
"138 868 QCURVE",
"122 938 OFFCURVE",
"86 938 QCURVE SMOOTH",
"64 938 OFFCURVE",
"43 916 QCURVE",
"-180 730 LINE",
"-149 702 LINE",
"-109 730 OFFCURVE",
"-71 730 QCURVE SMOOTH",
"-34 730 OFFCURVE",
"21 686 OFFCURVE",
"45 615 QCURVE"
);
}
);
width = 1133;
}
);
note = u;
unicode = 0075;
},
{
glyphname = v;
lastChange = "2018-07-29 15:04:19 +0000";
layers = (
{
layerId = "3C317020-980B-44E8-A79B-F384FFC5B400";
paths = (
{
closed = 1;
nodes = (
"-191 778 LINE",
"-172 792 OFFCURVE",
"-150 792 QCURVE SMOOTH",
"-133 792 OFFCURVE",
"-124 784 QCURVE",
"-32 714 OFFCURVE",
"134 538 OFFCURVE",
"286 315 OFFCURVE",
"392 137 OFFCURVE",
"467 0 QCURVE",
"521 0 LINE",
"576 158 OFFCURVE",
"742 559 OFFCURVE",
"842 798 OFFCURVE",
"842 822 QCURVE SMOOTH",
"842 826 LINE SMOOTH",
"842 833 OFFCURVE",
"841 836 QCURVE",
"830 884 OFFCURVE",
"716 944 OFFCURVE",
"659 944 QCURVE SMOOTH",
"641 944 OFFCURVE",
"602 924 OFFCURVE",
"551 872 OFFCURVE",
"519 838 OFFCURVE",
"450 754 OFFCURVE",
"438 740 QCURVE",
"469 712 LINE",
"470 714 OFFCURVE",
"484 734 OFFCURVE",
"489 740 OFFCURVE",
"502 756 OFFCURVE",
"510 762 OFFCURVE",
"522 771 OFFCURVE",
"534 774 OFFCURVE",
"541 774 QCURVE SMOOTH",
"546 774 LINE SMOOTH",
"602 774 OFFCURVE",
"672 681 OFFCURVE",
"672 617 QCURVE SMOOTH",
"672 582 OFFCURVE",
"662 552 QCURVE",
"550 264 LINE",
"496 336 OFFCURVE",
"245 718 OFFCURVE",
"75 938 OFFCURVE",
"34 938 QCURVE SMOOTH",
"27 938 OFFCURVE",
"17 933 OFFCURVE",
"5 924 OFFCURVE",
"0 922 QCURVE",
"-209 798 LINE"
);
}
);
width = 1128;
}
);
note = v;
unicode = 0076;
},
{
glyphname = w;
lastChange = "2018-07-29 15:04:19 +0000";
layers = (
{
layerId = "3C317020-980B-44E8-A79B-F384FFC5B400";
paths = (
{
closed = 1;
nodes = (
"548 150 OFFCURVE",
"647 486 OFFCURVE",
"688 597 OFFCURVE",
"710 597 QCURVE SMOOTH",
"759 597 OFFCURVE",
"936 419 OFFCURVE",
"1129 144 OFFCURVE",
"1211 -6 QCURVE",
"1265 -6 LINE",
"1321 153 OFFCURVE",
"1487 554 OFFCURVE",
"1587 793 OFFCURVE",
"1587 817 QCURVE SMOOTH",
"1587 820 LINE",
"1586 822 OFFCURVE",
"1586 829 OFFCURVE",
"1585 830 QCURVE",
"1574 878 OFFCURVE",
"1460 938 OFFCURVE",
"1403 938 QCURVE SMOOTH",
"1385 938 OFFCURVE",
"1347 918 OFFCURVE",
"1294 865 OFFCURVE",
"1265 834 OFFCURVE",
"1193 746 OFFCURVE",
"1183 734 QCURVE",
"1213 706 LINE",
"1215 709 OFFCURVE",
"1231 731 OFFCURVE",
"1237 739 OFFCURVE",
"1253 755 OFFCURVE",
"1263 762 OFFCURVE",
"1278 768 OFFCURVE",
"1286 768 QCURVE SMOOTH",
"1291 768 LINE SMOOTH",
"1347 768 OFFCURVE",
"1416 675 OFFCURVE",
"1416 611 QCURVE SMOOTH",
"1416 576 OFFCURVE",
"1406 546 QCURVE",
"1294 258 LINE",
"1256 308 OFFCURVE",
"1114 508 OFFCURVE",
"1011 649 OFFCURVE",
"892 799 OFFCURVE",
"800 879 OFFCURVE",
"771 879 QCURVE SMOOTH",
"747 879 OFFCURVE",
"704 804 OFFCURVE",
"640 633 OFFCURVE",
"624 597 QCURVE",
"513 309 LINE",
"457 384 OFFCURVE",
"227 739 OFFCURVE",
"73 938 OFFCURVE",
"32 938 QCURVE SMOOTH",
"25 938 OFFCURVE",
"16 933 OFFCURVE",
"5 925 OFFCURVE",
"0 922 QCURVE SMOOTH",
"-211 798 LINE",
"-193 778 LINE",
"-174 792 OFFCURVE",
"-152 792 QCURVE SMOOTH",
"-135 792 OFFCURVE",
"-126 784 QCURVE",
"-107 779 OFFCURVE",
"-88 770 QCURVE SMOOTH",
"61 699 OFFCURVE",
"261 366 QCURVE SMOOTH",
"307 291 OFFCURVE",
"464 3 QCURVE",
"497 3 LINE"
);
}
);
width = 1871;
}
);
note = w;
unicode = 0077;
},
{
glyphname = x;
lastChange = "2018-07-29 15:04:19 +0000";
layers = (
{
layerId = "3C317020-980B-44E8-A79B-F384FFC5B400";
paths = (
{
closed = 1;
nodes = (
"934 162 LINE",
"907 130 LINE",
"902 128 OFFCURVE",
"891 128 QCURVE SMOOTH",
"858 128 OFFCURVE",
"766 186 OFFCURVE",
"727 226 QCURVE",
"457 536 LINE",
"715 816 LINE",
"739 836 OFFCURVE",
"739 854 QCURVE SMOOTH",
"739 879 OFFCURVE",
"681 910 QCURVE",
"561 958 LINE",
"460 852 LINE",
"561 783 OFFCURVE",
"561 730 QCURVE SMOOTH",
"561 716 OFFCURVE",
"549 687 OFFCURVE",
"520 653 OFFCURVE",
"496 629 OFFCURVE",
"446 582 OFFCURVE",
"432 568 QCURVE",
"169 892 LINE SMOOTH",
"130 938 OFFCURVE",
"107 938 QCURVE SMOOTH",
"93 938 OFFCURVE",
"79 928 QCURVE",
"-166 774 LINE",
"-148 758 LINE",
"-90 789 OFFCURVE",
"-39 789 QCURVE SMOOTH",
"24 789 OFFCURVE",
"61 744 QCURVE SMOOTH",
"332 436 LINE",
"63 148 LINE SMOOTH",
"44 128 OFFCURVE",
"44 108 QCURVE SMOOTH",
"44 78 OFFCURVE",
"82 56 QCURVE",
"91 50 OFFCURVE",
"111 39 OFFCURVE",
"127 30 OFFCURVE",
"150 23 OFFCURVE",
"164 18 OFFCURVE",
"190 12 OFFCURVE",
"201 10 OFFCURVE",
"230 5 OFFCURVE",
"238 4 OFFCURVE",
"270 0 OFFCURVE",
"273 0 QCURVE",
"397 104 LINE",
"328 136 LINE",
"251 190 OFFCURVE",
"251 244 QCURVE SMOOTH",
"251 270 OFFCURVE",
"284 324 OFFCURVE",
"344 390 OFFCURVE",
"355 406 QCURVE",
"677 28 LINE SMOOTH",
"707 -6 OFFCURVE",
"749 -6 QCURVE SMOOTH",
"768 -6 OFFCURVE",
"833 35 OFFCURVE",
"890 84 OFFCURVE",
"948 136 QCURVE"
);
}
);
width = 1087;
}
);
note = x;
unicode = 0078;
},
{
glyphname = y;
lastChange = "2018-07-29 15:04:19 +0000";
layers = (
{
layerId = "3C317020-980B-44E8-A79B-F384FFC5B400";
paths = (
{
closed = 1;
nodes = (
"79 526 OFFCURVE",
"185 185 OFFCURVE",
"267 -5 OFFCURVE",
"310 -5 QCURVE SMOOTH",
"363 -5 OFFCURVE",
"452 39 OFFCURVE",
"515 109 OFFCURVE",
"565 209 OFFCURVE",
"596 308 OFFCURVE",
"618 423 OFFCURVE",
"628 511 OFFCURVE",
"631 556 QCURVE",
"821 -262 LINE",
"821 -275 LINE SMOOTH",
"821 -310 OFFCURVE",
"736 -362 OFFCURVE",
"681 -373 QCURVE",
"693 -444 LINE",
"709 -442 OFFCURVE",
"768 -433 OFFCURVE",
"808 -427 OFFCURVE",
"867 -418 OFFCURVE",
"907 -407 OFFCURVE",
"955 -392 OFFCURVE",
"987 -373 OFFCURVE",
"1015 -349 OFFCURVE",
"1029 -318 OFFCURVE",
"1029 -300 QCURVE SMOOTH",
"1029 -290 OFFCURVE",
"1026 -276 QCURVE",
"988 -171 OFFCURVE",
"881 300 QCURVE SMOOTH",
"734 944 LINE",
"589 790 LINE",
"597 757 OFFCURVE",
"597 699 QCURVE SMOOTH",
"597 606 OFFCURVE",
"556 396 OFFCURVE",
"478 241 OFFCURVE",
"434 241 QCURVE SMOOTH",
"405 241 OFFCURVE",
"351 283 OFFCURVE",
"303 364 OFFCURVE",
"262 456 OFFCURVE",
"220 583 OFFCURVE",
"189 687 OFFCURVE",
"148 822 OFFCURVE",
"135 863 QCURVE",
"118 935 OFFCURVE",
"83 935 QCURVE SMOOTH",
"63 935 OFFCURVE",
"40 911 QCURVE",
"-182 725 LINE",
"-152 697 LINE",
"-112 725 OFFCURVE",
"-73 725 QCURVE SMOOTH",
"-36 725 OFFCURVE",
"18 681 OFFCURVE",
"42 610 QCURVE"
);
}
);
width = 1086;
}
);
note = y;
unicode = 0079;
},
{
glyphname = z;
lastChange = "2018-07-29 15:04:19 +0000";
layers = (
{
layerId = "3C317020-980B-44E8-A79B-F384FFC5B400";
paths = (
{
closed = 1;
nodes = (
"-151 904 OFFCURVE",
"-151 815 QCURVE SMOOTH",
"-151 804 OFFCURVE",
"-148 792 QCURVE",
"-143 768 OFFCURVE",
"-105 753 OFFCURVE",
"-72 753 QCURVE SMOOTH",
"278 753 LINE",
"64 237 LINE",
"59 219 OFFCURVE",
"22 148 OFFCURVE",
"22 122 QCURVE SMOOTH",
"22 106 OFFCURVE",
"26 90 QCURVE SMOOTH",
"33 61 OFFCURVE",
"89 23 OFFCURVE",
"185 6 OFFCURVE",
"275 0 OFFCURVE",
"339 0 QCURVE SMOOTH",
"479 0 LINE",
"613 201 LINE",
"580 201 OFFCURVE",
"449 190 OFFCURVE",
"415 190 QCURVE SMOOTH",
"366 190 OFFCURVE",
"322 198 QCURVE",
"255 217 OFFCURVE",
"199 276 OFFCURVE",
"199 328 QCURVE SMOOTH",
"199 356 OFFCURVE",
"207 399 QCURVE",
"225 457 OFFCURVE",
"272 573 OFFCURVE",
"334 698 OFFCURVE",
"377 781 OFFCURVE",
"459 928 OFFCURVE",
"476 960 QCURVE",
"320 927 OFFCURVE",
"157 927 QCURVE SMOOTH",
"95 927 OFFCURVE",
"22 978 OFFCURVE",
"8 1038 QCURVE"
);
}
);
width = 782;
}
);
note = z;
unicode = 007A;
},
{
glyphname = braceleft;
lastChange = "2018-07-29 15:04:19 +0000";
layers = (
{
layerId = "3C317020-980B-44E8-A79B-F384FFC5B400";
paths = (
{
closed = 1;
nodes = (
"283 362 LINE SMOOTH",
"261 458 OFFCURVE",
"142 563 OFFCURVE",
"50 592 QCURVE SMOOTH",
"-32 618 LINE",
"40 640 LINE SMOOTH",
"104 659 OFFCURVE",
"150 711 QCURVE SMOOTH",
"176 742 OFFCURVE",
"176 794 QCURVE SMOOTH",
"176 826 OFFCURVE",
"167 866 QCURVE SMOOTH",
"99 1161 LINE SMOOTH",
"89 1205 OFFCURVE",
"89 1240 QCURVE SMOOTH",
"89 1348 OFFCURVE",
"187 1348 QCURVE SMOOTH",
"271 1348 LINE",
"248 1445 LINE",
"78 1445 LINE SMOOTH",
"42 1445 OFFCURVE",
"-31 1412 OFFCURVE",
"-89 1327 OFFCURVE",
"-89 1266 QCURVE SMOOTH",
"-89 1235 OFFCURVE",
"-80 1196 QCURVE SMOOTH",
"-9 889 LINE SMOOTH",
"0 853 OFFCURVE",
"0 834 QCURVE SMOOTH",
"0 763 OFFCURVE",
"-87 680 OFFCURVE",
"-144 671 QCURVE",
"-118 558 LINE",
"-45 548 OFFCURVE",
"96 434 OFFCURVE",
"118 340 QCURVE SMOOTH",
"188 33 LINE SMOOTH",
"203 -32 OFFCURVE",
"273 -134 OFFCURVE",
"356 -189 OFFCURVE",
"432 -217 OFFCURVE",
"462 -217 QCURVE SMOOTH",
"632 -217 LINE",
"609 -119 LINE",
"525 -119 LINE SMOOTH",
"394 -119 OFFCURVE",
"351 68 QCURVE SMOOTH"
);
}
);
width = 716;
}
);
note = braceleft;
unicode = 007B;
},
{
glyphname = bar;
lastChange = "2018-07-29 15:04:19 +0000";
layers = (
{
layerId = "3C317020-980B-44E8-A79B-F384FFC5B400";
paths = (
{
closed = 1;
nodes = (
"-114 1460 LINE",
"-241 1460 LINE",
"96 0 LINE",
"223 0 LINE"
);
}
);
width = 357;
}
);
note = bar;
unicode = 007C;
},
{
glyphname = braceright;
lastChange = "2018-07-29 15:04:19 +0000";
layers = (
{
layerId = "3C317020-980B-44E8-A79B-F384FFC5B400";
paths = (
{
closed = 1;
nodes = (
"62 1196 LINE SMOOTH",
"48 1258 OFFCURVE",
"-20 1356 OFFCURVE",
"-99 1409 OFFCURVE",
"-172 1435 OFFCURVE",
"-200 1435 QCURVE SMOOTH",
"-360 1435 LINE",
"-343 1358 LINE",
"-269 1358 LINE SMOOTH",
"-128 1358 OFFCURVE",
"-82 1161 QCURVE SMOOTH",
"-14 866 LINE SMOOTH",
"7 774 OFFCURVE",
"122 674 OFFCURVE",
"211 645 QCURVE SMOOTH",
"326 608 LINE",
"224 578 LINE SMOOTH",
"161 560 OFFCURVE",
"118 511 QCURVE SMOOTH",
"93 482 OFFCURVE",
"93 431 QCURVE SMOOTH",
"93 403 OFFCURVE",
"102 362 QCURVE SMOOTH",
"170 68 LINE SMOOTH",
"181 24 OFFCURVE",
"181 -14 QCURVE SMOOTH",
"181 -129 OFFCURVE",
"75 -129 QCURVE SMOOTH",
"0 -129 LINE",
"19 -207 LINE",
"181 -207 LINE SMOOTH",
"205 -207 OFFCURVE",
"257 -188 OFFCURVE",
"306 -149 OFFCURVE",
"338 -79 OFFCURVE",
"338 -34 QCURVE SMOOTH",
"338 0 OFFCURVE",
"330 33 QCURVE SMOOTH",
"260 340 LINE SMOOTH",
"253 369 OFFCURVE",
"253 400 QCURVE SMOOTH",
"253 470 OFFCURVE",
"334 555 OFFCURVE",
"391 567 QCURVE",
"369 663 LINE",
"293 677 OFFCURVE",
"155 794 OFFCURVE",
"133 889 QCURVE SMOOTH"
);
}
);
width = 631;
}
);
note = braceright;
unicode = 007D;
},
{
glyphname = asciitilde;
lastChange = "2018-07-29 15:04:19 +0000";
layers = (
{
layerId = "3C317020-980B-44E8-A79B-F384FFC5B400";
paths = (
{
closed = 1;
nodes = (
"452 512 OFFCURVE",
"327 555 OFFCURVE",
"221 608 OFFCURVE",
"84 651 OFFCURVE",
"28 651 QCURVE SMOOTH",
"-1 651 OFFCURVE",
"-47 642 OFFCURVE",
"-99 614 OFFCURVE",
"-142 554 OFFCURVE",
"-156 508 QCURVE",
"-92 412 LINE",
"-61 475 OFFCURVE",
"9 524 OFFCURVE",
"55 524 QCURVE SMOOTH",
"99 524 OFFCURVE",
"224 481 OFFCURVE",
"331 428 OFFCURVE",
"468 385 OFFCURVE",
"523 385 QCURVE SMOOTH",
"552 385 OFFCURVE",
"597 394 OFFCURVE",
"651 421 OFFCURVE",
"693 481 OFFCURVE",
"707 527 QCURVE",
"644 624 LINE",
"611 560 OFFCURVE",
"543 512 OFFCURVE",
"497 512 QCURVE SMOOTH"
);
}
);
width = 938;
}
);
note = asciitilde;
unicode = 007E;
},
{
glyphname = dotnosp;
lastChange = "2018-07-29 15:04:19 +0000";
layers = (
{
layerId = "3C317020-980B-44E8-A79B-F384FFC5B400";
paths = (
{
closed = 1;
nodes = (
"-578 1308 OFFCURVE",
"-549 1337 OFFCURVE",
"-549 1363 QCURVE SMOOTH",
"-549 1388 OFFCURVE",
"-562 1417 QCURVE SMOOTH",
"-583 1463 OFFCURVE",
"-664 1525 OFFCURVE",
"-704 1525 QCURVE SMOOTH",
"-730 1525 OFFCURVE",
"-760 1496 OFFCURVE",
"-760 1471 QCURVE SMOOTH",
"-760 1448 OFFCURVE",
"-746 1417 QCURVE SMOOTH",
"-725 1370 OFFCURVE",
"-643 1308 OFFCURVE",
"-604 1308 QCURVE SMOOTH"
);
}
);
width = 0;
}
);
note = dotnosp;
unicode = 0307;
},
{
glyphname = dieresisnosp;
lastChange = "2018-07-29 15:04:19 +0000";
layers = (
{
layerId = "3C317020-980B-44E8-A79B-F384FFC5B400";
paths = (
{
closed = 1;
nodes = (
"-792 1310 OFFCURVE",
"-763 1339 OFFCURVE",
"-763 1364 QCURVE SMOOTH",
"-763 1388 OFFCURVE",
"-776 1417 QCURVE SMOOTH",
"-797 1462 OFFCURVE",
"-876 1523 OFFCURVE",
"-915 1523 QCURVE SMOOTH",
"-941 1523 OFFCURVE",
"-970 1495 OFFCURVE",
"-970 1470 QCURVE SMOOTH",
"-970 1446 OFFCURVE",
"-957 1417 QCURVE SMOOTH",
"-936 1372 OFFCURVE",
"-857 1310 OFFCURVE",
"-817 1310 QCURVE SMOOTH"
);
},
{
closed = 1;
nodes = (
"-367 1310 OFFCURVE",
"-338 1339 OFFCURVE",
"-338 1365 QCURVE SMOOTH",
"-338 1390 OFFCURVE",
"-351 1417 QCURVE SMOOTH",
"-372 1462 OFFCURVE",
"-451 1523 OFFCURVE",
"-491 1523 QCURVE SMOOTH",
"-516 1523 OFFCURVE",
"-545 1495 OFFCURVE",
"-545 1470 QCURVE SMOOTH",
"-545 1446 OFFCURVE",
"-532 1417 QCURVE SMOOTH",
"-512 1373 OFFCURVE",
"-433 1310 OFFCURVE",
"-393 1310 QCURVE SMOOTH"
);
}
);
width = 0;
}
);
note = dieresisnosp;
unicode = 0308;
},
{
glyphname = ringnosp;
lastChange = "2018-07-29 15:04:19 +0000";
layers = (
{
layerId = "3C317020-980B-44E8-A79B-F384FFC5B400";
paths = (
{
closed = 1;
nodes = (
"-523 1234 OFFCURVE",
"-474 1285 OFFCURVE",
"-474 1328 QCURVE SMOOTH",
"-474 1367 OFFCURVE",
"-496 1416 QCURVE SMOOTH",
"-532 1495 OFFCURVE",
"-670 1599 OFFCURVE",
"-738 1599 QCURVE SMOOTH",
"-785 1599 OFFCURVE",
"-834 1549 OFFCURVE",
"-834 1507 QCURVE SMOOTH",
"-834 1467 OFFCURVE",
"-811 1416 QCURVE SMOOTH",
"-776 1341 OFFCURVE",
"-641 1234 OFFCURVE",
"-570 1234 QCURVE SMOOTH"
);
},
{
closed = 1;
nodes = (
"-661 1533 OFFCURVE",
"-580 1465 OFFCURVE",
"-557 1416 QCURVE SMOOTH",
"-541 1382 OFFCURVE",
"-541 1354 QCURVE SMOOTH",
"-541 1300 OFFCURVE",
"-600 1300 QCURVE SMOOTH",
"-648 1300 OFFCURVE",
"-729 1369 OFFCURVE",
"-751 1416 QCURVE SMOOTH",
"-767 1451 OFFCURVE",
"-767 1478 QCURVE SMOOTH",
"-767 1533 OFFCURVE",
"-708 1533 QCURVE SMOOTH"
);
}
);
width = 0;
}
);
note = ringnosp;
unicode = 030A;
},
{
glyphname = atnah;
lastChange = "2018-07-29 15:04:19 +0000";
layers = (
{
layerId = "3C317020-980B-44E8-A79B-F384FFC5B400";
paths = (
{
closed = 1;
nodes = (
"-14 -585 LINE",
"58 -585 LINE",
"42 -535 OFFCURVE",
"37 -511 QCURVE SMOOTH",
"28 -474 OFFCURVE",
"28 -442 QCURVE SMOOTH",
"28 -373 OFFCURVE",
"86 -373 QCURVE SMOOTH",
"166 -373 OFFCURVE",
"199 -517 QCURVE SMOOTH",
"204 -540 OFFCURVE",
"211 -584 OFFCURVE",
"211 -585 QCURVE",
"283 -585 LINE",
"268 -503 LINE",
"227 -320 OFFCURVE",
"104 -294 QCURVE",
"74 -164 LINE",
"0 -164 LINE",
"31 -294 LINE",
"18 -297 OFFCURVE",
"1 -305 OFFCURVE",
"-30 -330 OFFCURVE",
"-47 -380 OFFCURVE",
"-47 -416 QCURVE SMOOTH",
"-47 -460 OFFCURVE",
"-35 -511 QCURVE"
);
}
);
width = 0;
}
);
note = atnah;
unicode = 0591;
},
{
glyphname = segolta;
lastChange = "2018-07-29 15:04:19 +0000";
layers = (
{
layerId = "3C317020-980B-44E8-A79B-F384FFC5B400";
paths = (
{
closed = 1;
nodes = (
"-376 1222 OFFCURVE",
"-346 1254 OFFCURVE",
"-346 1281 QCURVE SMOOTH",
"-346 1292 OFFCURVE",
"-349 1304 QCURVE SMOOTH",
"-357 1339 OFFCURVE",
"-407 1386 OFFCURVE",
"-438 1386 QCURVE SMOOTH",
"-462 1386 OFFCURVE",
"-492 1354 OFFCURVE",
"-492 1327 QCURVE SMOOTH",
"-492 1316 OFFCURVE",
"-489 1304 QCURVE SMOOTH",
"-481 1269 OFFCURVE",
"-431 1222 OFFCURVE",
"-400 1222 QCURVE SMOOTH"
);
},
{
closed = 1;
nodes = (
"-314 1466 OFFCURVE",
"-284 1498 OFFCURVE",
"-284 1525 QCURVE SMOOTH",
"-284 1536 OFFCURVE",
"-287 1548 QCURVE SMOOTH",
"-295 1583 OFFCURVE",
"-345 1630 OFFCURVE",
"-376 1630 QCURVE SMOOTH",
"-400 1630 OFFCURVE",
"-430 1599 OFFCURVE",
"-430 1572 QCURVE SMOOTH",
"-430 1562 OFFCURVE",
"-427 1548 QCURVE SMOOTH",
"-419 1513 OFFCURVE",
"-369 1466 OFFCURVE",
"-338 1466 QCURVE SMOOTH"
);
},
{
closed = 1;
nodes = (
"-140 1222 OFFCURVE",
"-110 1254 OFFCURVE",
"-110 1281 QCURVE SMOOTH",
"-110 1292 OFFCURVE",
"-113 1304 QCURVE SMOOTH",
"-121 1339 OFFCURVE",
"-171 1386 OFFCURVE",
"-202 1386 QCURVE SMOOTH",
"-226 1386 OFFCURVE",
"-256 1354 OFFCURVE",
"-256 1327 QCURVE SMOOTH",
"-256 1316 OFFCURVE",
"-253 1304 QCURVE SMOOTH",
"-245 1269 OFFCURVE",
"-195 1222 OFFCURVE",
"-164 1222 QCURVE SMOOTH"
);
}
);
width = 0;
}
);
note = segolta;
unicode = 0592;
},
{
glyphname = shalshelet;
lastChange = "2018-07-29 15:04:19 +0000";
layers = (
{
layerId = "3C317020-980B-44E8-A79B-F384FFC5B400";
paths = (
{
closed = 1;
nodes = (
"-389 1562 LINE",
"-272 1656 LINE",
"-356 1656 LINE",
"-474 1562 LINE",
"-316 1475 LINE",
"-430 1388 LINE",
"-270 1301 LINE",
"-389 1207 LINE",
"-304 1207 LINE",
"-186 1301 LINE",
"-344 1388 LINE",
"-231 1475 LINE"
);
}
);
width = 0;
}
);
note = shalshelet;
unicode = 0593;
},
{
glyphname = zaqefqatan;
lastChange = "2018-07-29 15:04:19 +0000";
layers = (
{
layerId = "3C317020-980B-44E8-A79B-F384FFC5B400";
paths = (
{
closed = 1;
nodes = (
"-258 1222 OFFCURVE",
"-228 1254 OFFCURVE",
"-228 1281 QCURVE SMOOTH",
"-228 1292 OFFCURVE",
"-231 1304 QCURVE SMOOTH",
"-239 1339 OFFCURVE",
"-289 1386 OFFCURVE",
"-320 1386 QCURVE SMOOTH",
"-344 1386 OFFCURVE",
"-374 1354 OFFCURVE",
"-374 1327 QCURVE SMOOTH",
"-374 1316 OFFCURVE",
"-371 1304 QCURVE SMOOTH",
"-363 1269 OFFCURVE",
"-313 1222 OFFCURVE",
"-282 1222 QCURVE SMOOTH"
);
},
{
closed = 1;
nodes = (
"-317 1476 OFFCURVE",
"-287 1507 OFFCURVE",
"-287 1534 QCURVE SMOOTH",
"-287 1544 OFFCURVE",
"-290 1558 QCURVE SMOOTH",
"-298 1593 OFFCURVE",
"-348 1640 OFFCURVE",
"-379 1640 QCURVE SMOOTH",
"-403 1640 OFFCURVE",
"-433 1608 OFFCURVE",
"-433 1581 QCURVE SMOOTH",
"-433 1570 OFFCURVE",
"-430 1558 QCURVE SMOOTH",
"-422 1523 OFFCURVE",
"-372 1476 OFFCURVE",
"-341 1476 QCURVE SMOOTH"
);
}
);
width = 0;
}
);
note = zaqefqatan;
unicode = 0594;
},
{
glyphname = zaqefgadol;
lastChange = "2018-07-29 15:04:19 +0000";
layers = (
{
layerId = "3C317020-980B-44E8-A79B-F384FFC5B400";
paths = (
{
closed = 1;
nodes = (
"-167 1222 OFFCURVE",
"-138 1254 OFFCURVE",
"-138 1280 QCURVE SMOOTH",
"-138 1290 OFFCURVE",
"-141 1304 QCURVE SMOOTH",
"-149 1339 OFFCURVE",
"-199 1386 OFFCURVE",
"-229 1386 QCURVE SMOOTH",
"-253 1386 OFFCURVE",
"-283 1354 OFFCURVE",
"-283 1327 QCURVE SMOOTH",
"-283 1316 OFFCURVE",
"-280 1304 QCURVE SMOOTH",
"-272 1269 OFFCURVE",
"-222 1222 OFFCURVE",
"-191 1222 QCURVE SMOOTH"
);
},
{
closed = 1;
nodes = (
"-226 1476 OFFCURVE",
"-197 1507 OFFCURVE",
"-197 1533 QCURVE SMOOTH",
"-197 1544 OFFCURVE",
"-200 1558 QCURVE SMOOTH",
"-208 1593 OFFCURVE",
"-258 1640 OFFCURVE",
"-288 1640 QCURVE SMOOTH",
"-312 1640 OFFCURVE",
"-342 1608 OFFCURVE",
"-342 1581 QCURVE SMOOTH",
"-342 1570 OFFCURVE",
"-339 1558 QCURVE SMOOTH",
"-331 1523 OFFCURVE",
"-281 1476 OFFCURVE",
"-250 1476 QCURVE SMOOTH"
);
},
{
closed = 1;
nodes = (
"-424 1635 LINE",
"-496 1635 LINE",
"-405 1237 LINE",
"-333 1237 LINE"
);
}
);
width = 0;
}
);
note = zaqefgadol;
unicode = 0595;
},
{
glyphname = tipeha;
lastChange = "2018-07-29 15:04:19 +0000";
layers = (
{
layerId = "3C317020-980B-44E8-A79B-F384FFC5B400";
paths = (
{
closed = 1;
nodes = (
"114 -328 OFFCURVE",
"90 -177 QCURVE",
"15 -177 LINE",
"27 -276 OFFCURVE",
"44 -350 QCURVE SMOOTH",
"89 -545 OFFCURVE",
"274 -587 QCURVE",
"253 -500 LINE",
"198 -482 OFFCURVE",
"134 -416 OFFCURVE",
"119 -353 QCURVE"
);
}
);
width = 0;
}
);
note = tipeha;
unicode = 0596;
},
{
glyphname = revia;
lastChange = "2018-07-29 15:04:19 +0000";
layers = (
{
layerId = "3C317020-980B-44E8-A79B-F384FFC5B400";
paths = (
{
closed = 1;
nodes = (
"-416 1356 LINE",
"-276 1213 LINE",
"-208 1353 LINE",
"-350 1501 LINE"
);
}
);
width = 0;
}
);
note = revia;
unicode = 0597;
},
{
glyphname = zarqa;
lastChange = "2018-07-29 15:04:19 +0000";
layers = (
{
layerId = "3C317020-980B-44E8-A79B-F384FFC5B400";
paths = (
{
closed = 1;
nodes = (
"-166 1374 LINE SMOOTH",
"-166 1354 OFFCURVE",
"-187 1329 OFFCURVE",
"-205 1329 QCURVE SMOOTH",
"-232 1329 OFFCURVE",
"-275 1382 QCURVE",
"-298 1413 LINE SMOOTH",
"-340 1469 OFFCURVE",
"-412 1525 OFFCURVE",
"-456 1525 QCURVE SMOOTH",
"-497 1525 OFFCURVE",
"-549 1470 OFFCURVE",
"-549 1423 QCURVE SMOOTH",
"-549 1405 OFFCURVE",
"-544 1380 QCURVE SMOOTH",
"-533 1331 OFFCURVE",
"-449 1248 OFFCURVE",
"-392 1230 QCURVE",
"-412 1317 LINE",
"-463 1336 OFFCURVE",
"-473 1381 QCURVE",
"-475 1388 OFFCURVE",
"-475 1401 QCURVE SMOOTH",
"-475 1422 OFFCURVE",
"-454 1447 OFFCURVE",
"-436 1447 QCURVE SMOOTH",
"-405 1447 OFFCURVE",
"-363 1392 QCURVE SMOOTH",
"-341 1362 LINE SMOOTH",
"-317 1329 OFFCURVE",
"-283 1290 OFFCURVE",
"-217 1249 OFFCURVE",
"-183 1249 QCURVE SMOOTH",
"-144 1249 OFFCURVE",
"-92 1305 OFFCURVE",
"-92 1352 QCURVE SMOOTH",
"-92 1376 OFFCURVE",
"-97 1395 QCURVE SMOOTH",
"-110 1451 OFFCURVE",
"-199 1532 OFFCURVE",
"-245 1546 QCURVE",
"-224 1457 LINE",
"-175 1436 OFFCURVE",
"-166 1394 QCURVE"
);
}
);
width = 0;
}
);
note = zarqa;
unicode = 0598;
},
{
glyphname = pashta;
lastChange = "2018-07-29 15:04:19 +0000";
layers = (
{
layerId = "3C317020-980B-44E8-A79B-F384FFC5B400";
paths = (
{
closed = 1;
nodes = (
"-690 1383 OFFCURVE",
"-666 1232 QCURVE",
"-591 1232 LINE",
"-601 1321 OFFCURVE",
"-620 1405 QCURVE SMOOTH",
"-665 1600 OFFCURVE",
"-850 1642 QCURVE",
"-830 1555 LINE",
"-775 1537 OFFCURVE",
"-711 1471 OFFCURVE",
"-696 1408 QCURVE SMOOTH"
);
}
);
width = 0;
}
);
note = pashta;
unicode = 0599;
},
{
glyphname = yetiv;
lastChange = "2018-07-29 15:04:19 +0000";
layers = (
{
layerId = "3C317020-980B-44E8-A79B-F384FFC5B400";
paths = (
{
closed = 1;
nodes = (
"550 -376 LINE",
"682 -243 LINE",
"615 -171 LINE",
"436 -379 LINE",
"712 -587 LINE",
"745 -515 LINE"
);
}
);
width = 0;
}
);
note = yetiv;
unicode = 059A;
},
{
glyphname = tevir;
lastChange = "2018-07-29 15:04:19 +0000";
layers = (
{
layerId = "3C317020-980B-44E8-A79B-F384FFC5B400";
paths = (
{
closed = 1;
nodes = (
"139 -381 OFFCURVE",
"139 -405 QCURVE SMOOTH",
"139 -442 OFFCURVE",
"103 -486 OFFCURVE",
"66 -500 QCURVE",
"87 -587 LINE",
"216 -554 OFFCURVE",
"216 -426 QCURVE SMOOTH",
"216 -390 OFFCURVE",
"206 -350 QCURVE SMOOTH",
"184 -256 OFFCURVE",
"156 -177 QCURVE",
"80 -177 LINE",
"132 -353 OFFCURVE",
"132 -353 QCURVE"
);
},
{
closed = 1;
nodes = (
"29 -411 OFFCURVE",
"56 -380 OFFCURVE",
"56 -355 QCURVE SMOOTH",
"56 -341 OFFCURVE",
"54 -334 QCURVE",
"47 -303 OFFCURVE",
"-1 -257 OFFCURVE",
"-30 -257 QCURVE SMOOTH",
"-53 -257 OFFCURVE",
"-80 -288 OFFCURVE",
"-80 -312 QCURVE SMOOTH",
"-80 -324 OFFCURVE",
"-77 -334 QCURVE",
"-69 -366 OFFCURVE",
"-23 -411 OFFCURVE",
"6 -411 QCURVE SMOOTH"
);
}
);
width = 0;
}
);
note = tevir;
unicode = 059B;
},
{
glyphname = gereshaccent;
lastChange = "2018-07-29 15:04:19 +0000";
layers = (
{
layerId = "3C317020-980B-44E8-A79B-F384FFC5B400";
paths = (
{
closed = 1;
nodes = (
"-295 1437 OFFCURVE",
"-295 1461 QCURVE SMOOTH",
"-295 1498 OFFCURVE",
"-259 1542 OFFCURVE",
"-222 1556 QCURVE",
"-242 1643 LINE",
"-373 1610 OFFCURVE",
"-373 1482 QCURVE SMOOTH",
"-373 1453 OFFCURVE",
"-363 1406 QCURVE SMOOTH",
"-343 1321 OFFCURVE",
"-312 1233 QCURVE",
"-237 1233 LINE",
"-288 1409 OFFCURVE",
"-288 1409 QCURVE"
);
}
);
width = 0;
}
);
note = gereshaccent;
unicode = 059C;
},
{
glyphname = gereshmuqdam;
lastChange = "2018-07-29 15:04:19 +0000";
layers = (
{
layerId = "3C317020-980B-44E8-A79B-F384FFC5B400";
paths = (
{
closed = 1;
nodes = (
"39 1436 OFFCURVE",
"39 1458 QCURVE SMOOTH",
"39 1496 OFFCURVE",
"75 1540 OFFCURVE",
"111 1554 QCURVE",
"91 1641 LINE",
"-39 1608 OFFCURVE",
"-39 1480 QCURVE SMOOTH",
"-39 1451 OFFCURVE",
"-29 1404 QCURVE SMOOTH",
"-9 1319 OFFCURVE",
"22 1231 QCURVE",
"97 1231 LINE",
"45 1407 OFFCURVE",
"45 1407 QCURVE"
);
}
);
width = 0;
}
);
note = gereshmuqdam;
unicode = 059D;
},
{
glyphname = gershayimaccent;
lastChange = "2018-07-29 15:04:19 +0000";
layers = (
{
layerId = "3C317020-980B-44E8-A79B-F384FFC5B400";
paths = (
{
closed = 1;
nodes = (
"-390 1442 OFFCURVE",
"-390 1458 QCURVE SMOOTH",
"-390 1496 OFFCURVE",
"-354 1540 OFFCURVE",
"-317 1554 QCURVE",
"-337 1641 LINE",
"-467 1608 OFFCURVE",
"-467 1480 QCURVE SMOOTH",
"-467 1444 OFFCURVE",
"-457 1404 QCURVE SMOOTH",
"-435 1310 OFFCURVE",
"-407 1231 QCURVE",
"-331 1231 LINE",
"-383 1407 OFFCURVE",
"-383 1407 QCURVE"
);
},
{
closed = 1;
nodes = (
"-195 1441 OFFCURVE",
"-195 1459 QCURVE SMOOTH",
"-195 1527 OFFCURVE",
"-122 1554 QCURVE",
"-142 1642 LINE",
"-272 1607 OFFCURVE",
"-272 1480 QCURVE SMOOTH",
"-272 1451 OFFCURVE",
"-262 1404 QCURVE SMOOTH",
"-255 1374 OFFCURVE",
"-232 1295 OFFCURVE",
"-213 1236 OFFCURVE",
"-212 1231 QCURVE",
"-135 1231 LINE",
"-188 1408 LINE"
);
}
);
width = 0;
}
);
note = gershayimaccent;
unicode = 059E;
},
{
glyphname = qarneypara;
lastChange = "2018-07-29 15:04:19 +0000";
layers = (
{
layerId = "3C317020-980B-44E8-A79B-F384FFC5B400";
paths = (
{
closed = 1;
nodes = (
"23 1581 OFFCURVE",
"-95 1696 OFFCURVE",
"-168 1696 QCURVE SMOOTH",
"-227 1696 OFFCURVE",
"-293 1618 OFFCURVE",
"-293 1557 QCURVE SMOOTH",
"-293 1532 OFFCURVE",
"-287 1503 QCURVE SMOOTH",
"-273 1442 OFFCURVE",
"-232 1395 QCURVE",
"-299 1295 LINE",
"-412 1395 LINE",
"-401 1422 OFFCURVE",
"-401 1454 QCURVE SMOOTH",
"-401 1476 OFFCURVE",
"-407 1503 QCURVE SMOOTH",
"-425 1583 OFFCURVE",
"-544 1696 OFFCURVE",
"-616 1696 QCURVE SMOOTH",
"-675 1696 OFFCURVE",
"-741 1616 OFFCURVE",
"-741 1555 QCURVE SMOOTH",
"-741 1530 OFFCURVE",
"-735 1503 QCURVE SMOOTH",
"-716 1424 OFFCURVE",
"-599 1311 OFFCURVE",
"-527 1311 QCURVE SMOOTH",
"-471 1311 OFFCURVE",
"-441 1347 QCURVE",
"-277 1199 LINE",
"-181 1347 LINE",
"-133 1311 OFFCURVE",
"-79 1311 QCURVE SMOOTH",
"-20 1311 OFFCURVE",
"47 1390 OFFCURVE",
"47 1451 QCURVE SMOOTH",
"47 1476 OFFCURVE",
"41 1503 QCURVE SMOOTH"
);
},
{
closed = 1;
nodes = (
"-588 1379 OFFCURVE",
"-661 1452 OFFCURVE",
"-673 1503 QCURVE SMOOTH",
"-677 1519 OFFCURVE",
"-677 1539 QCURVE SMOOTH",
"-677 1577 OFFCURVE",
"-637 1627 OFFCURVE",
"-600 1627 QCURVE SMOOTH",
"-554 1627 OFFCURVE",
"-481 1554 OFFCURVE",
"-469 1503 QCURVE SMOOTH",
"-465 1487 OFFCURVE",
"-465 1467 QCURVE SMOOTH",
"-465 1428 OFFCURVE",
"-505 1379 OFFCURVE",
"-542 1379 QCURVE SMOOTH"
);
},
{
closed = 1;
nodes = (
"-106 1627 OFFCURVE",
"-33 1554 OFFCURVE",
"-21 1503 QCURVE SMOOTH",
"-17 1487 OFFCURVE",
"-17 1467 QCURVE SMOOTH",
"-17 1429 OFFCURVE",
"-57 1379 OFFCURVE",
"-94 1379 QCURVE SMOOTH",
"-140 1379 OFFCURVE",
"-213 1452 OFFCURVE",
"-225 1503 QCURVE SMOOTH",
"-229 1519 OFFCURVE",
"-229 1539 QCURVE SMOOTH",
"-229 1578 OFFCURVE",
"-189 1627 OFFCURVE",
"-152 1627 QCURVE SMOOTH"
);
}
);
width = 0;
}
);
note = qarneypara;
unicode = 059F;
},
{
glyphname = telishagedola;
lastChange = "2018-07-29 15:04:19 +0000";
layers = (
{
layerId = "3C317020-980B-44E8-A79B-F384FFC5B400";
paths = (
{
closed = 1;
nodes = (
"71 1627 OFFCURVE",
"144 1554 OFFCURVE",
"156 1503 QCURVE SMOOTH",
"160 1487 OFFCURVE",
"160 1467 QCURVE SMOOTH",
"160 1429 OFFCURVE",
"120 1379 OFFCURVE",
"83 1379 QCURVE SMOOTH",
"37 1379 OFFCURVE",
"-36 1452 OFFCURVE",
"-48 1503 QCURVE SMOOTH",
"-52 1519 OFFCURVE",
"-52 1539 QCURVE SMOOTH",
"-52 1578 OFFCURVE",
"-12 1627 OFFCURVE",
"25 1627 QCURVE SMOOTH"
);
},
{
closed = 1;
nodes = (
"-61 1217 LINE",
"6 1178 LINE",
"38 1324 LINE",
"79 1311 OFFCURVE",
"98 1311 QCURVE SMOOTH",
"157 1311 OFFCURVE",
"224 1390 OFFCURVE",
"224 1451 QCURVE SMOOTH",
"224 1476 OFFCURVE",
"218 1503 QCURVE SMOOTH",
"200 1581 OFFCURVE",
"82 1696 OFFCURVE",
"9 1696 QCURVE SMOOTH",
"-50 1696 OFFCURVE",
"-116 1618 OFFCURVE",
"-116 1557 QCURVE SMOOTH",
"-116 1532 OFFCURVE",
"-110 1503 QCURVE SMOOTH",
"-90 1419 OFFCURVE",
"-19 1358 QCURVE"
);
}
);
width = 0;
}
);
note = telishagedola;
unicode = 05A0;
},
{
glyphname = pazer;
lastChange = "2018-07-29 15:04:19 +0000";
layers = (
{
layerId = "3C317020-980B-44E8-A79B-F384FFC5B400";
paths = (
{
closed = 1;
nodes = (
"-180 1598 OFFCURVE",
"-193 1633 QCURVE",
"-266 1633 LINE",
"-248 1578 OFFCURVE",
"-242 1550 QCURVE SMOOTH",
"-233 1512 OFFCURVE",
"-233 1483 QCURVE SMOOTH",
"-233 1420 OFFCURVE",
"-287 1420 QCURVE SMOOTH",
"-309 1420 OFFCURVE",
"-319 1423 QCURVE",
"-368 1635 LINE",
"-441 1635 LINE",
"-350 1237 LINE",
"-277 1237 LINE",
"-302 1346 LINE",
"-275 1340 OFFCURVE",
"-255 1340 QCURVE SMOOTH",
"-157 1340 OFFCURVE",
"-157 1459 QCURVE SMOOTH",
"-157 1503 OFFCURVE",
"-169 1551 QCURVE SMOOTH"
);
}
);
width = 0;
}
);
note = pazer;
unicode = 05A1;
},
{
glyphname = atnahhafukh;
lastChange = "2018-07-29 15:04:19 +0000";
layers = (
{
layerId = "3C317020-980B-44E8-A79B-F384FFC5B400";
paths = (
{
closed = 1;
nodes = (
"189 -174 LINE",
"117 -174 LINE",
"131 -215 OFFCURVE",
"138 -248 QCURVE SMOOTH",
"147 -286 OFFCURVE",
"147 -317 QCURVE SMOOTH",
"147 -386 OFFCURVE",
"89 -386 QCURVE SMOOTH",
"9 -386 OFFCURVE",
"-24 -242 QCURVE SMOOTH",
"-34 -198 OFFCURVE",
"-36 -174 QCURVE",
"-108 -174 LINE",
"-93 -256 LINE",
"-72 -347 OFFCURVE",
"6 -451 OFFCURVE",
"71 -465 QCURVE",
"101 -595 LINE",
"174 -595 LINE",
"144 -465 LINE",
"157 -462 OFFCURVE",
"174 -454 OFFCURVE",
"205 -429 OFFCURVE",
"222 -379 OFFCURVE",
"222 -343 QCURVE SMOOTH",
"222 -299 OFFCURVE",
"210 -248 QCURVE"
);
}
);
width = 0;
}
);
note = atnahhafukh;
unicode = 05A2;
},
{
glyphname = munah;
lastChange = "2018-07-29 15:04:19 +0000";
layers = (
{
layerId = "3C317020-980B-44E8-A79B-F384FFC5B400";
paths = (
{
closed = 1;
nodes = (
"168 -183 LINE",
"95 -183 LINE",
"165 -487 LINE",
"-4 -487 LINE",
"16 -572 LINE",
"258 -572 LINE"
);
}
);
width = 0;
}
);
note = munah;
unicode = 05A3;
},
{
glyphname = mahapakh;
lastChange = "2018-07-29 15:04:19 +0000";
layers = (
{
layerId = "3C317020-980B-44E8-A79B-F384FFC5B400";
paths = (
{
closed = 1;
nodes = (
"58 -376 LINE",
"190 -243 LINE",
"123 -171 LINE",
"-56 -379 LINE",
"220 -587 LINE",
"253 -515 LINE"
);
}
);
width = 0;
}
);
note = mahapakh;
unicode = 05A4;
},
{
glyphname = merkha;
lastChange = "2018-07-29 15:04:19 +0000";
layers = (
{
layerId = "3C317020-980B-44E8-A79B-F384FFC5B400";
paths = (
{
closed = 1;
nodes = (
"50 -378 OFFCURVE",
"50 -402 QCURVE SMOOTH",
"50 -439 OFFCURVE",
"14 -482 OFFCURVE",
"-22 -498 QCURVE",
"0 -584 LINE",
"127 -553 OFFCURVE",
"127 -425 QCURVE SMOOTH",
"127 -388 OFFCURVE",
"117 -348 QCURVE SMOOTH",
"103 -286 OFFCURVE",
"66 -174 QCURVE",
"-8 -174 LINE",
"43 -350 OFFCURVE",
"43 -350 QCURVE"
);
}
);
width = 0;
}
);
note = merkha;
unicode = 05A5;
},
{
glyphname = merkhakefula;
lastChange = "2018-07-29 15:04:19 +0000";
layers = (
{
layerId = "3C317020-980B-44E8-A79B-F384FFC5B400";
paths = (
{
closed = 1;
nodes = (
"-51 -382 OFFCURVE",
"-51 -406 QCURVE SMOOTH",
"-51 -443 OFFCURVE",
"-85 -486 OFFCURVE",
"-121 -501 QCURVE",
"-101 -587 LINE",
"27 -555 OFFCURVE",
"27 -429 QCURVE SMOOTH",
"27 -391 OFFCURVE",
"17 -351 QCURVE SMOOTH",
"-2 -269 OFFCURVE",
"-33 -177 QCURVE",
"-108 -177 LINE",
"-58 -353 OFFCURVE",
"-58 -353 QCURVE"
);
},
{
closed = 1;
nodes = (
"147 -382 OFFCURVE",
"147 -406 QCURVE SMOOTH",
"147 -443 OFFCURVE",
"111 -486 OFFCURVE",
"75 -502 QCURVE",
"95 -587 LINE",
"223 -555 OFFCURVE",
"223 -429 QCURVE SMOOTH",
"223 -392 OFFCURVE",
"213 -352 QCURVE SMOOTH",
"197 -281 OFFCURVE",
"163 -178 QCURVE",
"88 -178 LINE",
"140 -354 LINE"
);
}
);
width = 0;
}
);
note = merkhakefula;
unicode = 05A6;
},
{
glyphname = darga;
lastChange = "2018-07-29 15:04:19 +0000";
layers = (
{
layerId = "3C317020-980B-44E8-A79B-F384FFC5B400";
paths = (
{
closed = 1;
nodes = (
"122 -247 LINE",
"125 -246 OFFCURVE",
"134 -245 OFFCURVE",
"137 -244 QCURVE",
"119 -162 LINE",
"37 -175 OFFCURVE",
"-36 -221 OFFCURVE",
"-36 -272 QCURVE SMOOTH",
"-36 -294 OFFCURVE",
"-30 -321 QCURVE SMOOTH",
"-25 -341 OFFCURVE",
"-20 -353 QCURVE SMOOTH",
"-10 -377 OFFCURVE",
"68 -414 OFFCURVE",
"136 -433 OFFCURVE",
"137 -437 QCURVE",
"137 -456 LINE SMOOTH",
"137 -468 OFFCURVE",
"128 -484 OFFCURVE",
"105 -494 OFFCURVE",
"84 -499 OFFCURVE",
"40 -508 OFFCURVE",
"25 -512 QCURVE",
"44 -593 LINE",
"133 -579 OFFCURVE",
"210 -530 OFFCURVE",
"210 -479 QCURVE SMOOTH",
"210 -458 OFFCURVE",
"204 -432 QCURVE SMOOTH",
"201 -417 OFFCURVE",
"193 -400 QCURVE",
"183 -376 OFFCURVE",
"107 -339 OFFCURVE",
"40 -319 OFFCURVE",
"39 -316 QCURVE",
"37 -306 OFFCURVE",
"37 -301 QCURVE SMOOTH",
"37 -284 OFFCURVE",
"62 -262 OFFCURVE",
"89 -253 OFFCURVE",
"115 -247 QCURVE"
);
}
);
width = 0;
}
);
note = darga;
unicode = 05A7;
},
{
glyphname = qadma;
lastChange = "2018-07-29 15:04:19 +0000";
layers = (
{
layerId = "3C317020-980B-44E8-A79B-F384FFC5B400";
paths = (
{
closed = 1;
nodes = (
"-358 1381 OFFCURVE",
"-334 1230 QCURVE",
"-259 1230 LINE",
"-271 1330 OFFCURVE",
"-288 1403 QCURVE SMOOTH",
"-333 1598 OFFCURVE",
"-518 1640 QCURVE",
"-498 1553 LINE",
"-442 1535 OFFCURVE",
"-378 1470 OFFCURVE",
"-364 1406 QCURVE SMOOTH"
);
}
);
width = 0;
}
);
note = qadma;
unicode = 05A8;
},
{
glyphname = telishaqetana;
lastChange = "2018-07-29 15:04:19 +0000";
layers = (
{
layerId = "3C317020-980B-44E8-A79B-F384FFC5B400";
paths = (
{
closed = 1;
nodes = (
"-765 1379 OFFCURVE",
"-838 1452 OFFCURVE",
"-850 1503 QCURVE SMOOTH",
"-854 1519 OFFCURVE",
"-854 1539 QCURVE SMOOTH",
"-854 1577 OFFCURVE",
"-814 1627 OFFCURVE",
"-777 1627 QCURVE SMOOTH",
"-731 1627 OFFCURVE",
"-658 1554 OFFCURVE",
"-646 1503 QCURVE SMOOTH",
"-642 1487 OFFCURVE",
"-642 1467 QCURVE SMOOTH",
"-642 1428 OFFCURVE",
"-682 1379 OFFCURVE",
"-719 1379 QCURVE SMOOTH"
);
},
{
closed = 1;
nodes = (
"-852 1696 OFFCURVE",
"-918 1616 OFFCURVE",
"-918 1555 QCURVE SMOOTH",
"-918 1530 OFFCURVE",
"-912 1503 QCURVE SMOOTH",
"-893 1424 OFFCURVE",
"-776 1311 OFFCURVE",
"-704 1311 QCURVE SMOOTH",
"-684 1311 OFFCURVE",
"-650 1324 QCURVE",
"-550 1178 LINE",
"-501 1217 LINE",
"-609 1358 LINE",
"-578 1399 OFFCURVE",
"-578 1455 QCURVE SMOOTH",
"-578 1479 OFFCURVE",
"-584 1503 QCURVE SMOOTH",
"-602 1583 OFFCURVE",
"-721 1696 OFFCURVE",
"-793 1696 QCURVE SMOOTH"
);
}
);
width = 0;
}
);
note = telishaqetana;
unicode = 05A9;
},
{
glyphname = yerahbenyomo;
lastChange = "2018-07-29 15:04:19 +0000";
layers = (
{
layerId = "3C317020-980B-44E8-A79B-F384FFC5B400";
paths = (
{
closed = 1;
nodes = (
"207 -233 OFFCURVE",
"192 -187 OFFCURVE",
"189 -175 QCURVE",
"117 -175 LINE",
"131 -216 OFFCURVE",
"138 -249 QCURVE SMOOTH",
"148 -291 OFFCURVE",
"148 -318 QCURVE SMOOTH",
"148 -387 OFFCURVE",
"89 -387 QCURVE SMOOTH",
"9 -387 OFFCURVE",
"-24 -243 QCURVE SMOOTH",
"-33 -206 OFFCURVE",
"-36 -175 QCURVE",
"-108 -175 LINE",
"-93 -257 LINE",
"-50 -441 OFFCURVE",
"72 -466 QCURVE",
"102 -596 LINE",
"175 -596 LINE",
"145 -466 LINE",
"158 -462 OFFCURVE",
"174 -455 OFFCURVE",
"206 -430 OFFCURVE",
"223 -380 OFFCURVE",
"223 -344 QCURVE SMOOTH",
"223 -304 OFFCURVE",
"210 -249 QCURVE"
);
}
);
width = 0;
}
);
note = yerahbenyomo;
unicode = 05AA;
},
{
glyphname = ole;
lastChange = "2018-07-29 15:04:19 +0000";
layers = (
{
layerId = "3C317020-980B-44E8-A79B-F384FFC5B400";
paths = (
{
closed = 1;
nodes = (
"-303 1434 LINE",
"-171 1567 LINE",
"-237 1639 LINE",
"-416 1431 LINE",
"-141 1223 LINE",
"-108 1295 LINE"
);
}
);
width = 0;
}
);
note = ole;
unicode = 05AB;
},
{
glyphname = iluy;
lastChange = "2018-07-29 15:04:19 +0000";
layers = (
{
layerId = "3C317020-980B-44E8-A79B-F384FFC5B400";
paths = (
{
closed = 1;
nodes = (
"-238 1592 LINE",
"-310 1592 LINE",
"-239 1288 LINE",
"-417 1288 LINE",
"-398 1203 LINE",
"-148 1203 LINE"
);
}
);
width = 0;
}
);
note = iluy;
unicode = 05AC;
},
{
glyphname = dehi;
lastChange = "2018-07-29 15:04:19 +0000";
layers = (
{
layerId = "3C317020-980B-44E8-A79B-F384FFC5B400";
paths = (
{
closed = 1;
nodes = (
"541 -331 OFFCURVE",
"518 -180 QCURVE",
"443 -180 LINE",
"447 -243 OFFCURVE",
"471 -353 QCURVE SMOOTH",
"517 -548 OFFCURVE",
"701 -590 QCURVE",
"681 -503 LINE",
"626 -485 OFFCURVE",
"562 -419 OFFCURVE",
"547 -356 QCURVE SMOOTH"
);
}
);
width = 0;
}
);
note = dehi;
unicode = 05AD;
},
{
glyphname = tsinor;
lastChange = "2018-07-29 15:04:19 +0000";
layers = (
{
layerId = "3C317020-980B-44E8-A79B-F384FFC5B400";
paths = (
{
closed = 1;
nodes = (
"-644 1373 LINE SMOOTH",
"-644 1352 OFFCURVE",
"-665 1327 OFFCURVE",
"-683 1327 QCURVE SMOOTH",
"-711 1327 OFFCURVE",
"-754 1380 QCURVE",
"-777 1411 LINE SMOOTH",
"-818 1467 OFFCURVE",
"-891 1523 OFFCURVE",
"-935 1523 QCURVE SMOOTH",
"-976 1523 OFFCURVE",
"-1027 1467 OFFCURVE",
"-1027 1420 QCURVE SMOOTH",
"-1027 1403 OFFCURVE",
"-1022 1378 QCURVE SMOOTH",
"-1011 1329 OFFCURVE",
"-928 1246 OFFCURVE",
"-871 1228 QCURVE",
"-891 1315 LINE",
"-940 1333 OFFCURVE",
"-951 1379 QCURVE SMOOTH",
"-954 1390 OFFCURVE",
"-954 1400 QCURVE SMOOTH",
"-954 1420 OFFCURVE",
"-933 1445 OFFCURVE",
"-915 1445 QCURVE SMOOTH",
"-882 1445 OFFCURVE",
"-843 1390 QCURVE",
"-820 1360 LINE SMOOTH",
"-796 1327 OFFCURVE",
"-762 1288 OFFCURVE",
"-696 1247 OFFCURVE",
"-662 1247 QCURVE SMOOTH",
"-623 1247 OFFCURVE",
"-571 1303 OFFCURVE",
"-571 1350 QCURVE SMOOTH",
"-571 1374 OFFCURVE",
"-576 1393 QCURVE",
"-588 1448 OFFCURVE",
"-678 1530 OFFCURVE",
"-723 1544 QCURVE",
"-703 1455 LINE",
"-654 1434 OFFCURVE",
"-644 1392 QCURVE"
);
}
);
width = 0;
}
);
note = tsinor;
unicode = 05AE;
},
{
glyphname = masoracircle;
lastChange = "2018-07-29 15:04:19 +0000";
layers = (
{
layerId = "3C317020-980B-44E8-A79B-F384FFC5B400";
paths = (
{
closed = 1;
nodes = (
"-245 1306 OFFCURVE",
"-175 1391 OFFCURVE",
"-175 1454 QCURVE SMOOTH",
"-175 1474 OFFCURVE",
"-181 1501 QCURVE SMOOTH",
"-199 1583 OFFCURVE",
"-324 1696 OFFCURVE",
"-392 1696 QCURVE SMOOTH",
"-450 1696 OFFCURVE",
"-519 1613 OFFCURVE",
"-519 1551 QCURVE SMOOTH",
"-519 1526 OFFCURVE",
"-513 1501 QCURVE SMOOTH",
"-494 1420 OFFCURVE",
"-371 1306 OFFCURVE",
"-302 1306 QCURVE SMOOTH"
);
},
{
closed = 1;
nodes = (
"-333 1643 OFFCURVE",
"-251 1563 OFFCURVE",
"-236 1500 QCURVE",
"-232 1472 OFFCURVE",
"-232 1460 QCURVE SMOOTH",
"-232 1414 OFFCURVE",
"-276 1359 OFFCURVE",
"-314 1359 QCURVE SMOOTH",
"-361 1359 OFFCURVE",
"-446 1441 OFFCURVE",
"-460 1502 QCURVE SMOOTH",
"-464 1521 OFFCURVE",
"-464 1542 QCURVE SMOOTH",
"-464 1588 OFFCURVE",
"-418 1643 OFFCURVE",
"-379 1643 QCURVE SMOOTH"
);
}
);
width = 0;
}
);
note = masoracircle;
unicode = 05AF;
},
{
glyphname = sheva;
lastChange = "2018-07-29 15:04:19 +0000";
layers = (
{
layerId = "3C317020-980B-44E8-A79B-F384FFC5B400";
paths = (
{
closed = 1;
nodes = (
"30 -587 OFFCURVE",
"60 -555 OFFCURVE",
"60 -528 QCURVE SMOOTH",
"60 -517 OFFCURVE",
"57 -505 QCURVE SMOOTH",
"49 -470 OFFCURVE",
"-1 -423 OFFCURVE",
"-32 -423 QCURVE SMOOTH",
"-56 -423 OFFCURVE",
"-86 -454 OFFCURVE",
"-86 -481 QCURVE SMOOTH",
"-86 -492 OFFCURVE",
"-83 -505 QCURVE SMOOTH",
"-75 -540 OFFCURVE",
"-25 -587 OFFCURVE",
"6 -587 QCURVE SMOOTH"
);
},
{
closed = 1;
nodes = (
"-28 -333 OFFCURVE",
"3 -300 OFFCURVE",
"3 -273 QCURVE SMOOTH",
"3 -263 OFFCURVE",
"0 -251 QCURVE SMOOTH",
"-8 -216 OFFCURVE",
"-60 -169 OFFCURVE",
"-91 -169 QCURVE SMOOTH",
"-115 -169 OFFCURVE",
"-145 -201 OFFCURVE",
"-145 -228 QCURVE SMOOTH",
"-145 -239 OFFCURVE",
"-142 -251 QCURVE SMOOTH",
"-134 -286 OFFCURVE",
"-84 -333 OFFCURVE",
"-53 -333 QCURVE SMOOTH"
);
}
);
width = 0;
}
);
note = sheva;
unicode = 05B0;
},
{
glyphname = hatafsegol;
lastChange = "2018-07-29 15:04:19 +0000";
layers = (
{
layerId = "3C317020-980B-44E8-A79B-F384FFC5B400";
paths = (
{
closed = 1;
nodes = (
"395 -587 OFFCURVE",
"424 -555 OFFCURVE",
"424 -529 QCURVE SMOOTH",
"424 -518 OFFCURVE",
"421 -505 QCURVE SMOOTH",
"413 -470 OFFCURVE",
"363 -423 OFFCURVE",
"333 -423 QCURVE SMOOTH",
"309 -423 OFFCURVE",
"279 -454 OFFCURVE",
"279 -481 QCURVE SMOOTH",
"279 -492 OFFCURVE",
"282 -505 QCURVE SMOOTH",
"290 -540 OFFCURVE",
"340 -587 OFFCURVE",
"371 -587 QCURVE SMOOTH"
);
},
{
closed = 1;
nodes = (
"336 -333 OFFCURVE",
"365 -301 OFFCURVE",
"365 -275 QCURVE SMOOTH",
"365 -264 OFFCURVE",
"362 -251 QCURVE SMOOTH",
"354 -216 OFFCURVE",
"304 -169 OFFCURVE",
"274 -169 QCURVE SMOOTH",
"250 -169 OFFCURVE",
"220 -201 OFFCURVE",
"220 -228 QCURVE SMOOTH",
"220 -239 OFFCURVE",
"223 -251 QCURVE SMOOTH",
"231 -286 OFFCURVE",
"281 -333 OFFCURVE",
"312 -333 QCURVE SMOOTH"
);
},
{
closed = 1;
nodes = (
"18 -169 OFFCURVE",
"-12 -201 OFFCURVE",
"-12 -228 QCURVE SMOOTH",
"-12 -239 OFFCURVE",
"-9 -251 QCURVE SMOOTH",
"-1 -286 OFFCURVE",
"49 -333 OFFCURVE",
"80 -333 QCURVE SMOOTH",
"104 -333 OFFCURVE",
"133 -301 OFFCURVE",
"133 -275 QCURVE SMOOTH",
"133 -264 OFFCURVE",
"130 -251 QCURVE SMOOTH",
"122 -216 OFFCURVE",
"72 -169 OFFCURVE",
"42 -169 QCURVE SMOOTH"
);
},
{
closed = 1;
nodes = (
"-42 -423 OFFCURVE",
"-71 -454 OFFCURVE",
"-71 -480 QCURVE SMOOTH",
"-71 -492 OFFCURVE",
"-68 -505 QCURVE SMOOTH",
"-60 -540 OFFCURVE",
"-10 -587 OFFCURVE",
"20 -587 QCURVE SMOOTH",
"45 -587 OFFCURVE",
"74 -555 OFFCURVE",
"74 -529 QCURVE SMOOTH",
"74 -518 OFFCURVE",
"71 -505 QCURVE SMOOTH",
"63 -470 OFFCURVE",
"13 -423 OFFCURVE",
"-18 -423 QCURVE SMOOTH"
);
},
{
closed = 1;
nodes = (
"-219 -169 OFFCURVE",
"-248 -201 OFFCURVE",
"-248 -227 QCURVE SMOOTH",
"-248 -238 OFFCURVE",
"-245 -251 QCURVE SMOOTH",
"-237 -286 OFFCURVE",
"-187 -333 OFFCURVE",
"-157 -333 QCURVE SMOOTH",
"-133 -333 OFFCURVE",
"-103 -301 OFFCURVE",
"-103 -274 QCURVE SMOOTH",
"-103 -263 OFFCURVE",
"-106 -251 QCURVE SMOOTH",
"-114 -216 OFFCURVE",
"-164 -169 OFFCURVE",
"-195 -169 QCURVE SMOOTH"
);
}
);
width = 0;
}
);
note = hatafsegol;
unicode = 05B1;
},
{
glyphname = hatafpatah;
lastChange = "2018-07-29 15:04:19 +0000";
layers = (
{
layerId = "3C317020-980B-44E8-A79B-F384FFC5B400";
paths = (
{
closed = 1;
nodes = (
"80 -194 LINE",
"-218 -194 LINE",
"-197 -288 LINE",
"101 -288 LINE"
);
},
{
closed = 1;
nodes = (
"361 -587 OFFCURVE",
"391 -555 OFFCURVE",
"391 -528 QCURVE SMOOTH",
"391 -517 OFFCURVE",
"388 -505 QCURVE SMOOTH",
"380 -470 OFFCURVE",
"330 -423 OFFCURVE",
"299 -423 QCURVE SMOOTH",
"275 -423 OFFCURVE",
"246 -454 OFFCURVE",
"246 -480 QCURVE SMOOTH",
"246 -492 OFFCURVE",
"249 -505 QCURVE SMOOTH",
"257 -540 OFFCURVE",
"307 -587 OFFCURVE",
"337 -587 QCURVE SMOOTH"
);
},
{
closed = 1;
nodes = (
"302 -333 OFFCURVE",
"332 -301 OFFCURVE",
"332 -274 QCURVE SMOOTH",
"332 -263 OFFCURVE",
"329 -251 QCURVE SMOOTH",
"321 -216 OFFCURVE",
"271 -169 OFFCURVE",
"240 -169 QCURVE SMOOTH",
"216 -169 OFFCURVE",
"187 -201 OFFCURVE",
"187 -227 QCURVE SMOOTH",
"187 -238 OFFCURVE",
"190 -251 QCURVE SMOOTH",
"198 -286 OFFCURVE",
"248 -333 OFFCURVE",
"278 -333 QCURVE SMOOTH"
);
}
);
width = 0;
}
);
note = hatafpatah;
unicode = 05B2;
},
{
glyphname = hatafqamats;
lastChange = "2018-07-29 15:04:19 +0000";
layers = (
{
layerId = "3C317020-980B-44E8-A79B-F384FFC5B400";
paths = (
{
closed = 1;
nodes = (
"-73 -300 OFFCURVE",
"-69 -322 QCURVE",
"-69 -326 LINE",
"-59 -376 OFFCURVE",
"-59 -398 QCURVE SMOOTH",
"-59 -407 OFFCURVE",
"-60 -410 QCURVE",
"-69 -504 LINE",
"-67 -507 OFFCURVE",
"-56 -527 OFFCURVE",
"-52 -534 OFFCURVE",
"-42 -550 OFFCURVE",
"-36 -558 OFFCURVE",
"-26 -570 OFFCURVE",
"-14 -579 OFFCURVE",
"-8 -584 QCURVE",
"13 -590 OFFCURVE",
"34 -584 QCURVE",
"54 -557 OFFCURVE",
"64 -500 QCURVE",
"8 -410 LINE SMOOTH",
"-15 -373 OFFCURVE",
"-26 -324 QCURVE",
"-27 -322 LINE",
"-35 -288 LINE",
"93 -288 LINE",
"72 -194 LINE",
"-224 -194 LINE",
"-203 -288 LINE",
"-76 -288 LINE"
);
},
{
closed = 1;
nodes = (
"354 -587 OFFCURVE",
"384 -555 OFFCURVE",
"384 -528 QCURVE SMOOTH",
"384 -517 OFFCURVE",
"381 -505 QCURVE SMOOTH",
"373 -470 OFFCURVE",
"323 -423 OFFCURVE",
"292 -423 QCURVE SMOOTH",
"268 -423 OFFCURVE",
"239 -454 OFFCURVE",
"239 -480 QCURVE SMOOTH",
"239 -492 OFFCURVE",
"242 -505 QCURVE SMOOTH",
"250 -540 OFFCURVE",
"300 -587 OFFCURVE",
"330 -587 QCURVE SMOOTH"
);
},
{
closed = 1;
nodes = (
"295 -333 OFFCURVE",
"325 -301 OFFCURVE",
"325 -274 QCURVE SMOOTH",
"325 -263 OFFCURVE",
"322 -251 QCURVE SMOOTH",
"314 -216 OFFCURVE",
"264 -169 OFFCURVE",
"233 -169 QCURVE SMOOTH",
"209 -169 OFFCURVE",
"180 -201 OFFCURVE",
"180 -227 QCURVE SMOOTH",
"180 -238 OFFCURVE",
"183 -251 QCURVE SMOOTH",
"191 -286 OFFCURVE",
"241 -333 OFFCURVE",
"271 -333 QCURVE SMOOTH"
);
}
);
width = 0;
}
);
note = hatafqamats;
unicode = 05B3;
},
{
glyphname = hiriq;
lastChange = "2018-07-29 15:04:19 +0000";
layers = (
{
layerId = "3C317020-980B-44E8-A79B-F384FFC5B400";
paths = (
{
closed = 1;
nodes = (
"-167 -333 OFFCURVE",
"-137 -301 OFFCURVE",
"-137 -274 QCURVE SMOOTH",
"-137 -263 OFFCURVE",
"-140 -251 QCURVE SMOOTH",
"-148 -216 OFFCURVE",
"-198 -169 OFFCURVE",
"-229 -169 QCURVE SMOOTH",
"-253 -169 OFFCURVE",
"-283 -201 OFFCURVE",
"-283 -228 QCURVE SMOOTH",
"-283 -239 OFFCURVE",
"-280 -251 QCURVE SMOOTH",
"-272 -286 OFFCURVE",
"-222 -333 OFFCURVE",
"-191 -333 QCURVE SMOOTH"
);
}
);
width = 0;
}
);
note = hiriq;
unicode = 05B4;
},
{
glyphname = tsere;
lastChange = "2018-07-29 15:04:19 +0000";
layers = (
{
layerId = "3C317020-980B-44E8-A79B-F384FFC5B400";
paths = (
{
closed = 1;
nodes = (
"228 -216 OFFCURVE",
"178 -169 OFFCURVE",
"147 -169 QCURVE SMOOTH",
"123 -169 OFFCURVE",
"93 -201 OFFCURVE",
"93 -228 QCURVE SMOOTH",
"93 -239 OFFCURVE",
"96 -251 QCURVE SMOOTH",
"104 -286 OFFCURVE",
"154 -333 OFFCURVE",
"185 -333 QCURVE SMOOTH",
"209 -333 OFFCURVE",
"239 -301 OFFCURVE",
"239 -274 QCURVE SMOOTH",
"239 -263 OFFCURVE",
"236 -251 QCURVE SMOOTH"
);
},
{
closed = 1;
nodes = (
"12 -216 OFFCURVE",
"-38 -169 OFFCURVE",
"-69 -169 QCURVE SMOOTH",
"-93 -169 OFFCURVE",
"-123 -201 OFFCURVE",
"-123 -228 QCURVE SMOOTH",
"-123 -239 OFFCURVE",
"-120 -251 QCURVE SMOOTH",
"-112 -286 OFFCURVE",
"-62 -333 OFFCURVE",
"-31 -333 QCURVE SMOOTH",
"-7 -333 OFFCURVE",
"23 -301 OFFCURVE",
"23 -274 QCURVE SMOOTH",
"23 -263 OFFCURVE",
"20 -251 QCURVE SMOOTH"
);
}
);
width = 0;
}
);
note = tsere;
unicode = 05B5;
},
{
glyphname = segol;
lastChange = "2018-07-29 15:04:19 +0000";
layers = (
{
layerId = "3C317020-980B-44E8-A79B-F384FFC5B400";
paths = (
{
closed = 1;
nodes = (
"133 -169 OFFCURVE",
"103 -201 OFFCURVE",
"103 -228 QCURVE SMOOTH",
"103 -239 OFFCURVE",
"106 -251 QCURVE SMOOTH",
"114 -286 OFFCURVE",
"164 -333 OFFCURVE",
"195 -333 QCURVE SMOOTH",
"219 -333 OFFCURVE",
"249 -301 OFFCURVE",
"249 -274 QCURVE SMOOTH",
"249 -263 OFFCURVE",
"246 -251 QCURVE SMOOTH",
"238 -216 OFFCURVE",
"188 -169 OFFCURVE",
"157 -169 QCURVE SMOOTH"
);
},
{
closed = 1;
nodes = (
"71 -413 OFFCURVE",
"41 -445 OFFCURVE",
"41 -472 QCURVE SMOOTH",
"41 -483 OFFCURVE",
"44 -495 QCURVE SMOOTH",
"52 -530 OFFCURVE",
"102 -577 OFFCURVE",
"133 -577 QCURVE SMOOTH",
"157 -577 OFFCURVE",
"187 -546 OFFCURVE",
"187 -519 QCURVE SMOOTH",
"187 -508 OFFCURVE",
"184 -495 QCURVE SMOOTH",
"176 -460 OFFCURVE",
"126 -413 OFFCURVE",
"95 -413 QCURVE SMOOTH"
);
},
{
closed = 1;
nodes = (
"-103 -169 OFFCURVE",
"-133 -201 OFFCURVE",
"-133 -228 QCURVE SMOOTH",
"-133 -239 OFFCURVE",
"-130 -251 QCURVE SMOOTH",
"-122 -286 OFFCURVE",
"-72 -333 OFFCURVE",
"-41 -333 QCURVE SMOOTH",
"-17 -333 OFFCURVE",
"13 -301 OFFCURVE",
"13 -274 QCURVE SMOOTH",
"13 -263 OFFCURVE",
"10 -251 QCURVE SMOOTH",
"2 -216 OFFCURVE",
"-48 -169 OFFCURVE",
"-79 -169 QCURVE SMOOTH"
);
}
);
width = 0;
}
);
note = segol;
unicode = 05B6;
},
{
glyphname = patah;
lastChange = "2018-07-29 15:04:19 +0000";
layers = (
{
layerId = "3C317020-980B-44E8-A79B-F384FFC5B400";
paths = (
{
closed = 1;
nodes = (
"194 -194 LINE",
"-105 -194 LINE",
"-84 -288 LINE",
"215 -288 LINE"
);
}
);
width = 0;
}
);
note = patah;
unicode = 05B7;
},
{
glyphname = qamats;
lastChange = "2018-07-29 15:04:19 +0000";
layers = (
{
layerId = "3C317020-980B-44E8-A79B-F384FFC5B400";
paths = (
{
closed = 1;
nodes = (
"54 -323 OFFCURVE",
"54 -323 QCURVE",
"54 -326 OFFCURVE",
"54 -326 QCURVE",
"62 -366 OFFCURVE",
"62 -395 QCURVE SMOOTH",
"62 -406 OFFCURVE",
"61 -410 QCURVE",
"46 -500 LINE",
"80 -561 OFFCURVE",
"114 -584 QCURVE",
"134 -590 OFFCURVE",
"155 -585 QCURVE",
"178 -556 OFFCURVE",
"185 -500 QCURVE",
"129 -410 LINE SMOOTH",
"106 -370 OFFCURVE",
"96 -325 QCURVE",
"96 -323 OFFCURVE",
"95 -322 QCURVE",
"87 -288 LINE",
"215 -288 LINE",
"194 -194 LINE",
"-103 -194 LINE",
"-82 -288 LINE",
"46 -288 LINE"
);
}
);
width = 0;
}
);
note = qamats;
unicode = 05B8;
},
{
glyphname = holam;
lastChange = "2018-07-29 15:04:19 +0000";
layers = (
{
layerId = "3C317020-980B-44E8-A79B-F384FFC5B400";
paths = (
{
closed = 1;
nodes = (
"-488 1222 OFFCURVE",
"-458 1254 OFFCURVE",
"-458 1281 QCURVE SMOOTH",
"-458 1292 OFFCURVE",
"-461 1304 QCURVE SMOOTH",
"-469 1339 OFFCURVE",
"-519 1386 OFFCURVE",
"-550 1386 QCURVE SMOOTH",
"-574 1386 OFFCURVE",
"-604 1354 OFFCURVE",
"-604 1327 QCURVE SMOOTH",
"-604 1316 OFFCURVE",
"-601 1304 QCURVE SMOOTH",
"-593 1269 OFFCURVE",
"-543 1222 OFFCURVE",
"-512 1222 QCURVE SMOOTH"
);
}
);
width = 0;
}
);
note = holam;
unicode = 05B9;
},
{
glyphname = holamhaser;
lastChange = "2018-07-29 15:04:19 +0000";
layers = (
{
layerId = "3C317020-980B-44E8-A79B-F384FFC5B400";
paths = (
{
closed = 1;
nodes = (
"-488 1222 OFFCURVE",
"-458 1254 OFFCURVE",
"-458 1281 QCURVE SMOOTH",
"-458 1292 OFFCURVE",
"-461 1304 QCURVE SMOOTH",
"-469 1339 OFFCURVE",
"-519 1386 OFFCURVE",
"-550 1386 QCURVE SMOOTH",
"-574 1386 OFFCURVE",
"-604 1354 OFFCURVE",
"-604 1327 QCURVE SMOOTH",
"-604 1316 OFFCURVE",
"-601 1304 QCURVE SMOOTH",
"-593 1269 OFFCURVE",
"-543 1222 OFFCURVE",
"-512 1222 QCURVE SMOOTH"
);
}
);
width = 0;
}
);
note = holamhaser;
unicode = 05BA;
},
{
glyphname = qubuts;
lastChange = "2018-07-29 15:04:19 +0000";
layers = (
{
layerId = "3C317020-980B-44E8-A79B-F384FFC5B400";
paths = (
{
closed = 1;
nodes = (
"-60 -323 OFFCURVE",
"-31 -292 OFFCURVE",
"-31 -267 QCURVE SMOOTH",
"-31 -256 OFFCURVE",
"-34 -244 QCURVE SMOOTH",
"-42 -210 OFFCURVE",
"-90 -164 OFFCURVE",
"-120 -164 QCURVE SMOOTH",
"-144 -164 OFFCURVE",
"-172 -196 OFFCURVE",
"-172 -222 QCURVE SMOOTH",
"-172 -232 OFFCURVE",
"-169 -244 QCURVE SMOOTH",
"-161 -277 OFFCURVE",
"-112 -323 OFFCURVE",
"-83 -323 QCURVE SMOOTH"
);
},
{
closed = 1;
nodes = (
"317 -591 OFFCURVE",
"346 -560 OFFCURVE",
"346 -535 QCURVE SMOOTH",
"346 -524 OFFCURVE",
"343 -512 QCURVE SMOOTH",
"335 -478 OFFCURVE",
"287 -432 OFFCURVE",
"257 -432 QCURVE SMOOTH",
"233 -432 OFFCURVE",
"205 -464 OFFCURVE",
"205 -490 QCURVE SMOOTH",
"205 -500 OFFCURVE",
"208 -512 QCURVE SMOOTH",
"216 -545 OFFCURVE",
"264 -591 OFFCURVE",
"293 -591 QCURVE SMOOTH"
);
},
{
closed = 1;
nodes = (
"129 -457 OFFCURVE",
"158 -426 OFFCURVE",
"158 -401 QCURVE SMOOTH",
"158 -390 OFFCURVE",
"155 -378 QCURVE SMOOTH",
"147 -344 OFFCURVE",
"99 -298 OFFCURVE",
"69 -298 QCURVE SMOOTH",
"45 -298 OFFCURVE",
"17 -330 OFFCURVE",
"17 -356 QCURVE SMOOTH",
"17 -366 OFFCURVE",
"20 -378 QCURVE SMOOTH",
"28 -411 OFFCURVE",
"77 -457 OFFCURVE",
"106 -457 QCURVE SMOOTH"
);
}
);
width = 0;
}
);
note = qubuts;
unicode = 05BB;
},
{
glyphname = dagesh;
lastChange = "2018-07-29 15:04:19 +0000";
layers = (
{
layerId = "3C317020-980B-44E8-A79B-F384FFC5B400";
paths = (
{
closed = 1;
nodes = (
"-77 437 OFFCURVE",
"-47 469 OFFCURVE",
"-47 496 QCURVE SMOOTH",
"-47 507 OFFCURVE",
"-50 519 QCURVE SMOOTH",
"-58 554 OFFCURVE",
"-108 601 OFFCURVE",
"-139 601 QCURVE SMOOTH",
"-163 601 OFFCURVE",
"-193 569 OFFCURVE",
"-193 542 QCURVE SMOOTH",
"-193 531 OFFCURVE",
"-190 519 QCURVE SMOOTH",
"-182 484 OFFCURVE",
"-132 437 OFFCURVE",
"-101 437 QCURVE SMOOTH"
);
}
);
width = 0;
}
);
note = dagesh;
unicode = 05BC;
},
{
glyphname = meteg;
lastChange = "2018-07-29 15:04:19 +0000";
layers = (
{
layerId = "3C317020-980B-44E8-A79B-F384FFC5B400";
paths = (
{
closed = 1;
nodes = (
"-35 -182 LINE",
"-108 -182 LINE",
"-18 -572 LINE",
"55 -572 LINE"
);
}
);
width = 0;
}
);
note = meteg;
unicode = 05BD;
},
{
glyphname = makaf;
lastChange = "2018-07-29 15:04:19 +0000";
layers = (
{
layerId = "3C317020-980B-44E8-A79B-F384FFC5B400";
paths = (
{
closed = 1;
nodes = (
"-115 1050 LINE",
"-117 1045 OFFCURVE",
"-141 1004 OFFCURVE",
"-151 981 OFFCURVE",
"-164 937 OFFCURVE",
"-166 914 QCURVE",
"-171 909 OFFCURVE",
"-166 887 QCURVE SMOOTH",
"-160 864 OFFCURVE",
"-123 828 OFFCURVE",
"-91 828 QCURVE SMOOTH",
"287 828 LINE",
"309 854 OFFCURVE",
"341 932 OFFCURVE",
"347 965 QCURVE",
"355 985 OFFCURVE",
"350 1005 QCURVE",
"346 1026 OFFCURVE",
"310 1050 OFFCURVE",
"285 1050 QCURVE SMOOTH"
);
}
);
width = 631;
}
);
note = makaf;
unicode = 05BE;
},
{
glyphname = rafe;
lastChange = "2018-07-29 15:04:19 +0000";
layers = (
{
layerId = "3C317020-980B-44E8-A79B-F384FFC5B400";
paths = (
{
closed = 1;
nodes = (
"-110 1318 LINE",
"-498 1318 LINE",
"-477 1224 LINE",
"-89 1224 LINE"
);
}
);
width = 0;
}
);
note = rafe;
unicode = 05BF;
},
{
glyphname = paseq;
lastChange = "2018-07-29 15:04:19 +0000";
layers = (
{
layerId = "3C317020-980B-44E8-A79B-F384FFC5B400";
paths = (
{
closed = 1;
nodes = (
"46 1230 LINE",
"-77 1230 LINE",
"245 -163 LINE",
"368 -163 LINE"
);
}
);
width = 589;
}
);
note = paseq;
unicode = 05C0;
},
{
glyphname = shindot;
lastChange = "2018-07-29 15:04:19 +0000";
layers = (
{
layerId = "3C317020-980B-44E8-A79B-F384FFC5B400";
paths = (
{
closed = 1;
nodes = (
"130 1222 OFFCURVE",
"160 1254 OFFCURVE",
"160 1281 QCURVE SMOOTH",
"160 1292 OFFCURVE",
"157 1304 QCURVE SMOOTH",
"149 1339 OFFCURVE",
"99 1386 OFFCURVE",
"68 1386 QCURVE SMOOTH",
"44 1386 OFFCURVE",
"14 1354 OFFCURVE",
"14 1327 QCURVE SMOOTH",
"14 1316 OFFCURVE",
"17 1304 QCURVE SMOOTH",
"25 1269 OFFCURVE",
"75 1222 OFFCURVE",
"106 1222 QCURVE SMOOTH"
);
}
);
width = 0;
}
);
note = shindot;
unicode = 05C1;
},
{
glyphname = sindot;
lastChange = "2018-07-29 15:04:19 +0000";
layers = (
{
layerId = "3C317020-980B-44E8-A79B-F384FFC5B400";
paths = (
{
closed = 1;
nodes = (
"-678 1222 OFFCURVE",
"-648 1254 OFFCURVE",
"-648 1281 QCURVE SMOOTH",
"-648 1292 OFFCURVE",
"-651 1304 QCURVE SMOOTH",
"-659 1339 OFFCURVE",
"-709 1386 OFFCURVE",
"-740 1386 QCURVE SMOOTH",
"-764 1386 OFFCURVE",
"-794 1354 OFFCURVE",
"-794 1327 QCURVE SMOOTH",
"-794 1316 OFFCURVE",
"-791 1304 QCURVE SMOOTH",
"-783 1269 OFFCURVE",
"-733 1222 OFFCURVE",
"-702 1222 QCURVE SMOOTH"
);
}
);
width = 0;
}
);
note = sindot;
unicode = 05C2;
},
{
glyphname = sofpasuq;
lastChange = "2018-07-29 15:04:19 +0000";
layers = (
{
layerId = "3C317020-980B-44E8-A79B-F384FFC5B400";
paths = (
{
closed = 1;
nodes = (
"-41 981 OFFCURVE",
"-46 970 QCURVE SMOOTH",
"-68 920 OFFCURVE",
"-105 802 QCURVE",
"-110 792 OFFCURVE",
"-101 783 QCURVE",
"-63 749 OFFCURVE",
"64 663 OFFCURVE",
"85 663 QCURVE SMOOTH",
"90 663 OFFCURVE",
"93 668 QCURVE",
"120 751 LINE",
"151 832 LINE",
"152 835 OFFCURVE",
"150 844 QCURVE SMOOTH",
"148 852 OFFCURVE",
"117 868 OFFCURVE",
"26 927 OFFCURVE",
"-28 973 QCURVE"
);
},
{
closed = 1;
nodes = (
"115 300 OFFCURVE",
"111 289 QCURVE",
"86 229 OFFCURVE",
"52 121 QCURVE",
"49 109 OFFCURVE",
"56 102 QCURVE",
"94 68 OFFCURVE",
"221 -18 OFFCURVE",
"242 -18 QCURVE SMOOTH",
"248 -18 OFFCURVE",
"250 -13 QCURVE",
"277 70 LINE",
"308 151 LINE",
"310 158 OFFCURVE",
"307 164 QCURVE",
"305 171 OFFCURVE",
"273 188 OFFCURVE",
"184 245 OFFCURVE",
"130 292 QCURVE"
);
}
);
width = 490;
}
);
note = sofpasuq;
unicode = 05C3;
},
{
glyphname = upperdot;
lastChange = "2018-07-29 15:04:19 +0000";
layers = (
{
layerId = "3C317020-980B-44E8-A79B-F384FFC5B400";
paths = (
{
closed = 1;
nodes = (
"-465 1997 LINE",
"-558 1835 LINE",
"-386 1674 LINE",
"-291 1831 LINE"
);
}
);
width = 0;
}
);
note = upperdot;
unicode = 05C4;
},
{
glyphname = lowerdot;
lastChange = "2018-07-29 15:04:19 +0000";
layers = (
{
layerId = "3C317020-980B-44E8-A79B-F384FFC5B400";
paths = (
{
closed = 1;
nodes = (
"139 -620 LINE",
"47 -782 LINE",
"218 -943 LINE",
"313 -786 LINE"
);
}
);
width = 0;
}
);
note = lowerdot;
unicode = 05C5;
},
{
glyphname = nunhapukha;
lastChange = "2018-07-29 15:04:19 +0000";
layers = (
{
layerId = "3C317020-980B-44E8-A79B-F384FFC5B400";
paths = (
{
closed = 1;
nodes = (
"-94 1051 OFFCURVE",
"-94 1005 QCURVE SMOOTH",
"-94 975 OFFCURVE",
"-76 864 OFFCURVE",
"-74 842 QCURVE",
"-15 821 OFFCURVE",
"21 821 QCURVE SMOOTH",
"44 821 OFFCURVE",
"60 826 QCURVE",
"50 746 OFFCURVE",
"50 719 QCURVE SMOOTH",
"50 666 OFFCURVE",
"66 570 QCURVE",
"66 503 OFFCURVE",
"50 316 OFFCURVE",
"50 268 QCURVE SMOOTH",
"50 224 LINE",
"50 200 LINE",
"64 138 OFFCURVE",
"124 76 QCURVE",
"284 -8 OFFCURVE",
"558 -54 QCURVE",
"572 -17 OFFCURVE",
"572 14 QCURVE SMOOTH",
"572 93 OFFCURVE",
"486 174 QCURVE",
"396 177 OFFCURVE",
"284 214 OFFCURVE",
"228 246 QCURVE",
"227 359 OFFCURVE",
"152 673 OFFCURVE",
"150 788 QCURVE",
"202 849 OFFCURVE",
"280 849 QCURVE SMOOTH",
"295 849 OFFCURVE",
"302 848 QCURVE",
"310 886 OFFCURVE",
"310 923 QCURVE SMOOTH",
"310 992 OFFCURVE",
"280 1116 QCURVE",
"221 1061 OFFCURVE",
"107 1061 QCURVE SMOOTH",
"27 1061 OFFCURVE",
"-78 1088 QCURVE"
);
}
);
width = 651;
}
);
note = nunhapukha;
unicode = 05C6;
},
{
glyphname = qamatsqatan;
lastChange = "2018-07-29 15:04:19 +0000";
layers = (
{
layerId = "3C317020-980B-44E8-A79B-F384FFC5B400";
paths = (
{
closed = 1;
nodes = (
"44 -292 OFFCURVE",
"52 -322 QCURVE",
"52 -326 LINE",
"56 -341 OFFCURVE",
"74 -434 OFFCURVE",
"74 -453 QCURVE SMOOTH",
"74 -455 OFFCURVE",
"73 -459 OFFCURVE",
"73 -460 QCURVE",
"59 -550 LINE",
"89 -610 OFFCURVE",
"123 -634 QCURVE",
"143 -640 OFFCURVE",
"168 -636 QCURVE",
"190 -607 OFFCURVE",
"198 -550 QCURVE",
"141 -460 LINE SMOOTH",
"121 -426 OFFCURVE",
"99 -324 QCURVE",
"98 -322 OFFCURVE",
"98 -320 QCURVE",
"88 -278 LINE",
"212 -278 LINE",
"190 -184 LINE",
"-106 -184 LINE",
"-84 -278 LINE",
"41 -278 LINE"
);
}
);
width = 0;
}
);
note = qamatsqatan;
unicode = 05C7;
},
{
glyphname = alef;
lastChange = "2018-07-29 15:04:19 +0000";
layers = (
{
layerId = "3C317020-980B-44E8-A79B-F384FFC5B400";
paths = (
{
closed = 1;
nodes = (
"743 516 OFFCURVE",
"743 636 QCURVE SMOOTH",
"743 704 OFFCURVE",
"726 775 QCURVE",
"776 767 LINE",
"825 817 OFFCURVE",
"839 943 QCURVE",
"681 1023 OFFCURVE",
"582 1123 QCURVE",
"553 1050 OFFCURVE",
"529 903 QCURVE",
"622 848 OFFCURVE",
"644 760 QCURVE",
"652 720 OFFCURVE",
"652 695 QCURVE SMOOTH",
"652 609 OFFCURVE",
"588 552 QCURVE",
"431 706 OFFCURVE",
"204 960 OFFCURVE",
"123 1092 QCURVE",
"22 924 LINE",
"129 827 LINE",
"63 667 OFFCURVE",
"63 533 QCURVE SMOOTH",
"63 462 OFFCURVE",
"81 383 QCURVE SMOOTH",
"94 324 OFFCURVE",
"194 188 OFFCURVE",
"255 141 QCURVE",
"255 140 OFFCURVE",
"234 101 OFFCURVE",
"231 93 OFFCURVE",
"216 60 OFFCURVE",
"213 41 OFFCURVE",
"207 10 OFFCURVE",
"207 -5 QCURVE",
"237 -49 LINE",
"291 -15 OFFCURVE",
"348 17 OFFCURVE",
"449 51 OFFCURVE",
"498 51 QCURVE",
"498 74 LINE",
"497 98 OFFCURVE",
"490 216 OFFCURVE",
"484 287 QCURVE",
"447 260 OFFCURVE",
"407 260 QCURVE SMOOTH",
"369 260 OFFCURVE",
"275 300 OFFCURVE",
"187 390 OFFCURVE",
"174 447 QCURVE SMOOTH",
"166 479 OFFCURVE",
"166 514 QCURVE SMOOTH",
"166 574 OFFCURVE",
"216 650 OFFCURVE",
"249 650 QCURVE",
"265 647 OFFCURVE",
"293 629 OFFCURVE",
"307 616 OFFCURVE",
"316 605 QCURVE",
"324 594 LINE",
"464 433 OFFCURVE",
"768 153 OFFCURVE",
"983 -9 QCURVE",
"985 -9 OFFCURVE",
"995 43 OFFCURVE",
"1003 136 OFFCURVE",
"1003 179 QCURVE SMOOTH",
"1003 206 OFFCURVE",
"1002 219 QCURVE",
"893 293 OFFCURVE",
"768 387 OFFCURVE",
"691 458 QCURVE"
);
}
);
width = 1115;
}
);
note = alef;
unicode = 05D0;
},
{
glyphname = bet;
lastChange = "2018-07-29 15:04:19 +0000";
layers = (
{
layerId = "3C317020-980B-44E8-A79B-F384FFC5B400";
paths = (
{
closed = 1;
nodes = (
"343 151 OFFCURVE",
"205 151 QCURVE SMOOTH",
"171 151 OFFCURVE",
"142 154 QCURVE",
"135 94 OFFCURVE",
"135 50 QCURVE SMOOTH",
"135 -13 OFFCURVE",
"149 -75 QCURVE",
"286 -75 OFFCURVE",
"524 -51 OFFCURVE",
"852 5 OFFCURVE",
"901 12 QCURVE",
"916 64 OFFCURVE",
"916 135 QCURVE SMOOTH",
"916 145 OFFCURVE",
"910 262 QCURVE",
"800 242 LINE",
"774 286 OFFCURVE",
"729 408 OFFCURVE",
"705 504 OFFCURVE",
"685 590 QCURVE",
"682 600 OFFCURVE",
"673 638 OFFCURVE",
"671 648 QCURVE SMOOTH",
"657 711 OFFCURVE",
"636 793 OFFCURVE",
"604 898 OFFCURVE",
"571 963 OFFCURVE",
"529 1024 OFFCURVE",
"476 1052 OFFCURVE",
"445 1052 QCURVE",
"385 1042 OFFCURVE",
"289 1042 QCURVE SMOOTH",
"219 1042 LINE SMOOTH",
"137 1042 OFFCURVE",
"25 1140 QCURVE",
"-26 1075 OFFCURVE",
"-29 956 QCURVE",
"6 928 LINE",
"61 828 LINE",
"441 828 LINE",
"477 815 OFFCURVE",
"520 752 OFFCURVE",
"527 722 QCURVE SMOOTH",
"646 210 LINE"
);
}
);
width = 995;
}
);
note = bet;
unicode = 05D1;
},
{
glyphname = gimel;
lastChange = "2018-07-29 15:04:19 +0000";
layers = (
{
layerId = "3C317020-980B-44E8-A79B-F384FFC5B400";
paths = (
{
closed = 1;
nodes = (
"99 1065 OFFCURVE",
"40 1121 OFFCURVE",
"38 1128 QCURVE",
"6 1102 OFFCURVE",
"-29 1045 OFFCURVE",
"-35 1001 QCURVE",
"-26 962 LINE",
"-4 868 LINE",
"37 853 OFFCURVE",
"98 838 OFFCURVE",
"172 827 OFFCURVE",
"186 824 QCURVE",
"192 742 OFFCURVE",
"217 631 QCURVE SMOOTH",
"228 583 OFFCURVE",
"291 437 OFFCURVE",
"320 391 QCURVE",
"182 350 OFFCURVE",
"60 232 OFFCURVE",
"60 127 QCURVE SMOOTH",
"60 73 OFFCURVE",
"79 -11 QCURVE",
"119 -49 LINE",
"129 -26 OFFCURVE",
"162 52 OFFCURVE",
"179 89 OFFCURVE",
"209 141 OFFCURVE",
"236 164 OFFCURVE",
"278 182 OFFCURVE",
"304 182 QCURVE SMOOTH",
"361 182 OFFCURVE",
"502 62 OFFCURVE",
"576 -52 QCURVE",
"578 -50 OFFCURVE",
"593 -33 OFFCURVE",
"606 -13 OFFCURVE",
"618 7 QCURVE",
"623 52 OFFCURVE",
"623 75 QCURVE SMOOTH",
"623 107 OFFCURVE",
"610 165 QCURVE SMOOTH",
"602 198 OFFCURVE",
"591 238 OFFCURVE",
"562 293 OFFCURVE",
"543 307 QCURVE",
"525 313 OFFCURVE",
"488 343 OFFCURVE",
"460 377 OFFCURVE",
"425 437 OFFCURVE",
"403 478 OFFCURVE",
"365 555 OFFCURVE",
"355 574 QCURVE",
"351 586 OFFCURVE",
"319 662 OFFCURVE",
"314 684 QCURVE SMOOTH",
"308 708 OFFCURVE",
"308 736 QCURVE SMOOTH",
"308 749 OFFCURVE",
"309 756 QCURVE",
"310 759 OFFCURVE",
"332 817 OFFCURVE",
"341 842 OFFCURVE",
"351 885 OFFCURVE",
"351 899 QCURVE SMOOTH",
"351 904 OFFCURVE",
"349 914 QCURVE",
"344 935 OFFCURVE",
"323 969 OFFCURVE",
"291 994 OFFCURVE",
"259 1012 OFFCURVE",
"214 1026 OFFCURVE",
"181 1035 OFFCURVE",
"133 1047 OFFCURVE",
"121 1050 QCURVE"
);
}
);
width = 672;
}
);
note = gimel;
unicode = 05D2;
},
{
glyphname = dalet;
lastChange = "2018-07-29 15:04:19 +0000";
layers = (
{
layerId = "3C317020-980B-44E8-A79B-F384FFC5B400";
paths = (
{
closed = 1;
nodes = (
"422 815 OFFCURVE",
"422 781 QCURVE SMOOTH",
"422 733 OFFCURVE",
"435 679 QCURVE SMOOTH",
"442 652 OFFCURVE",
"451 609 QCURVE SMOOTH",
"453 599 OFFCURVE",
"490 494 OFFCURVE",
"493 482 QCURVE",
"555 355 OFFCURVE",
"622 147 OFFCURVE",
"656 0 QCURVE",
"685 -22 LINE",
"739 89 OFFCURVE",
"739 165 QCURVE SMOOTH",
"739 173 LINE SMOOTH",
"739 201 OFFCURVE",
"730 244 QCURVE SMOOTH",
"713 318 OFFCURVE",
"576 629 OFFCURVE",
"563 685 QCURVE SMOOTH",
"560 697 OFFCURVE",
"560 710 QCURVE SMOOTH",
"560 756 OFFCURVE",
"623 840 OFFCURVE",
"673 852 QCURVE",
"647 968 OFFCURVE",
"578 1056 QCURVE",
"437 1036 OFFCURVE",
"221 1036 QCURVE SMOOTH",
"190 1036 OFFCURVE",
"156 1037 OFFCURVE",
"140 1039 OFFCURVE",
"97 1044 OFFCURVE",
"75 1046 QCURVE",
"37 1053 OFFCURVE",
"-10 1079 OFFCURVE",
"-61 1135 OFFCURVE",
"-67 1140 QCURVE",
"-121 1070 OFFCURVE",
"-124 972 QCURVE",
"-90 944 LINE",
"-37 847 LINE",
"11 827 OFFCURVE",
"183 827 QCURVE SMOOTH",
"338 827 OFFCURVE",
"427 841 QCURVE"
);
}
);
width = 925;
}
);
note = dalet;
unicode = 05D3;
},
{
glyphname = he;
lastChange = "2018-07-29 15:04:19 +0000";
layers = (
{
layerId = "3C317020-980B-44E8-A79B-F384FFC5B400";
paths = (
{
closed = 1;
nodes = (
"327 270 OFFCURVE",
"285 363 OFFCURVE",
"268 438 QCURVE SMOOTH",
"262 462 LINE SMOOTH",
"255 492 OFFCURVE",
"248 568 OFFCURVE",
"246 613 OFFCURVE",
"245 727 OFFCURVE",
"245 746 QCURVE",
"165 621 OFFCURVE",
"165 440 QCURVE SMOOTH",
"165 356 OFFCURVE",
"185 268 QCURVE SMOOTH",
"208 172 OFFCURVE",
"282 -12 QCURVE",
"335 -36 LINE",
"359 25 OFFCURVE",
"377 224 QCURVE"
);
},
{
closed = 1;
nodes = (
"646 809 OFFCURVE",
"646 770 QCURVE SMOOTH",
"646 707 OFFCURVE",
"668 617 QCURVE",
"674 588 OFFCURVE",
"683 550 QCURVE",
"731 442 OFFCURVE",
"872 1 OFFCURVE",
"875 -7 QCURVE",
"903 -28 LINE",
"957 77 OFFCURVE",
"957 156 QCURVE SMOOTH",
"957 167 LINE SMOOTH",
"957 202 OFFCURVE",
"948 238 QCURVE SMOOTH",
"931 312 OFFCURVE",
"791 637 OFFCURVE",
"778 693 QCURVE SMOOTH",
"771 724 OFFCURVE",
"771 746 QCURVE SMOOTH",
"771 813 OFFCURVE",
"825 856 QCURVE",
"803 951 OFFCURVE",
"728 1050 QCURVE",
"544 1024 OFFCURVE",
"433 1024 QCURVE SMOOTH",
"302 1024 OFFCURVE",
"186 1048 QCURVE SMOOTH",
"157 1053 OFFCURVE",
"104 1080 OFFCURVE",
"78 1100 OFFCURVE",
"32 1143 OFFCURVE",
"27 1148 QCURVE",
"-27 1078 OFFCURVE",
"-30 980 QCURVE",
"4 952 LINE",
"60 850 LINE",
"116 850 OFFCURVE",
"344 832 OFFCURVE",
"400 832 QCURVE SMOOTH",
"538 832 OFFCURVE",
"653 850 QCURVE"
);
}
);
width = 1099;
}
);
note = he;
unicode = 05D4;
},
{
glyphname = vav;
lastChange = "2018-07-29 15:04:19 +0000";
layers = (
{
layerId = "3C317020-980B-44E8-A79B-F384FFC5B400";
paths = (
{
closed = 1;
nodes = (
"359 -20 LINE",
"386 36 OFFCURVE",
"386 148 QCURVE SMOOTH",
"386 203 LINE",
"324 479 LINE SMOOTH",
"319 502 OFFCURVE",
"301 579 QCURVE SMOOTH",
"282 663 OFFCURVE",
"254 771 OFFCURVE",
"209 908 OFFCURVE",
"166 988 OFFCURVE",
"105 1044 OFFCURVE",
"71 1044 QCURVE",
"55 1047 LINE SMOOTH",
"17 1054 OFFCURVE",
"-27 1080 OFFCURVE",
"-72 1131 OFFCURVE",
"-80 1138 QCURVE",
"-135 1066 OFFCURVE",
"-137 970 QCURVE",
"-102 942 LINE",
"-44 827 LINE",
"60 827 LINE SMOOTH",
"85 827 OFFCURVE",
"117 801 OFFCURVE",
"129 773 OFFCURVE",
"135 747 QCURVE SMOOTH",
"141 718 OFFCURVE",
"298 117 OFFCURVE",
"311 62 QCURVE"
);
}
);
width = 500;
}
);
note = vav;
unicode = 05D5;
},
{
glyphname = zain;
lastChange = "2018-07-29 15:04:19 +0000";
layers = (
{
layerId = "3C317020-980B-44E8-A79B-F384FFC5B400";
paths = (
{
closed = 1;
nodes = (
"-137 1105 OFFCURVE",
"-137 1054 QCURVE SMOOTH",
"-137 999 OFFCURVE",
"-119 924 QCURVE",
"-106 910 OFFCURVE",
"-83 890 OFFCURVE",
"-58 873 OFFCURVE",
"-41 864 OFFCURVE",
"-4 845 OFFCURVE",
"8 839 QCURVE",
"20 832 OFFCURVE",
"20 816 QCURVE",
"3 650 OFFCURVE",
"3 603 QCURVE SMOOTH",
"3 552 OFFCURVE",
"11 517 QCURVE",
"12 510 OFFCURVE",
"17 487 OFFCURVE",
"18 484 QCURVE",
"29 465 OFFCURVE",
"86 368 OFFCURVE",
"105 335 OFFCURVE",
"151 254 OFFCURVE",
"178 203 OFFCURVE",
"221 120 OFFCURVE",
"265 33 OFFCURVE",
"291 -20 QCURVE",
"326 106 LINE",
"326 131 OFFCURVE",
"330 175 OFFCURVE",
"330 180 QCURVE SMOOTH",
"330 201 OFFCURVE",
"320 242 QCURVE SMOOTH",
"299 336 OFFCURVE",
"177 554 OFFCURVE",
"149 624 QCURVE",
"145 641 OFFCURVE",
"104 733 OFFCURVE",
"96 768 QCURVE",
"100 788 OFFCURVE",
"115 788 QCURVE SMOOTH",
"122 788 OFFCURVE",
"132 784 QCURVE SMOOTH",
"291 716 LINE",
"293 754 OFFCURVE",
"293 774 QCURVE SMOOTH",
"293 830 OFFCURVE",
"282 878 QCURVE SMOOTH",
"274 917 OFFCURVE",
"256 952 QCURVE",
"241 958 OFFCURVE",
"158 994 OFFCURVE",
"124 1009 OFFCURVE",
"49 1046 OFFCURVE",
"-4 1080 OFFCURVE",
"-82 1134 OFFCURVE",
"-123 1167 QCURVE"
);
}
);
width = 517;
}
);
note = zain;
unicode = 05D6;
},
{
glyphname = het;
lastChange = "2018-07-29 15:04:19 +0000";
layers = (
{
layerId = "3C317020-980B-44E8-A79B-F384FFC5B400";
paths = (
{
closed = 1;
nodes = (
"104 774 OFFCURVE",
"104 735 QCURVE SMOOTH",
"104 679 OFFCURVE",
"126 580 QCURVE SMOOTH",
"142 513 LINE",
"184 417 OFFCURVE",
"223 250 QCURVE SMOOTH",
"231 216 OFFCURVE",
"266 43 OFFCURVE",
"280 -18 QCURVE",
"309 -39 LINE",
"371 87 OFFCURVE",
"371 149 QCURVE SMOOTH",
"371 155 LINE SMOOTH",
"371 183 OFFCURVE",
"362 226 QCURVE SMOOTH",
"345 299 OFFCURVE",
"250 599 OFFCURVE",
"237 656 QCURVE SMOOTH",
"230 689 OFFCURVE",
"230 714 QCURVE SMOOTH",
"230 795 OFFCURVE",
"283 837 QCURVE",
"313 837 OFFCURVE",
"423 828 OFFCURVE",
"445 828 QCURVE SMOOTH",
"583 828 OFFCURVE",
"698 846 QCURVE",
"693 816 OFFCURVE",
"693 794 QCURVE SMOOTH",
"693 753 OFFCURVE",
"708 689 QCURVE SMOOTH",
"711 675 OFFCURVE",
"724 619 OFFCURVE",
"727 605 QCURVE SMOOTH",
"729 596 OFFCURVE",
"759 509 OFFCURVE",
"762 496 QCURVE",
"839 321 OFFCURVE",
"885 123 QCURVE SMOOTH",
"917 -18 LINE",
"945 -39 LINE",
"969 9 OFFCURVE",
"997 153 OFFCURVE",
"997 204 QCURVE SMOOTH",
"997 213 LINE SMOOTH",
"997 244 OFFCURVE",
"987 284 QCURVE SMOOTH",
"970 358 OFFCURVE",
"836 633 OFFCURVE",
"823 689 QCURVE SMOOTH",
"816 720 OFFCURVE",
"816 742 QCURVE SMOOTH",
"816 809 OFFCURVE",
"870 852 QCURVE",
"844 968 OFFCURVE",
"775 1056 QCURVE",
"605 1032 OFFCURVE",
"479 1032 QCURVE SMOOTH",
"317 1032 OFFCURVE",
"182 1060 QCURVE SMOOTH",
"167 1063 OFFCURVE",
"138 1071 OFFCURVE",
"118 1078 OFFCURVE",
"92 1094 OFFCURVE",
"80 1099 OFFCURVE",
"54 1120 OFFCURVE",
"50 1123 OFFCURVE",
"36 1136 QCURVE",
"22 1148 LINE",
"-32 1078 OFFCURVE",
"-35 980 QCURVE",
"0 952 LINE",
"54 852 LINE",
"67 852 OFFCURVE",
"132 846 OFFCURVE",
"149 846 QCURVE",
"111 813 LINE"
);
}
);
width = 1142;
}
);
note = het;
unicode = 05D7;
},
{
glyphname = tet;
lastChange = "2018-07-29 15:04:19 +0000";
layers = (
{
layerId = "3C317020-980B-44E8-A79B-F384FFC5B400";
paths = (
{
closed = 1;
nodes = (
"212 862 OFFCURVE",
"212 913 QCURVE SMOOTH",
"212 928 OFFCURVE",
"209 942 QCURVE SMOOTH",
"198 989 OFFCURVE",
"143 1040 OFFCURVE",
"88 1057 QCURVE",
"-8 1122 OFFCURVE",
"-29 1174 QCURVE",
"-42 1158 OFFCURVE",
"-66 1117 OFFCURVE",
"-97 1056 OFFCURVE",
"-106 1039 QCURVE",
"-83 1006 LINE",
"-73 898 LINE",
"68 819 LINE",
"89 725 OFFCURVE",
"89 695 QCURVE SMOOTH",
"89 688 OFFCURVE",
"87 666 OFFCURVE",
"87 657 QCURVE",
"131 468 OFFCURVE",
"292 86 OFFCURVE",
"378 -18 QCURVE",
"698 17 OFFCURVE",
"846 190 QCURVE",
"888 284 OFFCURVE",
"888 411 QCURVE SMOOTH",
"888 526 OFFCURVE",
"854 671 QCURVE SMOOTH",
"851 685 OFFCURVE",
"837 748 OFFCURVE",
"833 765 QCURVE SMOOTH",
"810 866 OFFCURVE",
"740 1005 OFFCURVE",
"672 1048 QCURVE",
"582 1093 OFFCURVE",
"514 1093 QCURVE SMOOTH",
"437 1093 OFFCURVE",
"395 1060 QCURVE",
"375 1043 OFFCURVE",
"354 1022 OFFCURVE",
"326 983 OFFCURVE",
"313 932 OFFCURVE",
"313 900 QCURVE SMOOTH",
"313 854 OFFCURVE",
"327 795 QCURVE",
"403 776 LINE",
"401 794 OFFCURVE",
"401 801 QCURVE SMOOTH",
"401 857 OFFCURVE",
"464 907 OFFCURVE",
"509 907 QCURVE SMOOTH",
"517 907 OFFCURVE",
"532 902 QCURVE",
"580 889 OFFCURVE",
"650 831 OFFCURVE",
"696 740 OFFCURVE",
"723 660 OFFCURVE",
"736 601 QCURVE SMOOTH",
"753 529 OFFCURVE",
"753 469 QCURVE SMOOTH",
"753 410 OFFCURVE",
"738 393 QCURVE",
"734 389 OFFCURVE",
"701 348 OFFCURVE",
"691 336 OFFCURVE",
"659 300 OFFCURVE",
"645 287 OFFCURVE",
"613 258 OFFCURVE",
"593 247 OFFCURVE",
"560 228 OFFCURVE",
"532 220 OFFCURVE",
"497 214 OFFCURVE",
"479 214 QCURVE SMOOTH",
"469 214 OFFCURVE",
"424 218 OFFCURVE",
"413 218 QCURVE SMOOTH",
"409 218 OFFCURVE",
"313 401 OFFCURVE",
"201 659 OFFCURVE",
"183 736 QCURVE SMOOTH",
"176 766 OFFCURVE",
"175 786 QCURVE"
);
}
);
width = 1083;
}
);
note = tet;
unicode = 05D8;
},
{
glyphname = yod;
lastChange = "2018-07-29 15:04:19 +0000";
layers = (
{
layerId = "3C317020-980B-44E8-A79B-F384FFC5B400";
paths = (
{
closed = 1;
nodes = (
"35 852 OFFCURVE",
"117 795 OFFCURVE",
"129 743 QCURVE SMOOTH",
"132 731 OFFCURVE",
"140 681 OFFCURVE",
"143 669 QCURVE",
"147 649 OFFCURVE",
"163 539 OFFCURVE",
"171 505 QCURVE",
"242 477 LINE",
"258 655 OFFCURVE",
"258 753 QCURVE SMOOTH",
"258 787 OFFCURVE",
"244 840 QCURVE",
"232 895 OFFCURVE",
"201 968 OFFCURVE",
"171 990 QCURVE SMOOTH",
"151 1004 OFFCURVE",
"132 1018 OFFCURVE",
"110 1028 OFFCURVE",
"104 1030 OFFCURVE",
"76 1038 OFFCURVE",
"66 1041 QCURVE",
"37 1046 OFFCURVE",
"-21 1076 OFFCURVE",
"-50 1099 OFFCURVE",
"-103 1149 OFFCURVE",
"-107 1152 QCURVE",
"-153 1091 OFFCURVE",
"-156 968 QCURVE",
"-124 938 LINE",
"-68 852 LINE"
);
}
);
width = 491;
}
);
note = yod;
unicode = 05D9;
},
{
glyphname = finalkaf;
lastChange = "2018-07-29 15:04:19 +0000";
layers = (
{
layerId = "3C317020-980B-44E8-A79B-F384FFC5B400";
paths = (
{
closed = 1;
nodes = (
"-1 1059 OFFCURVE",
"-33 1091 OFFCURVE",
"-54 1129 OFFCURVE",
"-57 1131 QCURVE",
"-111 1061 OFFCURVE",
"-114 963 QCURVE",
"-80 935 LINE",
"-52 870 LINE",
"-14 860 OFFCURVE",
"62 846 OFFCURVE",
"110 840 OFFCURVE",
"205 830 OFFCURVE",
"231 827 QCURVE",
"343 827 OFFCURVE",
"458 845 QCURVE",
"434 710 OFFCURVE",
"434 636 QCURVE SMOOTH",
"434 594 OFFCURVE",
"442 557 QCURVE SMOOTH",
"458 490 LINE",
"486 411 OFFCURVE",
"578 156 OFFCURVE",
"607 71 OFFCURVE",
"656 -77 OFFCURVE",
"684 -180 OFFCURVE",
"699 -246 QCURVE SMOOTH",
"714 -316 OFFCURVE",
"723 -397 QCURVE",
"752 -418 LINE",
"805 -312 OFFCURVE",
"805 -234 QCURVE SMOOTH",
"805 -223 LINE SMOOTH",
"805 -188 OFFCURVE",
"796 -152 QCURVE",
"792 -114 OFFCURVE",
"781 -70 QCURVE",
"778 -37 OFFCURVE",
"764 27 QCURVE SMOOTH",
"746 103 OFFCURVE",
"638 412 OFFCURVE",
"617 502 QCURVE SMOOTH",
"593 606 OFFCURVE",
"588 697 QCURVE",
"584 712 OFFCURVE",
"584 729 QCURVE SMOOTH",
"584 794 OFFCURVE",
"657 851 QCURVE",
"629 968 OFFCURVE",
"561 1055 QCURVE",
"393 1031 OFFCURVE",
"265 1031 QCURVE SMOOTH",
"134 1031 OFFCURVE",
"18 1055 QCURVE SMOOTH"
);
}
);
width = 909;
}
);
note = finalkaf;
unicode = 05DA;
},
{
glyphname = kaf;
lastChange = "2018-07-29 15:04:19 +0000";
layers = (
{
layerId = "3C317020-980B-44E8-A79B-F384FFC5B400";
paths = (
{
closed = 1;
nodes = (
"550 976 OFFCURVE",
"464 1021 OFFCURVE",
"402 1021 QCURVE SMOOTH",
"380 1021 OFFCURVE",
"282 1014 OFFCURVE",
"255 1014 QCURVE SMOOTH",
"198 1014 OFFCURVE",
"132 1025 QCURVE",
"106 1033 OFFCURVE",
"64 1051 OFFCURVE",
"31 1074 OFFCURVE",
"13 1089 OFFCURVE",
"-17 1117 OFFCURVE",
"-24 1123 QCURVE",
"-78 1053 OFFCURVE",
"-81 955 QCURVE",
"-47 927 LINE",
"8 827 LINE",
"368 827 LINE",
"404 823 OFFCURVE",
"460 791 OFFCURVE",
"503 734 OFFCURVE",
"531 683 OFFCURVE",
"570 602 OFFCURVE",
"583 580 QCURVE",
"590 565 OFFCURVE",
"622 503 OFFCURVE",
"640 467 OFFCURVE",
"660 418 OFFCURVE",
"664 400 QCURVE SMOOTH",
"668 380 OFFCURVE",
"668 371 QCURVE SMOOTH",
"668 348 OFFCURVE",
"658 334 QCURVE",
"629 289 OFFCURVE",
"510 232 OFFCURVE",
"340 209 OFFCURVE",
"219 203 OFFCURVE",
"132 203 QCURVE",
"123 161 OFFCURVE",
"123 106 QCURVE SMOOTH",
"123 74 OFFCURVE",
"129 -16 QCURVE",
"355 -16 OFFCURVE",
"638 62 OFFCURVE",
"768 145 QCURVE",
"799 201 OFFCURVE",
"799 281 QCURVE SMOOTH",
"799 336 OFFCURVE",
"783 406 QCURVE SMOOTH",
"770 460 OFFCURVE",
"719 602 OFFCURVE",
"680 694 OFFCURVE",
"595 881 OFFCURVE",
"581 913 QCURVE"
);
}
);
width = 953;
}
);
note = kaf;
unicode = 05DB;
},
{
glyphname = lamed;
lastChange = "2018-07-29 15:04:19 +0000";
layers = (
{
layerId = "3C317020-980B-44E8-A79B-F384FFC5B400";
paths = (
{
closed = 1;
nodes = (
"426 268 OFFCURVE",
"426 251 QCURVE SMOOTH",
"426 208 OFFCURVE",
"436 170 QCURVE",
"440 151 OFFCURVE",
"457 97 OFFCURVE",
"458 93 QCURVE",
"458 91 OFFCURVE",
"488 51 OFFCURVE",
"546 -4 OFFCURVE",
"574 -16 QCURVE",
"597 59 OFFCURVE",
"597 116 QCURVE SMOOTH",
"597 157 OFFCURVE",
"587 200 QCURVE",
"565 205 OFFCURVE",
"532 232 OFFCURVE",
"528 250 QCURVE",
"527 257 OFFCURVE",
"528 266 QCURVE SMOOTH",
"533 310 OFFCURVE",
"669 736 OFFCURVE",
"674 824 QCURVE",
"647 938 OFFCURVE",
"565 1013 QCURVE",
"535 1038 OFFCURVE",
"496 1046 QCURVE",
"441 1046 OFFCURVE",
"97 1052 OFFCURVE",
"47 1052 QCURVE SMOOTH",
"14 1052 OFFCURVE",
"-33 1130 OFFCURVE",
"-44 1180 QCURVE SMOOTH",
"-56 1229 OFFCURVE",
"-68 1515 OFFCURVE",
"-84 1584 QCURVE SMOOTH",
"-94 1627 OFFCURVE",
"-107 1656 QCURVE",
"-122 1676 OFFCURVE",
"-146 1676 QCURVE SMOOTH",
"-156 1676 OFFCURVE",
"-161 1672 QCURVE",
"-262 1520 LINE",
"-266 1510 OFFCURVE",
"-264 1497 QCURVE",
"-260 1483 OFFCURVE",
"-234 1467 OFFCURVE",
"-220 1467 QCURVE",
"-194 1475 OFFCURVE",
"-179 1475 QCURVE SMOOTH",
"-149 1475 OFFCURVE",
"-139 1434 QCURVE SMOOTH",
"-134 1414 OFFCURVE",
"-134 1377 QCURVE SMOOTH",
"-134 1353 OFFCURVE",
"-140 1259 OFFCURVE",
"-140 1242 QCURVE SMOOTH",
"-140 1228 LINE",
"-129 1122 OFFCURVE",
"-103 1012 QCURVE SMOOTH",
"-62 836 OFFCURVE",
"67 836 QCURVE SMOOTH",
"427 836 LINE SMOOTH",
"452 836 OFFCURVE",
"513 772 OFFCURVE",
"522 734 QCURVE",
"522 732 OFFCURVE",
"524 726 OFFCURVE",
"525 721 OFFCURVE",
"525 719 QCURVE SMOOTH",
"523 619 OFFCURVE",
"493 446 OFFCURVE",
"459 356 OFFCURVE",
"428 285 OFFCURVE",
"427 277 QCURVE SMOOTH"
);
}
);
width = 902;
}
);
note = lamed;
unicode = 05DC;
},
{
glyphname = finalmem;
lastChange = "2018-07-29 15:04:19 +0000";
layers = (
{
layerId = "3C317020-980B-44E8-A79B-F384FFC5B400";
paths = (
{
closed = 1;
nodes = (
"780 294 LINE SMOOTH",
"723 279 OFFCURVE",
"543 221 OFFCURVE",
"477 194 QCURVE",
"462 187 OFFCURVE",
"445 187 QCURVE SMOOTH",
"417 187 OFFCURVE",
"370 228 OFFCURVE",
"358 260 QCURVE",
"328 316 LINE SMOOTH",
"299 371 OFFCURVE",
"219 574 OFFCURVE",
"198 666 QCURVE SMOOTH",
"179 755 OFFCURVE",
"179 807 QCURVE SMOOTH",
"179 826 OFFCURVE",
"179 826 QCURVE",
"304 846 OFFCURVE",
"427 846 QCURVE SMOOTH",
"671 846 OFFCURVE",
"700 764 QCURVE",
"767 613 OFFCURVE",
"802 462 QCURVE SMOOTH",
"837 310 OFFCURVE",
"837 310 QCURVE"
);
},
{
closed = 1;
nodes = (
"12 852 OFFCURVE",
"37 845 OFFCURVE",
"67 838 OFFCURVE",
"75 838 QCURVE SMOOTH",
"123 838 LINE",
"120 831 LINE",
"116 824 OFFCURVE",
"108 781 OFFCURVE",
"108 751 QCURVE SMOOTH",
"108 665 OFFCURVE",
"139 533 QCURVE SMOOTH",
"180 352 OFFCURVE",
"275 116 QCURVE",
"300 12 OFFCURVE",
"359 -56 OFFCURVE",
"407 -56 QCURVE",
"998 156 LINE",
"998 168 OFFCURVE",
"1001 219 OFFCURVE",
"1001 232 QCURVE SMOOTH",
"1001 258 OFFCURVE",
"995 288 QCURVE",
"987 318 OFFCURVE",
"972 346 QCURVE",
"948 361 OFFCURVE",
"929 394 QCURVE",
"870 651 OFFCURVE",
"764 928 QCURVE",
"761 935 OFFCURVE",
"747 972 OFFCURVE",
"740 987 OFFCURVE",
"724 1015 OFFCURVE",
"708 1028 OFFCURVE",
"683 1044 OFFCURVE",
"649 1050 OFFCURVE",
"628 1050 QCURVE SMOOTH",
"581 1050 OFFCURVE",
"392 1039 OFFCURVE",
"344 1039 QCURVE SMOOTH",
"229 1039 OFFCURVE",
"137 1062 QCURVE",
"99 1069 OFFCURVE",
"44 1103 OFFCURVE",
"-19 1169 OFFCURVE",
"-23 1172 QCURVE",
"-78 1100 OFFCURVE",
"-80 1004 QCURVE",
"-45 976 LINE",
"11 852 LINE"
);
}
);
width = 1143;
}
);
note = finalmem;
unicode = 05DD;
},
{
glyphname = mem;
lastChange = "2018-07-29 15:04:19 +0000";
layers = (
{
layerId = "3C317020-980B-44E8-A79B-F384FFC5B400";
paths = (
{
closed = 1;
nodes = (
"21 1093 OFFCURVE",
"-5 1038 OFFCURVE",
"-18 979 QCURVE",
"-18 977 LINE",
"-17 973 OFFCURVE",
"-1 956 OFFCURVE",
"0 951 QCURVE",
"0 949 LINE",
"-4 880 LINE",
"93 859 OFFCURVE",
"190 774 OFFCURVE",
"198 735 QCURVE",
"201 725 OFFCURVE",
"200 719 QCURVE SMOOTH",
"195 690 OFFCURVE",
"172 558 OFFCURVE",
"161 491 OFFCURVE",
"146 389 OFFCURVE",
"140 308 OFFCURVE",
"140 271 QCURVE SMOOTH",
"140 200 OFFCURVE",
"152 149 QCURVE",
"213 184 OFFCURVE",
"247 230 QCURVE",
"255 273 OFFCURVE",
"274 403 OFFCURVE",
"288 486 OFFCURVE",
"314 594 OFFCURVE",
"355 668 OFFCURVE",
"419 746 OFFCURVE",
"518 803 OFFCURVE",
"584 824 QCURVE",
"648 779 OFFCURVE",
"695 692 QCURVE SMOOTH",
"736 614 OFFCURVE",
"774 451 QCURVE",
"776 439 OFFCURVE",
"786 401 OFFCURVE",
"786 400 QCURVE",
"795 360 OFFCURVE",
"795 330 QCURVE SMOOTH",
"795 237 OFFCURVE",
"710 207 QCURVE",
"561 171 OFFCURVE",
"326 171 QCURVE",
"308 110 OFFCURVE",
"308 68 QCURVE SMOOTH",
"308 46 OFFCURVE",
"312 27 QCURVE SMOOTH",
"320 -10 OFFCURVE",
"345 -42 QCURVE",
"377 -39 OFFCURVE",
"484 -28 OFFCURVE",
"551 -21 OFFCURVE",
"649 -9 OFFCURVE",
"713 3 OFFCURVE",
"794 23 OFFCURVE",
"845 45 OFFCURVE",
"900 78 OFFCURVE",
"930 117 OFFCURVE",
"950 168 OFFCURVE",
"950 198 QCURVE SMOOTH",
"950 219 OFFCURVE",
"943 252 QCURVE SMOOTH",
"912 385 LINE",
"910 393 LINE SMOOTH",
"896 453 OFFCURVE",
"879 528 OFFCURVE",
"846 655 OFFCURVE",
"819 739 OFFCURVE",
"779 852 OFFCURVE",
"741 927 OFFCURVE",
"691 1009 OFFCURVE",
"640 1057 OFFCURVE",
"577 1088 OFFCURVE",
"544 1088 QCURVE",
"382 1007 OFFCURVE",
"277 863 QCURVE",
"277 881 OFFCURVE",
"274 894 QCURVE SMOOTH",
"264 940 OFFCURVE",
"238 955 QCURVE SMOOTH",
"205 974 OFFCURVE",
"157 1003 OFFCURVE",
"121 1032 OFFCURVE",
"101 1047 OFFCURVE",
"79 1077 OFFCURVE",
"73 1085 OFFCURVE",
"51 1124 OFFCURVE",
"48 1130 QCURVE"
);
}
);
width = 1088;
}
);
note = mem;
unicode = 05DE;
},
{
glyphname = finalnun;
lastChange = "2018-07-29 15:04:19 +0000";
layers = (
{
layerId = "3C317020-980B-44E8-A79B-F384FFC5B400";
paths = (
{
closed = 1;
nodes = (
"192 138 OFFCURVE",
"229 38 OFFCURVE",
"257 -40 OFFCURVE",
"289 -143 OFFCURVE",
"297 -178 QCURVE SMOOTH",
"311 -238 OFFCURVE",
"311 -303 QCURVE SMOOTH",
"311 -325 OFFCURVE",
"307 -380 OFFCURVE",
"307 -385 QCURVE SMOOTH",
"307 -387 OFFCURVE",
"308 -393 OFFCURVE",
"308 -394 QCURVE",
"316 -372 OFFCURVE",
"352 -337 QCURVE",
"409 -232 OFFCURVE",
"409 -90 QCURVE SMOOTH",
"409 -42 OFFCURVE",
"402 -10 QCURVE SMOOTH",
"380 88 OFFCURVE",
"238 356 OFFCURVE",
"216 419 QCURVE SMOOTH",
"206 447 OFFCURVE",
"191 510 QCURVE SMOOTH",
"185 536 OFFCURVE",
"166 630 OFFCURVE",
"162 647 QCURVE SMOOTH",
"152 689 OFFCURVE",
"151 720 QCURVE",
"203 790 OFFCURVE",
"203 895 QCURVE SMOOTH",
"203 919 OFFCURVE",
"202 931 QCURVE",
"191 978 OFFCURVE",
"149 999 QCURVE",
"70 1035 OFFCURVE",
"23 1061 QCURVE",
"-33 1099 OFFCURVE",
"-65 1179 QCURVE",
"-132 1125 OFFCURVE",
"-142 1044 QCURVE",
"-119 1011 LINE",
"-136 915 LINE",
"63 770 LINE",
"32 705 OFFCURVE",
"32 634 QCURVE SMOOTH",
"32 583 OFFCURVE",
"50 503 QCURVE SMOOTH",
"64 440 OFFCURVE",
"104 335 OFFCURVE",
"170 191 OFFCURVE",
"187 151 QCURVE SMOOTH"
);
}
);
width = 459;
}
);
note = finalnun;
unicode = 05DF;
},
{
glyphname = nun;
lastChange = "2018-07-29 15:04:19 +0000";
layers = (
{
layerId = "3C317020-980B-44E8-A79B-F384FFC5B400";
paths = (
{
closed = 1;
nodes = (
"51 1095 OFFCURVE",
"21 1128 OFFCURVE",
"9 1158 QCURVE",
"-62 1100 OFFCURVE",
"-72 1019 QCURVE",
"-50 986 LINE",
"-57 912 LINE",
"-9 891 OFFCURVE",
"22 876 OFFCURVE",
"85 839 OFFCURVE",
"120 813 QCURVE",
"168 708 OFFCURVE",
"244 416 OFFCURVE",
"259 372 QCURVE SMOOTH",
"305 245 LINE",
"207 174 OFFCURVE",
"79 174 QCURVE",
"53 131 OFFCURVE",
"53 86 QCURVE SMOOTH",
"53 67 OFFCURVE",
"57 52 QCURVE",
"68 4 OFFCURVE",
"106 -46 QCURVE",
"127 -41 OFFCURVE",
"238 -19 OFFCURVE",
"295 -5 OFFCURVE",
"383 22 OFFCURVE",
"454 58 OFFCURVE",
"487 82 QCURVE",
"497 105 OFFCURVE",
"497 176 QCURVE SMOOTH",
"497 195 OFFCURVE",
"496 209 QCURVE",
"475 258 OFFCURVE",
"366 468 OFFCURVE",
"284 653 OFFCURVE",
"267 729 QCURVE",
"257 767 OFFCURVE",
"254 810 QCURVE",
"251 825 OFFCURVE",
"251 845 OFFCURVE",
"261 891 OFFCURVE",
"261 914 QCURVE SMOOTH",
"261 930 LINE",
"248 950 LINE",
"234 969 OFFCURVE",
"148 1038 OFFCURVE",
"89 1068 QCURVE"
);
}
);
width = 609;
}
);
note = nun;
unicode = 05E0;
},
{
glyphname = samekh;
lastChange = "2018-07-29 15:04:19 +0000";
layers = (
{
layerId = "3C317020-980B-44E8-A79B-F384FFC5B400";
paths = (
{
closed = 1;
nodes = (
"598 820 OFFCURVE",
"689 716 OFFCURVE",
"785 552 OFFCURVE",
"801 483 QCURVE",
"779 365 OFFCURVE",
"590 200 OFFCURVE",
"466 200 QCURVE",
"392 275 OFFCURVE",
"296 400 OFFCURVE",
"240 526 OFFCURVE",
"214 609 OFFCURVE",
"197 686 QCURVE",
"195 698 OFFCURVE",
"195 709 QCURVE SMOOTH",
"195 737 OFFCURVE",
"212 794 OFFCURVE",
"229 806 QCURVE",
"467 806 OFFCURVE",
"580 823 QCURVE"
);
},
{
closed = 1;
nodes = (
"58 1045 OFFCURVE",
"17 1112 QCURVE",
"-38 1040 OFFCURVE",
"-40 944 QCURVE",
"-5 916 LINE",
"29 838 LINE",
"103 818 OFFCURVE",
"164 810 QCURVE",
"159 791 OFFCURVE",
"110 681 OFFCURVE",
"110 664 QCURVE SMOOTH",
"110 658 LINE",
"113 614 OFFCURVE",
"126 553 QCURVE SMOOTH",
"161 404 OFFCURVE",
"360 89 OFFCURVE",
"499 -35 QCURVE",
"542 -42 LINE",
"567 -28 OFFCURVE",
"667 23 OFFCURVE",
"726 57 OFFCURVE",
"803 111 OFFCURVE",
"860 176 OFFCURVE",
"881 216 QCURVE",
"884 241 OFFCURVE",
"894 309 OFFCURVE",
"899 356 OFFCURVE",
"899 379 QCURVE SMOOTH",
"899 442 OFFCURVE",
"876 543 QCURVE SMOOTH",
"837 710 OFFCURVE",
"709 933 OFFCURVE",
"612 1040 QCURVE",
"596 1040 OFFCURVE",
"360 1026 OFFCURVE",
"285 1026 QCURVE SMOOTH",
"204 1026 OFFCURVE",
"140 1034 QCURVE SMOOTH"
);
}
);
width = 1077;
}
);
note = samekh;
unicode = 05E1;
},
{
glyphname = ayin;
lastChange = "2018-07-29 15:04:19 +0000";
layers = (
{
layerId = "3C317020-980B-44E8-A79B-F384FFC5B400";
paths = (
{
closed = 1;
nodes = (
"80 736 OFFCURVE",
"80 727 QCURVE SMOOTH",
"80 698 OFFCURVE",
"87 673 QCURVE",
"102 610 OFFCURVE",
"207 446 OFFCURVE",
"349 263 OFFCURVE",
"374 222 QCURVE",
"334 179 OFFCURVE",
"216 137 OFFCURVE",
"124 124 QCURVE",
"118 102 OFFCURVE",
"118 77 QCURVE SMOOTH",
"118 48 OFFCURVE",
"126 11 QCURVE SMOOTH",
"138 -38 OFFCURVE",
"182 -144 QCURVE",
"233 -120 OFFCURVE",
"307 -82 OFFCURVE",
"399 -29 OFFCURVE",
"465 19 OFFCURVE",
"540 84 OFFCURVE",
"591 149 OFFCURVE",
"641 234 OFFCURVE",
"671 325 OFFCURVE",
"689 436 OFFCURVE",
"689 498 QCURVE SMOOTH",
"689 626 OFFCURVE",
"653 780 QCURVE",
"689 796 LINE",
"716 960 LINE",
"692 971 OFFCURVE",
"596 1007 OFFCURVE",
"537 1032 OFFCURVE",
"453 1089 OFFCURVE",
"417 1128 QCURVE",
"361 1079 OFFCURVE",
"361 996 QCURVE SMOOTH",
"361 968 OFFCURVE",
"366 948 QCURVE SMOOTH",
"375 913 OFFCURVE",
"387 892 QCURVE",
"407 866 OFFCURVE",
"453 831 OFFCURVE",
"487 817 OFFCURVE",
"545 796 OFFCURVE",
"563 788 QCURVE",
"569 728 OFFCURVE",
"569 664 QCURVE SMOOTH",
"569 514 OFFCURVE",
"495 289 OFFCURVE",
"418 254 QCURVE",
"418 278 OFFCURVE",
"413 305 QCURVE",
"403 348 OFFCURVE",
"335 460 OFFCURVE",
"263 556 OFFCURVE",
"189 694 OFFCURVE",
"174 760 QCURVE",
"174 826 OFFCURVE",
"210 964 QCURVE",
"52 1019 OFFCURVE",
"-60 1096 QCURVE",
"-87 1045 OFFCURVE",
"-87 974 QCURVE SMOOTH",
"-87 920 OFFCURVE",
"-70 844 QCURVE",
"-41 814 OFFCURVE",
"0 783 OFFCURVE",
"21 775 OFFCURVE",
"63 764 OFFCURVE",
"82 756 QCURVE"
);
}
);
width = 984;
}
);
note = ayin;
unicode = 05E2;
},
{
glyphname = finalpe;
lastChange = "2018-07-29 15:04:19 +0000";
layers = (
{
layerId = "3C317020-980B-44E8-A79B-F384FFC5B400";
paths = (
{
closed = 1;
nodes = (
"19 1161 OFFCURVE",
"-4 1001 QCURVE",
"36 935 LINE",
"-28 871 OFFCURVE",
"-28 797 QCURVE SMOOTH",
"-28 774 OFFCURVE",
"-22 750 QCURVE SMOOTH",
"-15 718 OFFCURVE",
"24 632 QCURVE",
"10 610 OFFCURVE",
"10 582 QCURVE SMOOTH",
"10 571 OFFCURVE",
"14 549 QCURVE",
"30 481 OFFCURVE",
"87 419 QCURVE",
"136 400 OFFCURVE",
"236 400 OFFCURVE",
"293 421 QCURVE",
"303 452 OFFCURVE",
"303 490 QCURVE SMOOTH",
"303 521 OFFCURVE",
"296 549 QCURVE",
"288 587 OFFCURVE",
"262 636 QCURVE",
"226 618 OFFCURVE",
"196 618 QCURVE SMOOTH",
"144 618 OFFCURVE",
"73 708 OFFCURVE",
"57 778 QCURVE",
"57 805 OFFCURVE",
"62 834 OFFCURVE",
"81 873 OFFCURVE",
"126 896 OFFCURVE",
"162 901 QCURVE",
"238 901 OFFCURVE",
"371 852 OFFCURVE",
"447 795 QCURVE",
"510 760 OFFCURVE",
"607 538 OFFCURVE",
"650 352 QCURVE SMOOTH",
"655 330 OFFCURVE",
"668 249 OFFCURVE",
"672 230 QCURVE SMOOTH",
"696 127 OFFCURVE",
"816 -205 OFFCURVE",
"831 -269 QCURVE SMOOTH",
"837 -294 OFFCURVE",
"840 -309 QCURVE SMOOTH",
"849 -348 OFFCURVE",
"851 -382 QCURVE",
"890 -370 OFFCURVE",
"923 -323 OFFCURVE",
"923 -279 QCURVE SMOOTH",
"923 -271 OFFCURVE",
"921 -247 QCURVE",
"824 166 LINE SMOOTH",
"795 292 OFFCURVE",
"756 450 OFFCURVE",
"697 662 OFFCURVE",
"646 794 OFFCURVE",
"581 914 OFFCURVE",
"547 942 QCURVE SMOOTH",
"508 976 OFFCURVE",
"394 1014 OFFCURVE",
"266 1041 OFFCURVE",
"232 1056 QCURVE",
"226 1060 OFFCURVE",
"192 1084 OFFCURVE",
"177 1095 OFFCURVE",
"147 1119 OFFCURVE",
"130 1138 OFFCURVE",
"108 1168 OFFCURVE",
"99 1184 QCURVE"
);
}
);
width = 907;
}
);
note = finalpe;
unicode = 05E3;
},
{
glyphname = pe;
lastChange = "2018-07-29 15:04:19 +0000";
layers = (
{
layerId = "3C317020-980B-44E8-A79B-F384FFC5B400";
paths = (
{
closed = 1;
nodes = (
"0 1001 OFFCURVE",
"0 976 QCURVE SMOOTH",
"0 962 LINE",
"39 905 LINE",
"15 876 OFFCURVE",
"-5 850 OFFCURVE",
"-28 792 OFFCURVE",
"-28 762 QCURVE SMOOTH",
"-28 737 OFFCURVE",
"-21 710 QCURVE SMOOTH",
"-11 667 OFFCURVE",
"24 602 QCURVE",
"5 561 OFFCURVE",
"5 523 QCURVE SMOOTH",
"5 507 OFFCURVE",
"8 492 QCURVE",
"14 468 OFFCURVE",
"29 437 OFFCURVE",
"60 415 OFFCURVE",
"84 404 OFFCURVE",
"112 394 QCURVE",
"283 394 LINE",
"285 401 OFFCURVE",
"301 457 OFFCURVE",
"308 493 OFFCURVE",
"308 529 OFFCURVE",
"304 544 QCURVE",
"299 571 OFFCURVE",
"283 608 QCURVE",
"259 582 OFFCURVE",
"224 582 QCURVE SMOOTH",
"190 582 OFFCURVE",
"147 608 QCURVE SMOOTH",
"128 620 OFFCURVE",
"88 703 OFFCURVE",
"80 739 QCURVE SMOOTH",
"75 762 OFFCURVE",
"75 777 QCURVE SMOOTH",
"75 821 OFFCURVE",
"129 869 OFFCURVE",
"177 869 QCURVE SMOOTH",
"300 869 OFFCURVE",
"432 834 OFFCURVE",
"501 784 QCURVE SMOOTH",
"618 699 OFFCURVE",
"715 282 QCURVE",
"497 173 OFFCURVE",
"128 173 QCURVE",
"105 131 OFFCURVE",
"105 63 QCURVE SMOOTH",
"105 16 OFFCURVE",
"117 -40 QCURVE",
"629 -40 OFFCURVE",
"803 38 QCURVE",
"806 45 OFFCURVE",
"826 82 OFFCURVE",
"833 107 OFFCURVE",
"833 126 QCURVE SMOOTH",
"833 128 OFFCURVE",
"832 138 OFFCURVE",
"832 141 QCURVE",
"825 314 OFFCURVE",
"774 536 QCURVE SMOOTH",
"759 602 OFFCURVE",
"707 754 OFFCURVE",
"609 934 OFFCURVE",
"556 972 QCURVE",
"515 997 OFFCURVE",
"357 1027 OFFCURVE",
"226 1041 OFFCURVE",
"112 1100 OFFCURVE",
"100 1154 QCURVE",
"95 1156 OFFCURVE",
"87 1156 QCURVE SMOOTH",
"71 1156 OFFCURVE",
"57 1145 QCURVE SMOOTH",
"30 1123 OFFCURVE",
"8 1040 QCURVE"
);
}
);
width = 982;
}
);
note = pe;
unicode = 05E4;
},
{
glyphname = finaltsadi;
lastChange = "2018-07-29 15:04:19 +0000";
layers = (
{
layerId = "3C317020-980B-44E8-A79B-F384FFC5B400";
paths = (
{
closed = 1;
nodes = (
"178 1027 OFFCURVE",
"65 1086 OFFCURVE",
"-36 1133 OFFCURVE",
"-58 1163 QCURVE",
"-69 1146 OFFCURVE",
"-85 1112 OFFCURVE",
"-97 1086 OFFCURVE",
"-105 1054 OFFCURVE",
"-110 1036 OFFCURVE",
"-114 1002 OFFCURVE",
"-115 990 OFFCURVE",
"-117 951 OFFCURVE",
"-117 946 QCURVE",
"-102 931 OFFCURVE",
"-70 904 OFFCURVE",
"-22 875 OFFCURVE",
"-3 864 OFFCURVE",
"62 830 OFFCURVE",
"66 828 QCURVE",
"127 562 OFFCURVE",
"257 291 QCURVE SMOOTH",
"338 112 OFFCURVE",
"427 -274 QCURVE SMOOTH",
"440 -332 OFFCURVE",
"448 -390 QCURVE",
"510 -329 OFFCURVE",
"510 -183 QCURVE SMOOTH",
"510 -106 OFFCURVE",
"492 -31 QCURVE",
"488 -11 OFFCURVE",
"458 78 OFFCURVE",
"452 102 QCURVE",
"432 153 OFFCURVE",
"375 282 OFFCURVE",
"340 375 OFFCURVE",
"327 434 QCURVE SMOOTH",
"317 475 OFFCURVE",
"317 511 QCURVE SMOOTH",
"317 569 OFFCURVE",
"355 658 QCURVE SMOOTH",
"373 702 OFFCURVE",
"425 753 OFFCURVE",
"469 772 QCURVE",
"482 782 OFFCURVE",
"504 782 QCURVE SMOOTH",
"510 782 OFFCURVE",
"538 780 OFFCURVE",
"544 780 QCURVE SMOOTH",
"553 780 OFFCURVE",
"588 762 OFFCURVE",
"593 762 QCURVE",
"608 798 OFFCURVE",
"623 857 OFFCURVE",
"636 936 OFFCURVE",
"639 951 QCURVE",
"594 967 OFFCURVE",
"494 1043 OFFCURVE",
"445 1094 OFFCURVE",
"398 1145 QCURVE",
"311 1130 OFFCURVE",
"311 941 QCURVE SMOOTH",
"311 927 LINE",
"391 848 LINE",
"330 804 OFFCURVE",
"259 645 OFFCURVE",
"257 565 QCURVE",
"226 584 OFFCURVE",
"197 648 OFFCURVE",
"184 703 QCURVE",
"182 708 OFFCURVE",
"177 730 OFFCURVE",
"176 735 QCURVE SMOOTH",
"173 748 OFFCURVE",
"171 761 OFFCURVE",
"169 770 OFFCURVE",
"166 783 QCURVE",
"167 779 OFFCURVE",
"185 776 QCURVE",
"188 789 OFFCURVE",
"205 849 OFFCURVE",
"213 905 OFFCURVE",
"213 947 QCURVE SMOOTH",
"213 970 OFFCURVE",
"212 984 QCURVE"
);
}
);
width = 894;
}
);
note = finaltsadi;
unicode = 05E5;
},
{
glyphname = tsadi;
lastChange = "2018-07-29 15:04:19 +0000";
layers = (
{
layerId = "3C317020-980B-44E8-A79B-F384FFC5B400";
paths = (
{
closed = 1;
nodes = (
"457 498 OFFCURVE",
"449 528 QCURVE",
"444 550 OFFCURVE",
"447 589 QCURVE",
"450 604 OFFCURVE",
"455 648 OFFCURVE",
"458 669 OFFCURVE",
"472 705 OFFCURVE",
"496 732 OFFCURVE",
"541 771 OFFCURVE",
"574 793 QCURVE",
"586 790 OFFCURVE",
"633 767 OFFCURVE",
"652 767 QCURVE SMOOTH",
"653 767 OFFCURVE",
"675 833 OFFCURVE",
"700 914 OFFCURVE",
"704 930 QCURVE",
"670 956 OFFCURVE",
"568 1029 OFFCURVE",
"491 1089 OFFCURVE",
"456 1123 QCURVE",
"423 1086 OFFCURVE",
"388 1007 OFFCURVE",
"370 936 OFFCURVE",
"363 923 QCURVE",
"392 890 OFFCURVE",
"438 864 OFFCURVE",
"450 846 QCURVE",
"416 801 OFFCURVE",
"371 636 OFFCURVE",
"369 564 QCURVE",
"302 599 OFFCURVE",
"206 708 OFFCURVE",
"191 771 QCURVE",
"189 778 OFFCURVE",
"187 792 QCURVE",
"223 784 LINE",
"221 791 OFFCURVE",
"221 814 QCURVE SMOOTH",
"221 829 OFFCURVE",
"224 913 OFFCURVE",
"224 934 QCURVE SMOOTH",
"224 967 OFFCURVE",
"222 980 QCURVE",
"49 1032 OFFCURVE",
"-23 1147 QCURVE",
"-36 1141 OFFCURVE",
"-56 1088 OFFCURVE",
"-66 1031 OFFCURVE",
"-71 958 OFFCURVE",
"-72 930 OFFCURVE",
"-72 922 QCURVE",
"-22 870 OFFCURVE",
"54 819 OFFCURVE",
"109 800 QCURVE",
"113 788 OFFCURVE",
"116 771 QCURVE",
"142 660 OFFCURVE",
"286 490 QCURVE SMOOTH",
"308 464 OFFCURVE",
"350 425 OFFCURVE",
"412 376 OFFCURVE",
"430 360 QCURVE SMOOTH",
"552 252 LINE",
"418 188 OFFCURVE",
"263 188 QCURVE SMOOTH",
"247 188 OFFCURVE",
"163 180 OFFCURVE",
"146 180 QCURVE",
"129 68 OFFCURVE",
"129 34 QCURVE SMOOTH",
"129 3 OFFCURVE",
"130 -18 QCURVE",
"399 16 OFFCURVE",
"445 24 QCURVE SMOOTH",
"455 26 OFFCURVE",
"477 30 QCURVE SMOOTH",
"518 38 OFFCURVE",
"561 47 OFFCURVE",
"633 66 OFFCURVE",
"671 88 OFFCURVE",
"714 121 OFFCURVE",
"733 167 OFFCURVE",
"733 195 QCURVE SMOOTH",
"733 198 OFFCURVE",
"732 208 OFFCURVE",
"732 210 QCURVE",
"724 245 OFFCURVE",
"663 327 OFFCURVE",
"599 389 OFFCURVE",
"518 452 OFFCURVE",
"487 473 OFFCURVE",
"478 479 QCURVE"
);
}
);
width = 958;
}
);
note = tsadi;
unicode = 05E6;
},
{
glyphname = kof;
lastChange = "2018-07-29 15:04:19 +0000";
layers = (
{
layerId = "3C317020-980B-44E8-A79B-F384FFC5B400";
paths = (
{
closed = 1;
nodes = (
"-61 1084 OFFCURVE",
"-61 1029 QCURVE SMOOTH",
"-61 988 OFFCURVE",
"-41 897 QCURVE",
"-15 880 OFFCURVE",
"44 854 OFFCURVE",
"82 842 OFFCURVE",
"156 823 OFFCURVE",
"172 818 QCURVE",
"172 816 OFFCURVE",
"129 691 OFFCURVE",
"129 652 QCURVE SMOOTH",
"129 636 OFFCURVE",
"132 621 QCURVE SMOOTH",
"157 513 OFFCURVE",
"299 17 OFFCURVE",
"327 -106 QCURVE SMOOTH",
"371 -294 OFFCURVE",
"376 -411 QCURVE",
"377 -410 OFFCURVE",
"419 -360 OFFCURVE",
"432 -342 OFFCURVE",
"466 -291 OFFCURVE",
"480 -255 OFFCURVE",
"493 -201 OFFCURVE",
"493 -174 QCURVE SMOOTH",
"493 -143 OFFCURVE",
"486 -114 QCURVE SMOOTH",
"461 -5 OFFCURVE",
"294 363 OFFCURVE",
"266 487 QCURVE SMOOTH",
"193 803 LINE",
"324 830 OFFCURVE",
"569 830 QCURVE",
"581 819 OFFCURVE",
"605 791 OFFCURVE",
"624 765 OFFCURVE",
"645 726 OFFCURVE",
"658 702 OFFCURVE",
"677 657 OFFCURVE",
"685 639 OFFCURVE",
"703 593 OFFCURVE",
"705 589 QCURVE",
"522 332 LINE",
"520 328 OFFCURVE",
"499 279 OFFCURVE",
"488 239 OFFCURVE",
"485 211 QCURVE",
"487 195 OFFCURVE",
"489 185 QCURVE SMOOTH",
"496 155 OFFCURVE",
"527 109 OFFCURVE",
"539 106 QCURVE",
"558 162 OFFCURVE",
"597 245 OFFCURVE",
"656 332 OFFCURVE",
"742 398 OFFCURVE",
"798 420 QCURVE",
"808 477 OFFCURVE",
"808 538 QCURVE SMOOTH",
"808 619 OFFCURVE",
"790 694 QCURVE SMOOTH",
"767 792 OFFCURVE",
"681 998 OFFCURVE",
"631 1059 QCURVE",
"473 1035 OFFCURVE",
"344 1035 QCURVE SMOOTH",
"300 1035 OFFCURVE",
"300 1035 QCURVE SMOOTH",
"46 1035 OFFCURVE",
"-24 1144 QCURVE"
);
}
);
width = 1011;
}
);
note = kof;
unicode = 05E7;
},
{
glyphname = resh;
lastChange = "2018-07-29 15:04:19 +0000";
layers = (
{
layerId = "3C317020-980B-44E8-A79B-F384FFC5B400";
paths = (
{
closed = 1;
nodes = (
"667 448 OFFCURVE",
"717 234 QCURVE SMOOTH",
"735 155 OFFCURVE",
"735 98 QCURVE SMOOTH",
"735 58 OFFCURVE",
"726 22 QCURVE",
"773 6 LINE",
"818 47 OFFCURVE",
"818 158 QCURVE SMOOTH",
"818 247 OFFCURVE",
"789 374 QCURVE SMOOTH",
"743 571 LINE SMOOTH",
"720 669 OFFCURVE",
"667 831 OFFCURVE",
"598 972 OFFCURVE",
"511 1052 OFFCURVE",
"463 1052 QCURVE SMOOTH",
"90 1052 LINE",
"78 1054 OFFCURVE",
"55 1061 OFFCURVE",
"36 1066 OFFCURVE",
"15 1077 OFFCURVE",
"3 1083 OFFCURVE",
"-17 1096 OFFCURVE",
"-25 1102 OFFCURVE",
"-44 1118 OFFCURVE",
"-49 1122 OFFCURVE",
"-68 1140 OFFCURVE",
"-70 1141 QCURVE",
"-119 1078 OFFCURVE",
"-122 955 QCURVE",
"-88 927 LINE",
"-33 827 LINE",
"460 827 LINE",
"469 824 OFFCURVE",
"485 814 OFFCURVE",
"499 800 OFFCURVE",
"511 789 OFFCURVE",
"523 768 OFFCURVE",
"531 757 OFFCURVE",
"543 731 OFFCURVE",
"547 721 OFFCURVE",
"560 693 OFFCURVE",
"561 690 QCURVE"
);
}
);
width = 931;
}
);
note = resh;
unicode = 05E8;
},
{
glyphname = shin;
lastChange = "2018-07-29 15:04:19 +0000";
layers = (
{
layerId = "3C317020-980B-44E8-A79B-F384FFC5B400";
paths = (
{
closed = 1;
nodes = (
"56 1092 LINE",
"46 1102 OFFCURVE",
"20 1146 OFFCURVE",
"15 1169 QCURVE",
"-39 1123 OFFCURVE",
"-61 1048 QCURVE SMOOTH",
"-73 1007 OFFCURVE",
"-73 958 QCURVE SMOOTH",
"-73 938 OFFCURVE",
"-71 926 QCURVE",
"67 842 LINE",
"83 820 OFFCURVE",
"90 792 QCURVE SMOOTH",
"94 776 OFFCURVE",
"94 754 QCURVE SMOOTH",
"94 750 OFFCURVE",
"93 732 OFFCURVE",
"93 728 QCURVE",
"90 722 OFFCURVE",
"90 710 QCURVE SMOOTH",
"90 682 OFFCURVE",
"104 624 QCURVE SMOOTH",
"112 588 LINE",
"383 31 LINE",
"410 -30 OFFCURVE",
"476 -30 QCURVE",
"504 -33 OFFCURVE",
"522 -20 QCURVE",
"547 -10 OFFCURVE",
"597 15 OFFCURVE",
"653 54 OFFCURVE",
"692 81 OFFCURVE",
"758 137 OFFCURVE",
"786 161 OFFCURVE",
"862 229 OFFCURVE",
"873 238 QCURVE",
"913 262 LINE",
"946 637 LINE SMOOTH",
"947 648 OFFCURVE",
"951 665 OFFCURVE",
"958 678 OFFCURVE",
"962 684 OFFCURVE",
"972 694 OFFCURVE",
"973 696 QCURVE",
"998 726 OFFCURVE",
"1030 726 QCURVE",
"1063 784 OFFCURVE",
"1081 842 OFFCURVE",
"1083 902 QCURVE",
"926 1012 LINE SMOOTH",
"912 1022 OFFCURVE",
"868 1081 OFFCURVE",
"837 1130 OFFCURVE",
"836 1130 QCURVE",
"809 1107 OFFCURVE",
"778 1052 OFFCURVE",
"769 1014 OFFCURVE",
"761 941 OFFCURVE",
"758 925 QCURVE",
"904 802 LINE",
"795 398 LINE SMOOTH",
"787 368 OFFCURVE",
"754 304 OFFCURVE",
"706 242 OFFCURVE",
"635 203 OFFCURVE",
"596 203 QCURVE SMOOTH",
"568 203 OFFCURVE",
"526 208 QCURVE",
"524 595 LINE",
"524 598 LINE SMOOTH",
"524 690 OFFCURVE",
"591 755 QCURVE",
"592 755 OFFCURVE",
"603 767 OFFCURVE",
"618 774 OFFCURVE",
"627 774 QCURVE SMOOTH",
"639 774 OFFCURVE",
"652 768 QCURVE",
"664 789 OFFCURVE",
"684 886 OFFCURVE",
"685 920 QCURVE",
"673 929 OFFCURVE",
"532 1024 OFFCURVE",
"469 1088 OFFCURVE",
"460 1125 QCURVE",
"392 1056 OFFCURVE",
"375 1008 QCURVE SMOOTH",
"367 985 OFFCURVE",
"361 908 QCURVE",
"471 846 LINE",
"466 829 OFFCURVE",
"446 762 OFFCURVE",
"436 723 OFFCURVE",
"423 655 OFFCURVE",
"420 619 QCURVE",
"420 570 LINE SMOOTH",
"420 509 OFFCURVE",
"438 276 OFFCURVE",
"438 272 QCURVE",
"441 241 OFFCURVE",
"420 241 QCURVE SMOOTH",
"401 241 OFFCURVE",
"380 270 QCURVE SMOOTH",
"357 300 OFFCURVE",
"303 396 OFFCURVE",
"237 535 OFFCURVE",
"236 536 QCURVE",
"231 546 OFFCURVE",
"203 599 OFFCURVE",
"192 623 OFFCURVE",
"175 672 OFFCURVE",
"168 700 QCURVE",
"164 719 OFFCURVE",
"164 739 QCURVE SMOOTH",
"164 771 OFFCURVE",
"175 799 QCURVE",
"194 813 OFFCURVE",
"243 925 OFFCURVE",
"243 953 QCURVE SMOOTH",
"243 954 OFFCURVE",
"242 958 OFFCURVE",
"242 959 QCURVE",
"238 966 LINE",
"67 1082 LINE"
);
}
);
width = 1324;
}
);
note = shin;
unicode = 05E9;
},
{
glyphname = tav;
lastChange = "2018-07-29 15:04:19 +0000";
layers = (
{
layerId = "3C317020-980B-44E8-A79B-F384FFC5B400";
paths = (
{
closed = 1;
nodes = (
"150 1052 OFFCURVE",
"82 1078 OFFCURVE",
"43 1126 QCURVE",
"11 1084 OFFCURVE",
"11 1007 QCURVE SMOOTH",
"11 967 OFFCURVE",
"20 926 QCURVE",
"28 896 OFFCURVE",
"41 863 QCURVE",
"247 827 LINE",
"174 717 OFFCURVE",
"174 605 QCURVE SMOOTH",
"174 558 OFFCURVE",
"186 506 QCURVE SMOOTH",
"212 393 OFFCURVE",
"306 241 QCURVE",
"279 218 OFFCURVE",
"224 188 OFFCURVE",
"138 155 OFFCURVE",
"126 149 QCURVE",
"125 120 OFFCURVE",
"132 93 QCURVE",
"137 68 OFFCURVE",
"159 16 OFFCURVE",
"190 -45 OFFCURVE",
"197 -63 QCURVE",
"277 -42 OFFCURVE",
"415 26 OFFCURVE",
"500 79 QCURVE",
"455 271 LINE",
"407 271 LINE",
"316 416 OFFCURVE",
"289 533 QCURVE SMOOTH",
"276 588 OFFCURVE",
"276 639 QCURVE SMOOTH",
"276 704 OFFCURVE",
"299 775 QCURVE",
"308 799 OFFCURVE",
"341 827 OFFCURVE",
"357 827 QCURVE SMOOTH",
"571 827 LINE SMOOTH",
"624 827 OFFCURVE",
"664 771 QCURVE",
"678 739 OFFCURVE",
"766 547 OFFCURVE",
"806 453 OFFCURVE",
"870 300 OFFCURVE",
"909 179 OFFCURVE",
"922 125 QCURVE SMOOTH",
"929 98 OFFCURVE",
"937 41 QCURVE",
"1005 -11 LINE",
"1020 68 OFFCURVE",
"1020 125 QCURVE SMOOTH",
"1020 186 OFFCURVE",
"1007 239 QCURVE",
"787 811 LINE SMOOTH",
"781 826 OFFCURVE",
"752 896 OFFCURVE",
"734 937 OFFCURVE",
"700 995 OFFCURVE",
"668 1028 OFFCURVE",
"621 1052 OFFCURVE",
"594 1052 QCURVE SMOOTH",
"203 1052 LINE SMOOTH"
);
}
);
width = 1116;
}
);
note = tav;
unicode = 05EA;
},
{
glyphname = geresh;
lastChange = "2018-07-29 15:04:19 +0000";
layers = (
{
layerId = "3C317020-980B-44E8-A79B-F384FFC5B400";
paths = (
{
closed = 1;
nodes = (
"-26 1134 LINE SMOOTH",
"-38 1137 OFFCURVE",
"-45 1137 QCURVE SMOOTH",
"-68 1137 OFFCURVE",
"-68 1112 QCURVE SMOOTH",
"-69 1071 OFFCURVE",
"-69 988 QCURVE SMOOTH",
"-69 846 OFFCURVE",
"-63 698 QCURVE",
"-37 685 OFFCURVE",
"-18 685 QCURVE",
"44 874 LINE",
"113 1060 LINE",
"109 1079 OFFCURVE",
"102 1100 QCURVE"
);
}
);
width = 396;
}
);
note = geresh;
unicode = 05F3;
},
{
glyphname = zerononjoin;
lastChange = "2018-07-29 15:04:19 +0000";
layers = (
{
layerId = "3C317020-980B-44E8-A79B-F384FFC5B400";
paths = (
{
closed = 1;
nodes = (
"-570 1860 LINE",
"-439 1753 LINE",
"-521 1646 LINE",
"-480 1613 LINE",
"-397 1719 LINE",
"-266 1613 LINE",
"-240 1646 LINE",
"-372 1753 LINE",
"-289 1860 LINE",
"-331 1893 LINE",
"-412 1786 LINE",
"-545 1894 LINE"
);
}
);
width = 0;
}
);
note = zerononjoin;
unicode = 200C;
},
{
glyphname = zerojoin;
lastChange = "2018-07-29 15:04:19 +0000";
layers = (
{
layerId = "3C317020-980B-44E8-A79B-F384FFC5B400";
paths = (
{
closed = 1;
nodes = (
"-174 1637 LINE",
"-206 1777 LINE",
"-613 1777 LINE",
"-581 1637 LINE",
"-534 1637 LINE",
"-555 1730 LINE",
"-242 1730 LINE",
"-221 1637 LINE"
);
}
);
width = 0;
}
);
note = zerojoin;
unicode = 200D;
},
{
glyphname = lrm;
lastChange = "2018-07-29 15:04:19 +0000";
layers = (
{
layerId = "3C317020-980B-44E8-A79B-F384FFC5B400";
paths = (
{
closed = 1;
nodes = (
"-306 1777 LINE",
"-564 1777 LINE",
"-553 1730 LINE",
"-294 1730 LINE",
"-359 1646 LINE",
"-318 1612 LINE",
"-210 1753 LINE",
"-383 1894 LINE",
"-408 1860 LINE"
);
}
);
width = 0;
}
);
note = lrm;
unicode = 200E;
},
{
glyphname = rlm;
lastChange = "2018-07-29 15:04:19 +0000";
layers = (
{
layerId = "3C317020-980B-44E8-A79B-F384FFC5B400";
paths = (
{
closed = 1;
nodes = (
"-502 1730 LINE",
"-244 1730 LINE",
"-255 1777 LINE",
"-514 1777 LINE",
"-450 1861 LINE",
"-490 1895 LINE",
"-599 1754 LINE",
"-425 1613 LINE",
"-400 1647 LINE"
);
}
);
width = 0;
}
);
note = rlm;
unicode = 200F;
},
{
glyphname = quoteleft;
lastChange = "2018-07-29 15:04:19 +0000";
layers = (
{
layerId = "3C317020-980B-44E8-A79B-F384FFC5B400";
paths = (
{
closed = 1;
nodes = (
"-34 1481 OFFCURVE",
"-129 1481 QCURVE SMOOTH",
"-208 1481 OFFCURVE",
"-208 1423 QCURVE SMOOTH",
"-208 1410 OFFCURVE",
"-205 1395 QCURVE",
"-204 1392 OFFCURVE",
"-199 1372 OFFCURVE",
"-198 1366 QCURVE",
"-69 1032 LINE",
"-41 947 LINE",
"-39 942 OFFCURVE",
"-16 932 OFFCURVE",
"0 932 QCURVE SMOOTH",
"15 932 OFFCURVE",
"30 951 OFFCURVE",
"30 958 QCURVE",
"-16 1397 LINE"
);
}
);
width = 422;
}
);
note = quoteleft;
unicode = 2018;
},
{
glyphname = quoteright;
lastChange = "2018-07-29 15:04:19 +0000";
layers = (
{
layerId = "3C317020-980B-44E8-A79B-F384FFC5B400";
paths = (
{
closed = 1;
nodes = (
"-34 1481 OFFCURVE",
"-129 1481 QCURVE SMOOTH",
"-208 1481 OFFCURVE",
"-208 1423 QCURVE SMOOTH",
"-208 1410 OFFCURVE",
"-205 1395 QCURVE",
"-204 1392 OFFCURVE",
"-199 1372 OFFCURVE",
"-198 1366 QCURVE",
"-69 1032 LINE",
"-41 947 LINE",
"-39 942 OFFCURVE",
"-16 932 OFFCURVE",
"0 932 QCURVE SMOOTH",
"15 932 OFFCURVE",
"30 951 OFFCURVE",
"30 958 QCURVE",
"-16 1397 LINE"
);
}
);
width = 422;
}
);
note = quoteright;
unicode = 2019;
},
{
glyphname = quotesinglbase;
lastChange = "2018-07-29 15:04:19 +0000";
layers = (
{
layerId = "3C317020-980B-44E8-A79B-F384FFC5B400";
paths = (
{
closed = 1;
nodes = (
"248 243 OFFCURVE",
"155 243 QCURVE SMOOTH",
"76 243 OFFCURVE",
"76 184 QCURVE SMOOTH",
"76 172 OFFCURVE",
"79 157 QCURVE SMOOTH",
"81 146 OFFCURVE",
"85 128 QCURVE",
"215 -206 LINE",
"243 -291 OFFCURVE",
"244 -294 QCURVE",
"246 -302 OFFCURVE",
"281 -302 QCURVE SMOOTH",
"314 -302 OFFCURVE",
"314 -294 QCURVE",
"268 159 LINE"
);
}
);
width = 422;
}
);
note = quotesinglbase;
unicode = 201A;
},
{
glyphname = newshekel;
lastChange = "2018-07-29 15:04:19 +0000";
layers = (
{
layerId = "3C317020-980B-44E8-A79B-F384FFC5B400";
paths = (
{
closed = 1;
nodes = (
"-113 1074 OFFCURVE",
"-113 981 QCURVE SMOOTH",
"-113 926 OFFCURVE",
"-103 882 QCURVE SMOOTH",
"-96 852 OFFCURVE",
"-83 827 QCURVE",
"28 827 LINE",
"16 800 OFFCURVE",
"16 754 QCURVE SMOOTH",
"16 705 OFFCURVE",
"32 633 QCURVE SMOOTH",
"52 546 OFFCURVE",
"205 122 OFFCURVE",
"228 22 QCURVE",
"290 136 OFFCURVE",
"318 221 QCURVE",
"314 238 OFFCURVE",
"179 561 OFFCURVE",
"158 656 QCURVE SMOOTH",
"145 713 OFFCURVE",
"145 751 QCURVE SMOOTH",
"145 799 OFFCURVE",
"163 827 QCURVE",
"321 827 LINE SMOOTH",
"441 827 OFFCURVE",
"503 840 QCURVE",
"504 784 OFFCURVE",
"520 716 QCURVE SMOOTH",
"537 640 OFFCURVE",
"671 335 OFFCURVE",
"695 230 QCURVE",
"773 435 LINE",
"760 469 OFFCURVE",
"706 550 OFFCURVE",
"659 642 OFFCURVE",
"645 702 QCURVE SMOOTH",
"636 738 OFFCURVE",
"636 769 QCURVE SMOOTH",
"636 836 OFFCURVE",
"683 862 QCURVE",
"621 1042 LINE",
"520 1022 OFFCURVE",
"339 1022 QCURVE SMOOTH",
"292 1022 OFFCURVE",
"102 1025 OFFCURVE",
"55 1025 QCURVE SMOOTH",
"-14 1025 OFFCURVE",
"-86 1084 QCURVE"
);
},
{
closed = 1;
nodes = (
"219 773 OFFCURVE",
"219 693 QCURVE SMOOTH",
"219 650 OFFCURVE",
"228 610 QCURVE SMOOTH",
"235 581 OFFCURVE",
"245 563 QCURVE",
"272 552 OFFCURVE",
"319 543 OFFCURVE",
"339 536 QCURVE",
"368 498 OFFCURVE",
"402 424 OFFCURVE",
"434 328 OFFCURVE",
"451 293 QCURVE",
"489 227 OFFCURVE",
"575 136 OFFCURVE",
"698 23 OFFCURVE",
"750 -37 QCURVE SMOOTH",
"774 -64 OFFCURVE",
"802 -64 QCURVE SMOOTH",
"845 -64 OFFCURVE",
"876 -16 QCURVE",
"930 46 OFFCURVE",
"997 179 OFFCURVE",
"1033 286 QCURVE",
"1043 367 LINE",
"1031 417 OFFCURVE",
"981 574 OFFCURVE",
"974 606 QCURVE SMOOTH",
"963 655 OFFCURVE",
"963 698 QCURVE SMOOTH",
"963 728 OFFCURVE",
"967 752 QCURVE",
"968 760 OFFCURVE",
"980 774 OFFCURVE",
"1001 791 OFFCURVE",
"1004 794 QCURVE",
"963 971 LINE",
"858 1016 LINE SMOOTH",
"762 1057 OFFCURVE",
"731 1095 QCURVE",
"703 1075 OFFCURVE",
"703 1003 QCURVE SMOOTH",
"703 954 OFFCURVE",
"715 904 QCURVE SMOOTH",
"725 864 OFFCURVE",
"734 849 QCURVE",
"876 798 LINE",
"971 385 LINE",
"968 379 OFFCURVE",
"954 349 OFFCURVE",
"947 338 OFFCURVE",
"929 311 OFFCURVE",
"908 290 OFFCURVE",
"871 256 OFFCURVE",
"846 236 QCURVE",
"841 235 OFFCURVE",
"812 219 OFFCURVE",
"803 219 QCURVE SMOOTH",
"697 219 LINE SMOOTH",
"587 219 OFFCURVE",
"482 384 QCURVE SMOOTH",
"459 422 OFFCURVE",
"440 503 QCURVE SMOOTH",
"438 513 OFFCURVE",
"448 526 OFFCURVE",
"464 537 QCURVE",
"455 658 LINE",
"382 682 OFFCURVE",
"298 723 OFFCURVE",
"265 751 OFFCURVE",
"245 777 QCURVE"
);
}
);
width = 1389;
}
);
note = newshekel;
unicode = 20AA;
},
{
glyphname = Euro;
lastChange = "2018-07-29 15:04:19 +0000";
layers = (
{
layerId = "3C317020-980B-44E8-A79B-F384FFC5B400";
paths = (
{
closed = 1;
nodes = (
"382 1167 OFFCURVE",
"222 1089 OFFCURVE",
"123 957 OFFCURVE",
"66 801 OFFCURVE",
"59 714 QCURVE",
"7 704 OFFCURVE",
"-19 681 QCURVE",
"-23 670 OFFCURVE",
"-19 651 QCURVE",
"-14 632 OFFCURVE",
"8 591 QCURVE",
"45 591 LINE",
"63 511 LINE",
"30 511 LINE",
"15 487 OFFCURVE",
"23 449 QCURVE",
"26 437 OFFCURVE",
"29 424 QCURVE",
"96 424 LINE",
"206 190 OFFCURVE",
"529 -58 OFFCURVE",
"688 -58 QCURVE SMOOTH",
"792 -58 OFFCURVE",
"954 53 OFFCURVE",
"992 157 QCURVE",
"994 168 OFFCURVE",
"991 188 QCURVE",
"985 214 OFFCURVE",
"957 214 QCURVE SMOOTH",
"953 214 OFFCURVE",
"934 211 OFFCURVE",
"929 211 QCURVE",
"828 137 OFFCURVE",
"713 137 QCURVE SMOOTH",
"643 137 OFFCURVE",
"501 193 OFFCURVE",
"389 282 OFFCURVE",
"303 375 OFFCURVE",
"274 421 QCURVE",
"318 414 OFFCURVE",
"515 380 OFFCURVE",
"600 367 OFFCURVE",
"750 354 OFFCURVE",
"824 354 QCURVE",
"847 487 LINE",
"798 487 OFFCURVE",
"638 489 OFFCURVE",
"595 489 QCURVE SMOOTH",
"490 489 OFFCURVE",
"352 501 OFFCURVE",
"244 521 QCURVE",
"229 584 LINE",
"360 584 OFFCURVE",
"772 574 OFFCURVE",
"889 574 QCURVE",
"896 738 LINE",
"785 721 OFFCURVE",
"631 713 OFFCURVE",
"488 713 QCURVE SMOOTH",
"444 713 OFFCURVE",
"265 714 OFFCURVE",
"220 714 QCURVE",
"217 747 OFFCURVE",
"217 777 QCURVE SMOOTH",
"217 901 OFFCURVE",
"334 1049 OFFCURVE",
"462 1049 QCURVE SMOOTH",
"494 1049 LINE SMOOTH",
"563 1049 OFFCURVE",
"665 985 OFFCURVE",
"677 933 QCURVE SMOOTH",
"680 921 OFFCURVE",
"680 907 QCURVE SMOOTH",
"680 886 OFFCURVE",
"672 864 QCURVE",
"729 884 OFFCURVE",
"772 884 QCURVE SMOOTH",
"824 884 OFFCURVE",
"876 861 QCURVE",
"864 914 OFFCURVE",
"862 921 QCURVE",
"847 987 OFFCURVE",
"797 1067 OFFCURVE",
"727 1118 QCURVE",
"594 1167 OFFCURVE",
"482 1167 QCURVE SMOOTH"
);
}
);
width = 1127;
}
);
note = Euro;
unicode = 20AC;
},
